<?xml version="1.0" encoding="UTF-8" standalone="no"?>
<!DOCTYPE svg PUBLIC "-//W3C//DTD SVG 1.1//EN"
 "http://www.w3.org/Graphics/SVG/1.1/DTD/svg11.dtd">
<!-- Generated by graphviz version 12.0.0 (0)
 -->
<!-- Title: OpsSpecTree Pages: 1 -->
<svg width="1149pt" height="155pt"
 viewBox="0.00 0.00 1148.50 155.00" xmlns="http://www.w3.org/2000/svg" xmlns:xlink="http://www.w3.org/1999/xlink">
<g id="graph0" class="graph" transform="scale(1 1) rotate(0) translate(4 151)">
<title>OpsSpecTree</title>
<polygon fill="white" stroke="none" points="-4,4 -4,-151 1144.5,-151 1144.5,4 -4,4"/>
<g id="clust1" class="cluster">
<title>cluster_ops</title>
<path fill="#e8f0fe" stroke="#bbbbbb" d="M20,-8C20,-8 435.25,-8 435.25,-8 441.25,-8 447.25,-14 447.25,-20 447.25,-20 447.25,-127 447.25,-127 447.25,-133 441.25,-139 435.25,-139 435.25,-139 20,-139 20,-139 14,-139 8,-133 8,-127 8,-127 8,-20 8,-20 8,-14 14,-8 20,-8"/>
<text text-anchor="middle" x="227.62" y="-121.7" font-family="Times,serif" font-size="14.00">ops</text>
</g>
<g id="clust2" class="cluster">
<title>cluster_ops2</title>
<path fill="#e8f5e9" stroke="#bbbbbb" d="M479.25,-8C479.25,-8 878.75,-8 878.75,-8 884.75,-8 890.75,-14 890.75,-20 890.75,-20 890.75,-127 890.75,-127 890.75,-133 884.75,-139 878.75,-139 878.75,-139 479.25,-139 479.25,-139 473.25,-139 467.25,-133 467.25,-127 467.25,-127 467.25,-20 467.25,-20 467.25,-14 473.25,-8 479.25,-8"/>
<text text-anchor="middle" x="679" y="-121.7" font-family="Times,serif" font-size="14.00">ops2</text>
</g>
<g id="clust3" class="cluster">
<title>cluster_ops3</title>
<path fill="#e8f5e9" stroke="#bbbbbb" d="M922.75,-35C922.75,-35 1120.5,-35 1120.5,-35 1126.5,-35 1132.5,-41 1132.5,-47 1132.5,-47 1132.5,-100 1132.5,-100 1132.5,-106 1126.5,-112 1120.5,-112 1120.5,-112 922.75,-112 922.75,-112 916.75,-112 910.75,-106 910.75,-100 910.75,-100 910.75,-47 910.75,-47 910.75,-41 916.75,-35 922.75,-35"/>
<text text-anchor="middle" x="1021.62" y="-94.7" font-family="Times,serif" font-size="14.00">ops3</text>
</g>
<!-- n1 -->
<g id="node1" class="node">
<title>n1</title>
<path fill="white" stroke="black" d="M427.25,-52C427.25,-52 28,-52 28,-52 22,-52 16,-46 16,-40 16,-40 16,-28 16,-28 16,-22 22,-16 28,-16 28,-16 427.25,-16 427.25,-16 433.25,-16 439.25,-22 439.25,-28 439.25,-28 439.25,-40 439.25,-40 439.25,-46 433.25,-52 427.25,-52"/>
<text text-anchor="middle" x="227.62" y="-28.2" font-family="Helvetica,sans-Serif" font-size="14.00">n1 average (ops) field=Revenue_Million_Euros group=Broadcasting</text>
</g>
<!-- n3 -->
<g id="node3" class="node">
<title>n3</title>
<path fill="white" stroke="black" d="M870.75,-52C870.75,-52 487.25,-52 487.25,-52 481.25,-52 475.25,-46 475.25,-40 475.25,-40 475.25,-28 475.25,-28 475.25,-22 481.25,-16 487.25,-16 487.25,-16 870.75,-16 870.75,-16 876.75,-16 882.75,-22 882.75,-28 882.75,-28 882.75,-40 882.75,-40 882.75,-46 876.75,-52 870.75,-52"/>
<text text-anchor="middle" x="679" y="-28.2" font-family="Helvetica,sans-Serif" font-size="14.00">n3 filter (ops2) field=Revenue_Million_Euros group=Broadcasting</text>
</g>
<!-- n1&#45;&gt;n3 -->
<g id="edge1" class="edge">
<title>n1&#45;&gt;n3</title>
<path fill="none" stroke="#666666" d="M439.5,-34C447.48,-34 455.48,-34 463.47,-34"/>
<polygon fill="#666666" stroke="#666666" points="463.24,-37.5 473.24,-34 463.24,-30.5 463.24,-37.5"/>
</g>
<!-- n2 -->
<g id="node2" class="node">
<title>n2</title>
<path fill="white" stroke="black" d="M424.62,-106C424.62,-106 30.63,-106 30.63,-106 24.62,-106 18.62,-100 18.62,-94 18.62,-94 18.62,-82 18.62,-82 18.62,-76 24.62,-70 30.62,-70 30.62,-70 424.62,-70 424.62,-70 430.62,-70 436.62,-76 436.62,-82 436.62,-82 436.62,-94 436.62,-94 436.62,-100 430.62,-106 424.62,-106"/>
<text text-anchor="middle" x="227.62" y="-82.2" font-family="Helvetica,sans-Serif" font-size="14.00">n2 average (ops) field=Revenue_Million_Euros group=Commercial</text>
</g>
<!-- n4 -->
<g id="node4" class="node">
<title>n4</title>
<path fill="white" stroke="black" d="M868.12,-106C868.12,-106 489.88,-106 489.88,-106 483.88,-106 477.88,-100 477.88,-94 477.88,-94 477.88,-82 477.88,-82 477.88,-76 483.88,-70 489.88,-70 489.88,-70 868.12,-70 868.12,-70 874.12,-70 880.12,-76 880.12,-82 880.12,-82 880.12,-94 880.12,-94 880.12,-100 874.12,-106 868.12,-106"/>
<text text-anchor="middle" x="679" y="-82.2" font-family="Helvetica,sans-Serif" font-size="14.00">n4 filter (ops2) field=Revenue_Million_Euros group=Commercial</text>
</g>
<!-- n2&#45;&gt;n4 -->
<g id="edge2" class="edge">
<title>n2&#45;&gt;n4</title>
<path fill="none" stroke="#666666" d="M436.87,-88C446.6,-88 456.38,-88 466.13,-88"/>
<polygon fill="#666666" stroke="#666666" points="466.03,-91.5 476.03,-88 466.03,-84.5 466.03,-91.5"/>
</g>
<!-- n5 -->
<g id="node5" class="node">
<title>n5</title>
<path fill="white" stroke="black" d="M1112.5,-79C1112.5,-79 930.75,-79 930.75,-79 924.75,-79 918.75,-73 918.75,-67 918.75,-67 918.75,-55 918.75,-55 918.75,-49 924.75,-43 930.75,-43 930.75,-43 1112.5,-43 1112.5,-43 1118.5,-43 1124.5,-49 1124.5,-55 1124.5,-55 1124.5,-67 1124.5,-67 1124.5,-73 1118.5,-79 1112.5,-79"/>
<text text-anchor="middle" x="1021.62" y="-55.2" font-family="Helvetica,sans-Serif" font-size="14.00">n5 setOp (ops3) fn=intersection</text>
</g>
<!-- n3&#45;&gt;n5 -->
<g id="edge3" class="edge">
<title>n3&#45;&gt;n5</title>
<path fill="none" stroke="#666666" d="M883.06,-50.1C891.2,-50.74 899.23,-51.38 907.08,-52"/>
<polygon fill="#666666" stroke="#666666" points="906.69,-55.48 916.94,-52.78 907.25,-48.5 906.69,-55.48"/>
</g>
<!-- n4&#45;&gt;n5 -->
<g id="edge4" class="edge">
<title>n4&#45;&gt;n5</title>
<path fill="none" stroke="#666666" d="M880.61,-72.1C889.64,-71.38 898.56,-70.68 907.26,-69.99"/>
<polygon fill="#666666" stroke="#666666" points="907.35,-73.49 917.05,-69.21 906.8,-66.51 907.35,-73.49"/>
</g>
</g>
</svg>
