<?xml version="1.0" encoding="UTF-8" standalone="no"?>
<!DOCTYPE svg PUBLIC "-//W3C//DTD SVG 1.1//EN"
 "http://www.w3.org/Graphics/SVG/1.1/DTD/svg11.dtd">
<!-- Generated by graphviz version 12.0.0 (0)
 -->
<!-- Title: OpsSpecTree Pages: 1 -->
<svg width="886pt" height="101pt"
 viewBox="0.00 0.00 886.00 101.00" xmlns="http://www.w3.org/2000/svg" xmlns:xlink="http://www.w3.org/1999/xlink">
<g id="graph0" class="graph" transform="scale(1 1) rotate(0) translate(4 97)">
<title>OpsSpecTree</title>
<polygon fill="white" stroke="none" points="-4,4 -4,-97 882,-97 882,4 -4,4"/>
<g id="clust1" class="cluster">
<title>cluster_ops</title>
<path fill="#e8f0fe" stroke="#bbbbbb" d="M20,-8C20,-8 314.5,-8 314.5,-8 320.5,-8 326.5,-14 326.5,-20 326.5,-20 326.5,-73 326.5,-73 326.5,-79 320.5,-85 314.5,-85 314.5,-85 20,-85 20,-85 14,-85 8,-79 8,-73 8,-73 8,-20 8,-20 8,-14 14,-8 20,-8"/>
<text text-anchor="middle" x="167.25" y="-67.7" font-family="Times,serif" font-size="14.00">ops</text>
</g>
<g id="clust2" class="cluster">
<title>cluster_ops2</title>
<path fill="#e8f5e9" stroke="#bbbbbb" d="M358.5,-8C358.5,-8 637.25,-8 637.25,-8 643.25,-8 649.25,-14 649.25,-20 649.25,-20 649.25,-73 649.25,-73 649.25,-79 643.25,-85 637.25,-85 637.25,-85 358.5,-85 358.5,-85 352.5,-85 346.5,-79 346.5,-73 346.5,-73 346.5,-20 346.5,-20 346.5,-14 352.5,-8 358.5,-8"/>
<text text-anchor="middle" x="497.88" y="-67.7" font-family="Times,serif" font-size="14.00">ops2</text>
</g>
<g id="clust3" class="cluster">
<title>cluster_ops3</title>
<path fill="#e8f5e9" stroke="#bbbbbb" d="M681.25,-8C681.25,-8 858,-8 858,-8 864,-8 870,-14 870,-20 870,-20 870,-73 870,-73 870,-79 864,-85 858,-85 858,-85 681.25,-85 681.25,-85 675.25,-85 669.25,-79 669.25,-73 669.25,-73 669.25,-20 669.25,-20 669.25,-14 675.25,-8 681.25,-8"/>
<text text-anchor="middle" x="769.62" y="-67.7" font-family="Times,serif" font-size="14.00">ops3</text>
</g>
<!-- n1 -->
<g id="node1" class="node">
<title>n1</title>
<path fill="white" stroke="black" d="M306.5,-52C306.5,-52 28,-52 28,-52 22,-52 16,-46 16,-40 16,-40 16,-28 16,-28 16,-22 22,-16 28,-16 28,-16 306.5,-16 306.5,-16 312.5,-16 318.5,-22 318.5,-28 318.5,-28 318.5,-40 318.5,-40 318.5,-46 312.5,-52 306.5,-52"/>
<text text-anchor="middle" x="167.25" y="-28.2" font-family="Helvetica,sans-Serif" font-size="14.00">n1 average (ops) field=Growth rate of HICP (%)</text>
</g>
<!-- n2 -->
<g id="node2" class="node">
<title>n2</title>
<path fill="white" stroke="black" d="M629.25,-52C629.25,-52 366.5,-52 366.5,-52 360.5,-52 354.5,-46 354.5,-40 354.5,-40 354.5,-28 354.5,-28 354.5,-22 360.5,-16 366.5,-16 366.5,-16 629.25,-16 629.25,-16 635.25,-16 641.25,-22 641.25,-28 641.25,-28 641.25,-40 641.25,-40 641.25,-46 635.25,-52 629.25,-52"/>
<text text-anchor="middle" x="497.88" y="-28.2" font-family="Helvetica,sans-Serif" font-size="14.00">n2 filter (ops2) field=Growth rate of HICP (%)</text>
</g>
<!-- n1&#45;&gt;n2 -->
<g id="edge1" class="edge">
<title>n1&#45;&gt;n2</title>
<path fill="none" stroke="#666666" d="M318.62,-34C326.66,-34 334.74,-34 342.8,-34"/>
<polygon fill="#666666" stroke="#666666" points="342.64,-37.5 352.64,-34 342.64,-30.5 342.64,-37.5"/>
</g>
<!-- n3 -->
<g id="node3" class="node">
<title>n3</title>
<path fill="white" stroke="black" d="M850,-52C850,-52 689.25,-52 689.25,-52 683.25,-52 677.25,-46 677.25,-40 677.25,-40 677.25,-28 677.25,-28 677.25,-22 683.25,-16 689.25,-16 689.25,-16 850,-16 850,-16 856,-16 862,-22 862,-28 862,-28 862,-40 862,-40 862,-46 856,-52 850,-52"/>
<text text-anchor="middle" x="769.62" y="-28.2" font-family="Helvetica,sans-Serif" font-size="14.00">n3 count (ops3) field=Month</text>
</g>
<!-- n2&#45;&gt;n3 -->
<g id="edge2" class="edge">
<title>n2&#45;&gt;n3</title>
<path fill="none" stroke="#666666" d="M641.65,-34C649.72,-34 657.74,-34 665.62,-34"/>
<polygon fill="#666666" stroke="#666666" points="665.52,-37.5 675.52,-34 665.52,-30.5 665.52,-37.5"/>
</g>
</g>
</svg>
