<?xml version="1.0" encoding="UTF-8" standalone="no"?>
<!DOCTYPE svg PUBLIC "-//W3C//DTD SVG 1.1//EN"
 "http://www.w3.org/Graphics/SVG/1.1/DTD/svg11.dtd">
<!-- Generated by graphviz version 12.0.0 (0)
 -->
<!-- Title: OpsSpecTree Pages: 1 -->
<svg width="904pt" height="186pt"
 viewBox="0.00 0.00 904.00 186.00" xmlns="http://www.w3.org/2000/svg" xmlns:xlink="http://www.w3.org/1999/xlink">
<g id="graph0" class="graph" transform="scale(1 1) rotate(0) translate(4 182)">
<title>OpsSpecTree</title>
<polygon fill="white" stroke="none" points="-4,4 -4,-182 900,-182 900,4 -4,4"/>
<g id="clust1" class="cluster">
<title>cluster_ops</title>
<path fill="#e8f0fe" stroke="#bbbbbb" d="M49.25,-93C49.25,-93 599.75,-93 599.75,-93 605.75,-93 611.75,-99 611.75,-105 611.75,-105 611.75,-158 611.75,-158 611.75,-164 605.75,-170 599.75,-170 599.75,-170 49.25,-170 49.25,-170 43.25,-170 37.25,-164 37.25,-158 37.25,-158 37.25,-105 37.25,-105 37.25,-99 43.25,-93 49.25,-93"/>
<text text-anchor="middle" x="324.5" y="-152.7" font-family="Times,serif" font-size="14.00">ops</text>
</g>
<g id="clust2" class="cluster">
<title>cluster_ops2</title>
<path fill="#e8f5e9" stroke="#bbbbbb" d="M20,-8C20,-8 603.5,-8 603.5,-8 609.5,-8 615.5,-14 615.5,-20 615.5,-20 615.5,-73 615.5,-73 615.5,-79 609.5,-85 603.5,-85 603.5,-85 20,-85 20,-85 14,-85 8,-79 8,-73 8,-73 8,-20 8,-20 8,-14 14,-8 20,-8"/>
<text text-anchor="middle" x="311.75" y="-67.7" font-family="Times,serif" font-size="14.00">ops2</text>
</g>
<g id="clust3" class="cluster">
<title>cluster_ops3</title>
<path fill="#e8f5e9" stroke="#bbbbbb" d="M700.75,-93C700.75,-93 822.75,-93 822.75,-93 828.75,-93 834.75,-99 834.75,-105 834.75,-105 834.75,-158 834.75,-158 834.75,-164 828.75,-170 822.75,-170 822.75,-170 700.75,-170 700.75,-170 694.75,-170 688.75,-164 688.75,-158 688.75,-158 688.75,-105 688.75,-105 688.75,-99 694.75,-93 700.75,-93"/>
<text text-anchor="middle" x="761.75" y="-152.7" font-family="Times,serif" font-size="14.00">ops3</text>
</g>
<g id="clust4" class="cluster">
<title>cluster_ops4</title>
<path fill="#e8f5e9" stroke="#bbbbbb" d="M647.5,-8C647.5,-8 876,-8 876,-8 882,-8 888,-14 888,-20 888,-20 888,-73 888,-73 888,-79 882,-85 876,-85 876,-85 647.5,-85 647.5,-85 641.5,-85 635.5,-79 635.5,-73 635.5,-73 635.5,-20 635.5,-20 635.5,-14 641.5,-8 647.5,-8"/>
<text text-anchor="middle" x="761.75" y="-67.7" font-family="Times,serif" font-size="14.00">ops4</text>
</g>
<!-- n1 -->
<g id="node1" class="node">
<title>n1</title>
<path fill="white" stroke="black" d="M227,-137C227,-137 57.25,-137 57.25,-137 51.25,-137 45.25,-131 45.25,-125 45.25,-125 45.25,-113 45.25,-113 45.25,-107 51.25,-101 57.25,-101 57.25,-101 227,-101 227,-101 233,-101 239,-107 239,-113 239,-113 239,-125 239,-125 239,-131 233,-137 227,-137"/>
<text text-anchor="middle" x="142.12" y="-113.2" font-family="Helvetica,sans-Serif" font-size="14.00">n1 filter (ops) group=Scotland</text>
</g>
<!-- n2 -->
<g id="node2" class="node">
<title>n2</title>
<path fill="white" stroke="black" d="M591.75,-137C591.75,-137 320,-137 320,-137 314,-137 308,-131 308,-125 308,-125 308,-113 308,-113 308,-107 314,-101 320,-101 320,-101 591.75,-101 591.75,-101 597.75,-101 603.75,-107 603.75,-113 603.75,-113 603.75,-125 603.75,-125 603.75,-131 597.75,-137 591.75,-137"/>
<text text-anchor="middle" x="455.88" y="-113.2" font-family="Helvetica,sans-Serif" font-size="14.00">n2 findExtremum (ops) field=SharePercentage</text>
</g>
<!-- n1&#45;&gt;n2 -->
<g id="edge1" class="edge">
<title>n1&#45;&gt;n2</title>
<path fill="none" stroke="#666666" d="M239.2,-119C257.3,-119 276.66,-119 296.09,-119"/>
<polygon fill="#666666" stroke="#666666" points="296.01,-122.5 306.01,-119 296.01,-115.5 296.01,-122.5"/>
</g>
<!-- n5 -->
<g id="node5" class="node">
<title>n5</title>
<path fill="white" stroke="black" d="M814.75,-137C814.75,-137 708.75,-137 708.75,-137 702.75,-137 696.75,-131 696.75,-125 696.75,-125 696.75,-113 696.75,-113 696.75,-107 702.75,-101 708.75,-101 708.75,-101 814.75,-101 814.75,-101 820.75,-101 826.75,-107 826.75,-113 826.75,-113 826.75,-125 826.75,-125 826.75,-131 820.75,-137 814.75,-137"/>
<text text-anchor="middle" x="761.75" y="-113.2" font-family="Helvetica,sans-Serif" font-size="14.00">n5 compare (ops3)</text>
</g>
<!-- n2&#45;&gt;n5 -->
<g id="edge3" class="edge">
<title>n2&#45;&gt;n5</title>
<path fill="none" stroke="#666666" d="M603.92,-119C632.03,-119 660.38,-119 685.09,-119"/>
<polygon fill="#666666" stroke="#666666" points="685.02,-122.5 695.02,-119 685.02,-115.5 685.02,-122.5"/>
</g>
<!-- n6 -->
<g id="node6" class="node">
<title>n6</title>
<path fill="white" stroke="black" d="M868,-52C868,-52 655.5,-52 655.5,-52 649.5,-52 643.5,-46 643.5,-40 643.5,-40 643.5,-28 643.5,-28 643.5,-22 649.5,-16 655.5,-16 655.5,-16 868,-16 868,-16 874,-16 880,-22 880,-28 880,-28 880,-40 880,-40 880,-46 874,-52 868,-52"/>
<text text-anchor="middle" x="761.75" y="-28.2" font-family="Helvetica,sans-Serif" font-size="14.00">n6 diff (ops4) field=SharePercentage</text>
</g>
<!-- n2&#45;&gt;n6 -->
<g id="edge5" class="edge">
<title>n2&#45;&gt;n6</title>
<path fill="none" stroke="#666666" d="M567.96,-100.56C584.02,-97.15 600.26,-93.29 615.5,-89 646.66,-80.23 680.54,-67.58 707.74,-56.63"/>
<polygon fill="#666666" stroke="#666666" points="708.85,-59.96 716.79,-52.95 706.21,-53.48 708.85,-59.96"/>
</g>
<!-- n3 -->
<g id="node3" class="node">
<title>n3</title>
<path fill="white" stroke="black" d="M256.25,-52C256.25,-52 28,-52 28,-52 22,-52 16,-46 16,-40 16,-40 16,-28 16,-28 16,-22 22,-16 28,-16 28,-16 256.25,-16 256.25,-16 262.25,-16 268.25,-22 268.25,-28 268.25,-28 268.25,-40 268.25,-40 268.25,-46 262.25,-52 256.25,-52"/>
<text text-anchor="middle" x="142.12" y="-28.2" font-family="Helvetica,sans-Serif" font-size="14.00">n3 filter (ops2) group=England &amp; Wales</text>
</g>
<!-- n4 -->
<g id="node4" class="node">
<title>n4</title>
<path fill="white" stroke="black" d="M595.5,-52C595.5,-52 316.25,-52 316.25,-52 310.25,-52 304.25,-46 304.25,-40 304.25,-40 304.25,-28 304.25,-28 304.25,-22 310.25,-16 316.25,-16 316.25,-16 595.5,-16 595.5,-16 601.5,-16 607.5,-22 607.5,-28 607.5,-28 607.5,-40 607.5,-40 607.5,-46 601.5,-52 595.5,-52"/>
<text text-anchor="middle" x="455.88" y="-28.2" font-family="Helvetica,sans-Serif" font-size="14.00">n4 findExtremum (ops2) field=SharePercentage</text>
</g>
<!-- n3&#45;&gt;n4 -->
<g id="edge2" class="edge">
<title>n3&#45;&gt;n4</title>
<path fill="none" stroke="#666666" d="M268.58,-34C276.46,-34 284.44,-34 292.45,-34"/>
<polygon fill="#666666" stroke="#666666" points="292.26,-37.5 302.26,-34 292.26,-30.5 292.26,-37.5"/>
</g>
<!-- n4&#45;&gt;n5 -->
<g id="edge4" class="edge">
<title>n4&#45;&gt;n5</title>
<path fill="none" stroke="#666666" d="M513.32,-52.39C548.34,-63.54 594.34,-77.75 635.5,-89 651.69,-93.43 669.15,-97.84 685.75,-101.86"/>
<polygon fill="#666666" stroke="#666666" points="684.5,-105.16 695.04,-104.09 686.13,-98.35 684.5,-105.16"/>
</g>
<!-- n4&#45;&gt;n6 -->
<g id="edge6" class="edge">
<title>n4&#45;&gt;n6</title>
<path fill="none" stroke="#666666" d="M607.92,-34C616.02,-34 624.12,-34 632.14,-34"/>
<polygon fill="#666666" stroke="#666666" points="631.89,-37.5 641.89,-34 631.89,-30.5 631.89,-37.5"/>
</g>
</g>
</svg>
