<?xml version="1.0" encoding="UTF-8" standalone="no"?>
<!DOCTYPE svg PUBLIC "-//W3C//DTD SVG 1.1//EN"
 "http://www.w3.org/Graphics/SVG/1.1/DTD/svg11.dtd">
<!-- Generated by graphviz version 12.0.0 (0)
 -->
<!-- Title: OpsSpecTree Pages: 1 -->
<svg width="748pt" height="101pt"
 viewBox="0.00 0.00 747.75 101.00" xmlns="http://www.w3.org/2000/svg" xmlns:xlink="http://www.w3.org/1999/xlink">
<g id="graph0" class="graph" transform="scale(1 1) rotate(0) translate(4 97)">
<title>OpsSpecTree</title>
<polygon fill="white" stroke="none" points="-4,4 -4,-97 743.75,-97 743.75,4 -4,4"/>
<g id="clust1" class="cluster">
<title>cluster_ops</title>
<path fill="#e8f0fe" stroke="#bbbbbb" d="M20,-8C20,-8 172,-8 172,-8 178,-8 184,-14 184,-20 184,-20 184,-73 184,-73 184,-79 178,-85 172,-85 172,-85 20,-85 20,-85 14,-85 8,-79 8,-73 8,-73 8,-20 8,-20 8,-14 14,-8 20,-8"/>
<text text-anchor="middle" x="96" y="-67.7" font-family="Times,serif" font-size="14.00">ops</text>
</g>
<g id="clust2" class="cluster">
<title>cluster_ops2</title>
<path fill="#e8f5e9" stroke="#bbbbbb" d="M216,-8C216,-8 719.75,-8 719.75,-8 725.75,-8 731.75,-14 731.75,-20 731.75,-20 731.75,-73 731.75,-73 731.75,-79 725.75,-85 719.75,-85 719.75,-85 216,-85 216,-85 210,-85 204,-79 204,-73 204,-73 204,-20 204,-20 204,-14 210,-8 216,-8"/>
<text text-anchor="middle" x="467.88" y="-67.7" font-family="Times,serif" font-size="14.00">ops2</text>
</g>
<!-- n1 -->
<g id="node1" class="node">
<title>n1</title>
<path fill="white" stroke="black" d="M164,-52C164,-52 28,-52 28,-52 22,-52 16,-46 16,-40 16,-40 16,-28 16,-28 16,-22 22,-16 28,-16 28,-16 164,-16 164,-16 170,-16 176,-22 176,-28 176,-28 176,-40 176,-40 176,-46 170,-52 164,-52"/>
<text text-anchor="middle" x="96" y="-28.2" font-family="Helvetica,sans-Serif" font-size="14.00">n1 filter (ops) field=Year</text>
</g>
<!-- n2 -->
<g id="node2" class="node">
<title>n2</title>
<path fill="white" stroke="black" d="M711.75,-52C711.75,-52 224,-52 224,-52 218,-52 212,-46 212,-40 212,-40 212,-28 212,-28 212,-22 218,-16 224,-16 224,-16 711.75,-16 711.75,-16 717.75,-16 723.75,-22 723.75,-28 723.75,-28 723.75,-40 723.75,-40 723.75,-46 717.75,-52 711.75,-52"/>
<text text-anchor="middle" x="467.88" y="-28.2" font-family="Helvetica,sans-Serif" font-size="14.00">n2 average (ops2) field=Percentage_of_Respondents group=Favorable view of US</text>
</g>
<!-- n1&#45;&gt;n2 -->
<g id="edge1" class="edge">
<title>n1&#45;&gt;n2</title>
<path fill="none" stroke="#666666" d="M176.35,-34C184.01,-34 192.03,-34 200.33,-34"/>
<polygon fill="#666666" stroke="#666666" points="200.3,-37.5 210.3,-34 200.3,-30.5 200.3,-37.5"/>
</g>
</g>
</svg>
