<?xml version="1.0" encoding="UTF-8" standalone="no"?>
<!DOCTYPE svg PUBLIC "-//W3C//DTD SVG 1.1//EN"
 "http://www.w3.org/Graphics/SVG/1.1/DTD/svg11.dtd">
<!-- Generated by graphviz version 12.0.0 (0)
 -->
<!-- Title: OpsSpecTree Pages: 1 -->
<svg width="561pt" height="101pt"
 viewBox="0.00 0.00 561.00 101.00" xmlns="http://www.w3.org/2000/svg" xmlns:xlink="http://www.w3.org/1999/xlink">
<g id="graph0" class="graph" transform="scale(1 1) rotate(0) translate(4 97)">
<title>OpsSpecTree</title>
<polygon fill="white" stroke="none" points="-4,4 -4,-97 557,-97 557,4 -4,4"/>
<g id="clust1" class="cluster">
<title>cluster_ops</title>
<path fill="#e8f0fe" stroke="#bbbbbb" d="M20,-8C20,-8 229.75,-8 229.75,-8 235.75,-8 241.75,-14 241.75,-20 241.75,-20 241.75,-73 241.75,-73 241.75,-79 235.75,-85 229.75,-85 229.75,-85 20,-85 20,-85 14,-85 8,-79 8,-73 8,-73 8,-20 8,-20 8,-14 14,-8 20,-8"/>
<text text-anchor="middle" x="124.88" y="-67.7" font-family="Times,serif" font-size="14.00">ops</text>
</g>
<g id="clust2" class="cluster">
<title>cluster_ops2</title>
<path fill="#e8f5e9" stroke="#bbbbbb" d="M273.75,-8C273.75,-8 533,-8 533,-8 539,-8 545,-14 545,-20 545,-20 545,-73 545,-73 545,-79 539,-85 533,-85 533,-85 273.75,-85 273.75,-85 267.75,-85 261.75,-79 261.75,-73 261.75,-73 261.75,-20 261.75,-20 261.75,-14 267.75,-8 273.75,-8"/>
<text text-anchor="middle" x="403.38" y="-67.7" font-family="Times,serif" font-size="14.00">ops2</text>
</g>
<!-- n1 -->
<g id="node1" class="node">
<title>n1</title>
<path fill="white" stroke="black" d="M221.75,-52C221.75,-52 28,-52 28,-52 22,-52 16,-46 16,-40 16,-40 16,-28 16,-28 16,-22 22,-16 28,-16 28,-16 221.75,-16 221.75,-16 227.75,-16 233.75,-22 233.75,-28 233.75,-28 233.75,-40 233.75,-40 233.75,-46 227.75,-52 221.75,-52"/>
<text text-anchor="middle" x="124.88" y="-28.2" font-family="Helvetica,sans-Serif" font-size="14.00">n1 pairDiff (ops) field=Percentage</text>
</g>
<!-- n2 -->
<g id="node2" class="node">
<title>n2</title>
<path fill="white" stroke="black" d="M525,-52C525,-52 281.75,-52 281.75,-52 275.75,-52 269.75,-46 269.75,-40 269.75,-40 269.75,-28 269.75,-28 269.75,-22 275.75,-16 281.75,-16 281.75,-16 525,-16 525,-16 531,-16 537,-22 537,-28 537,-28 537,-40 537,-40 537,-46 531,-52 525,-52"/>
<text text-anchor="middle" x="403.38" y="-28.2" font-family="Helvetica,sans-Serif" font-size="14.00">n2 findExtremum (ops2) field=Percentage</text>
</g>
<!-- n1&#45;&gt;n2 -->
<g id="edge1" class="edge">
<title>n1&#45;&gt;n2</title>
<path fill="none" stroke="#666666" d="M233.97,-34C241.89,-34 249.96,-34 258.05,-34"/>
<polygon fill="#666666" stroke="#666666" points="257.99,-37.5 267.99,-34 257.99,-30.5 257.99,-37.5"/>
</g>
</g>
</svg>
