<?xml version="1.0" encoding="UTF-8" standalone="no"?>
<!DOCTYPE svg PUBLIC "-//W3C//DTD SVG 1.1//EN"
 "http://www.w3.org/Graphics/SVG/1.1/DTD/svg11.dtd">
<!-- Generated by graphviz version 12.0.0 (0)
 -->
<!-- Title: OpsSpecTree Pages: 1 -->
<svg width="678pt" height="101pt"
 viewBox="0.00 0.00 678.00 101.00" xmlns="http://www.w3.org/2000/svg" xmlns:xlink="http://www.w3.org/1999/xlink">
<g id="graph0" class="graph" transform="scale(1 1) rotate(0) translate(4 97)">
<title>OpsSpecTree</title>
<polygon fill="white" stroke="none" points="-4,4 -4,-97 674,-97 674,4 -4,4"/>
<g id="clust1" class="cluster">
<title>cluster_ops</title>
<path fill="#e8f0fe" stroke="#bbbbbb" d="M20,-8C20,-8 288.25,-8 288.25,-8 294.25,-8 300.25,-14 300.25,-20 300.25,-20 300.25,-73 300.25,-73 300.25,-79 294.25,-85 288.25,-85 288.25,-85 20,-85 20,-85 14,-85 8,-79 8,-73 8,-73 8,-20 8,-20 8,-14 14,-8 20,-8"/>
<text text-anchor="middle" x="154.12" y="-67.7" font-family="Times,serif" font-size="14.00">ops</text>
</g>
<g id="clust2" class="cluster">
<title>cluster_ops2</title>
<path fill="#e8f5e9" stroke="#bbbbbb" d="M332.25,-8C332.25,-8 650,-8 650,-8 656,-8 662,-14 662,-20 662,-20 662,-73 662,-73 662,-79 656,-85 650,-85 650,-85 332.25,-85 332.25,-85 326.25,-85 320.25,-79 320.25,-73 320.25,-73 320.25,-20 320.25,-20 320.25,-14 326.25,-8 332.25,-8"/>
<text text-anchor="middle" x="491.12" y="-67.7" font-family="Times,serif" font-size="14.00">ops2</text>
</g>
<!-- n1 -->
<g id="node1" class="node">
<title>n1</title>
<path fill="white" stroke="black" d="M280.25,-52C280.25,-52 28,-52 28,-52 22,-52 16,-46 16,-40 16,-40 16,-28 16,-28 16,-22 22,-16 28,-16 28,-16 280.25,-16 280.25,-16 286.25,-16 292.25,-22 292.25,-28 292.25,-28 292.25,-40 292.25,-40 292.25,-46 286.25,-52 280.25,-52"/>
<text text-anchor="middle" x="154.12" y="-28.2" font-family="Helvetica,sans-Serif" font-size="14.00">n1 pairDiff (ops) field=Population in millions</text>
</g>
<!-- n2 -->
<g id="node2" class="node">
<title>n2</title>
<path fill="white" stroke="black" d="M642,-52C642,-52 340.25,-52 340.25,-52 334.25,-52 328.25,-46 328.25,-40 328.25,-40 328.25,-28 328.25,-28 328.25,-22 334.25,-16 340.25,-16 340.25,-16 642,-16 642,-16 648,-16 654,-22 654,-28 654,-28 654,-40 654,-40 654,-46 648,-52 642,-52"/>
<text text-anchor="middle" x="491.12" y="-28.2" font-family="Helvetica,sans-Serif" font-size="14.00">n2 findExtremum (ops2) field=Population in millions</text>
</g>
<!-- n1&#45;&gt;n2 -->
<g id="edge1" class="edge">
<title>n1&#45;&gt;n2</title>
<path fill="none" stroke="#666666" d="M292.35,-34C300.33,-34 308.41,-34 316.51,-34"/>
<polygon fill="#666666" stroke="#666666" points="316.45,-37.5 326.45,-34 316.45,-30.5 316.45,-37.5"/>
</g>
</g>
</svg>
