<?xml version="1.0" encoding="UTF-8" standalone="no"?>
<!DOCTYPE svg PUBLIC "-//W3C//DTD SVG 1.1//EN"
 "http://www.w3.org/Graphics/SVG/1.1/DTD/svg11.dtd">
<!-- Generated by graphviz version 12.0.0 (0)
 -->
<!-- Title: OpsSpecTree Pages: 1 -->
<svg width="1105pt" height="186pt"
 viewBox="0.00 0.00 1104.50 186.00" xmlns="http://www.w3.org/2000/svg" xmlns:xlink="http://www.w3.org/1999/xlink">
<g id="graph0" class="graph" transform="scale(1 1) rotate(0) translate(4 182)">
<title>OpsSpecTree</title>
<polygon fill="white" stroke="none" points="-4,4 -4,-182 1100.5,-182 1100.5,4 -4,4"/>
<g id="clust1" class="cluster">
<title>cluster_ops</title>
<path fill="#e8f0fe" stroke="#bbbbbb" d="M301.5,-93C301.5,-93 453.5,-93 453.5,-93 459.5,-93 465.5,-99 465.5,-105 465.5,-105 465.5,-158 465.5,-158 465.5,-164 459.5,-170 453.5,-170 453.5,-170 301.5,-170 301.5,-170 295.5,-170 289.5,-164 289.5,-158 289.5,-158 289.5,-105 289.5,-105 289.5,-99 295.5,-93 301.5,-93"/>
<text text-anchor="middle" x="377.5" y="-152.7" font-family="Times,serif" font-size="14.00">ops</text>
</g>
<g id="clust2" class="cluster">
<title>cluster_ops2</title>
<path fill="#e8f5e9" stroke="#bbbbbb" d="M575.5,-93C575.5,-93 883.5,-93 883.5,-93 889.5,-93 895.5,-99 895.5,-105 895.5,-105 895.5,-158 895.5,-158 895.5,-164 889.5,-170 883.5,-170 883.5,-170 575.5,-170 575.5,-170 569.5,-170 563.5,-164 563.5,-158 563.5,-158 563.5,-105 563.5,-105 563.5,-99 569.5,-93 575.5,-93"/>
<text text-anchor="middle" x="729.5" y="-152.7" font-family="Times,serif" font-size="14.00">ops2</text>
</g>
<g id="clust3" class="cluster">
<title>cluster_ops3</title>
<path fill="#e8f5e9" stroke="#bbbbbb" d="M20,-8C20,-8 179.5,-8 179.5,-8 185.5,-8 191.5,-14 191.5,-20 191.5,-20 191.5,-73 191.5,-73 191.5,-79 185.5,-85 179.5,-85 179.5,-85 20,-85 20,-85 14,-85 8,-79 8,-73 8,-73 8,-20 8,-20 8,-14 14,-8 20,-8"/>
<text text-anchor="middle" x="99.75" y="-67.7" font-family="Times,serif" font-size="14.00">ops3</text>
</g>
<g id="clust4" class="cluster">
<title>cluster_ops4</title>
<path fill="#e8f5e9" stroke="#bbbbbb" d="M223.5,-8C223.5,-8 531.5,-8 531.5,-8 537.5,-8 543.5,-14 543.5,-20 543.5,-20 543.5,-73 543.5,-73 543.5,-79 537.5,-85 531.5,-85 531.5,-85 223.5,-85 223.5,-85 217.5,-85 211.5,-79 211.5,-73 211.5,-73 211.5,-20 211.5,-20 211.5,-14 217.5,-8 223.5,-8"/>
<text text-anchor="middle" x="377.5" y="-67.7" font-family="Times,serif" font-size="14.00">ops4</text>
</g>
<g id="clust5" class="cluster">
<title>cluster_ops5</title>
<path fill="#e8f5e9" stroke="#bbbbbb" d="M679.38,-8C679.38,-8 779.62,-8 779.62,-8 785.62,-8 791.62,-14 791.62,-20 791.62,-20 791.62,-73 791.62,-73 791.62,-79 785.62,-85 779.62,-85 779.62,-85 679.38,-85 679.38,-85 673.38,-85 667.38,-79 667.38,-73 667.38,-73 667.38,-20 667.38,-20 667.38,-14 673.38,-8 679.38,-8"/>
<text text-anchor="middle" x="729.5" y="-67.7" font-family="Times,serif" font-size="14.00">ops5</text>
</g>
<g id="clust6" class="cluster">
<title>cluster_ops6</title>
<path fill="#e8f5e9" stroke="#bbbbbb" d="M927.5,-50C927.5,-50 1076.5,-50 1076.5,-50 1082.5,-50 1088.5,-56 1088.5,-62 1088.5,-62 1088.5,-115 1088.5,-115 1088.5,-121 1082.5,-127 1076.5,-127 1076.5,-127 927.5,-127 927.5,-127 921.5,-127 915.5,-121 915.5,-115 915.5,-115 915.5,-62 915.5,-62 915.5,-56 921.5,-50 927.5,-50"/>
<text text-anchor="middle" x="1002" y="-109.7" font-family="Times,serif" font-size="14.00">ops6</text>
</g>
<!-- n1 -->
<g id="node1" class="node">
<title>n1</title>
<path fill="white" stroke="black" d="M445.5,-137C445.5,-137 309.5,-137 309.5,-137 303.5,-137 297.5,-131 297.5,-125 297.5,-125 297.5,-113 297.5,-113 297.5,-107 303.5,-101 309.5,-101 309.5,-101 445.5,-101 445.5,-101 451.5,-101 457.5,-107 457.5,-113 457.5,-113 457.5,-125 457.5,-125 457.5,-131 451.5,-137 445.5,-137"/>
<text text-anchor="middle" x="377.5" y="-113.2" font-family="Helvetica,sans-Serif" font-size="14.00">n1 filter (ops) field=Year</text>
</g>
<!-- n2 -->
<g id="node2" class="node">
<title>n2</title>
<path fill="white" stroke="black" d="M875.5,-137C875.5,-137 583.5,-137 583.5,-137 577.5,-137 571.5,-131 571.5,-125 571.5,-125 571.5,-113 571.5,-113 571.5,-107 577.5,-101 583.5,-101 583.5,-101 875.5,-101 875.5,-101 881.5,-101 887.5,-107 887.5,-113 887.5,-113 887.5,-125 887.5,-125 887.5,-131 881.5,-137 875.5,-137"/>
<text text-anchor="middle" x="729.5" y="-113.2" font-family="Helvetica,sans-Serif" font-size="14.00">n2 average (ops2) field=Production in million liters</text>
</g>
<!-- n1&#45;&gt;n2 -->
<g id="edge1" class="edge">
<title>n1&#45;&gt;n2</title>
<path fill="none" stroke="#666666" d="M457.92,-119C488.22,-119 524.04,-119 559.53,-119"/>
<polygon fill="#666666" stroke="#666666" points="559.51,-122.5 569.51,-119 559.51,-115.5 559.51,-122.5"/>
</g>
<!-- n6 -->
<g id="node6" class="node">
<title>n6</title>
<path fill="white" stroke="black" d="M1068.5,-94C1068.5,-94 935.5,-94 935.5,-94 929.5,-94 923.5,-88 923.5,-82 923.5,-82 923.5,-70 923.5,-70 923.5,-64 929.5,-58 935.5,-58 935.5,-58 1068.5,-58 1068.5,-58 1074.5,-58 1080.5,-64 1080.5,-70 1080.5,-70 1080.5,-82 1080.5,-82 1080.5,-88 1074.5,-94 1068.5,-94"/>
<text text-anchor="middle" x="1002" y="-70.2" font-family="Helvetica,sans-Serif" font-size="14.00">n6 compareBool (ops6)</text>
</g>
<!-- n2&#45;&gt;n6 -->
<g id="edge4" class="edge">
<title>n2&#45;&gt;n6</title>
<path fill="none" stroke="#666666" d="M846.79,-100.51C868.53,-97.06 890.95,-93.49 911.72,-90.19"/>
<polygon fill="#666666" stroke="#666666" points="912.26,-93.65 921.58,-88.62 911.16,-86.74 912.26,-93.65"/>
</g>
<!-- n3 -->
<g id="node3" class="node">
<title>n3</title>
<path fill="white" stroke="black" d="M171.5,-52C171.5,-52 28,-52 28,-52 22,-52 16,-46 16,-40 16,-40 16,-28 16,-28 16,-22 22,-16 28,-16 28,-16 171.5,-16 171.5,-16 177.5,-16 183.5,-22 183.5,-28 183.5,-28 183.5,-40 183.5,-40 183.5,-46 177.5,-52 171.5,-52"/>
<text text-anchor="middle" x="99.75" y="-28.2" font-family="Helvetica,sans-Serif" font-size="14.00">n3 filter (ops3) field=Year</text>
</g>
<!-- n4 -->
<g id="node4" class="node">
<title>n4</title>
<path fill="white" stroke="black" d="M523.5,-52C523.5,-52 231.5,-52 231.5,-52 225.5,-52 219.5,-46 219.5,-40 219.5,-40 219.5,-28 219.5,-28 219.5,-22 225.5,-16 231.5,-16 231.5,-16 523.5,-16 523.5,-16 529.5,-16 535.5,-22 535.5,-28 535.5,-28 535.5,-40 535.5,-40 535.5,-46 529.5,-52 523.5,-52"/>
<text text-anchor="middle" x="377.5" y="-28.2" font-family="Helvetica,sans-Serif" font-size="14.00">n4 average (ops4) field=Production in million liters</text>
</g>
<!-- n3&#45;&gt;n4 -->
<g id="edge2" class="edge">
<title>n3&#45;&gt;n4</title>
<path fill="none" stroke="#666666" d="M183.86,-34C191.51,-34 199.43,-34 207.5,-34"/>
<polygon fill="#666666" stroke="#666666" points="207.49,-37.5 217.49,-34 207.49,-30.5 207.49,-37.5"/>
</g>
<!-- n5 -->
<g id="node5" class="node">
<title>n5</title>
<path fill="white" stroke="black" d="M771.62,-52C771.62,-52 687.38,-52 687.38,-52 681.38,-52 675.38,-46 675.38,-40 675.38,-40 675.38,-28 675.38,-28 675.38,-22 681.38,-16 687.38,-16 687.38,-16 771.62,-16 771.62,-16 777.62,-16 783.62,-22 783.62,-28 783.62,-28 783.62,-40 783.62,-40 783.62,-46 777.62,-52 771.62,-52"/>
<text text-anchor="middle" x="729.5" y="-28.2" font-family="Helvetica,sans-Serif" font-size="14.00">n5 scale (ops5)</text>
</g>
<!-- n4&#45;&gt;n5 -->
<g id="edge3" class="edge">
<title>n4&#45;&gt;n5</title>
<path fill="none" stroke="#666666" d="M535.84,-34C580.9,-34 627.54,-34 663.64,-34"/>
<polygon fill="#666666" stroke="#666666" points="663.46,-37.5 673.46,-34 663.46,-30.5 663.46,-37.5"/>
</g>
<!-- n5&#45;&gt;n6 -->
<g id="edge5" class="edge">
<title>n5&#45;&gt;n6</title>
<path fill="none" stroke="#666666" d="M783.94,-42.3C820.41,-47.96 869.58,-55.59 911.9,-62.17"/>
<polygon fill="#666666" stroke="#666666" points="911.16,-65.59 921.58,-63.67 912.23,-58.68 911.16,-65.59"/>
</g>
</g>
</svg>
