<?xml version="1.0" encoding="UTF-8" standalone="no"?>
<!DOCTYPE svg PUBLIC "-//W3C//DTD SVG 1.1//EN"
 "http://www.w3.org/Graphics/SVG/1.1/DTD/svg11.dtd">
<!-- Generated by graphviz version 12.0.0 (0)
 -->
<!-- Title: OpsSpecTree Pages: 1 -->
<svg width="514pt" height="101pt"
 viewBox="0.00 0.00 513.75 101.00" xmlns="http://www.w3.org/2000/svg" xmlns:xlink="http://www.w3.org/1999/xlink">
<g id="graph0" class="graph" transform="scale(1 1) rotate(0) translate(4 97)">
<title>OpsSpecTree</title>
<polygon fill="white" stroke="none" points="-4,4 -4,-97 509.75,-97 509.75,4 -4,4"/>
<g id="clust1" class="cluster">
<title>cluster_ops</title>
<path fill="#e8f0fe" stroke="#bbbbbb" d="M20,-8C20,-8 169,-8 169,-8 175,-8 181,-14 181,-20 181,-20 181,-73 181,-73 181,-79 175,-85 169,-85 169,-85 20,-85 20,-85 14,-85 8,-79 8,-73 8,-73 8,-20 8,-20 8,-14 14,-8 20,-8"/>
<text text-anchor="middle" x="94.5" y="-67.7" font-family="Times,serif" font-size="14.00">ops</text>
</g>
<g id="clust2" class="cluster">
<title>cluster_ops2</title>
<path fill="#e8f5e9" stroke="#bbbbbb" d="M213,-8C213,-8 485.75,-8 485.75,-8 491.75,-8 497.75,-14 497.75,-20 497.75,-20 497.75,-73 497.75,-73 497.75,-79 491.75,-85 485.75,-85 485.75,-85 213,-85 213,-85 207,-85 201,-79 201,-73 201,-73 201,-20 201,-20 201,-14 207,-8 213,-8"/>
<text text-anchor="middle" x="349.38" y="-67.7" font-family="Times,serif" font-size="14.00">ops2</text>
</g>
<!-- n1 -->
<g id="node1" class="node">
<title>n1</title>
<path fill="white" stroke="black" d="M161,-52C161,-52 28,-52 28,-52 22,-52 16,-46 16,-40 16,-40 16,-28 16,-28 16,-22 22,-16 28,-16 28,-16 161,-16 161,-16 167,-16 173,-22 173,-28 173,-28 173,-40 173,-40 173,-46 167,-52 161,-52"/>
<text text-anchor="middle" x="94.5" y="-28.2" font-family="Helvetica,sans-Serif" font-size="14.00">n1 sort (ops) field=Year</text>
</g>
<!-- n2 -->
<g id="node2" class="node">
<title>n2</title>
<path fill="white" stroke="black" d="M477.75,-52C477.75,-52 221,-52 221,-52 215,-52 209,-46 209,-40 209,-40 209,-28 209,-28 209,-22 215,-16 221,-16 221,-16 477.75,-16 477.75,-16 483.75,-16 489.75,-22 489.75,-28 489.75,-28 489.75,-40 489.75,-40 489.75,-46 483.75,-52 477.75,-52"/>
<text text-anchor="middle" x="349.38" y="-28.2" font-family="Helvetica,sans-Serif" font-size="14.00">n2 nth (ops2) field=Operating_Profit_Margin</text>
</g>
<!-- n1&#45;&gt;n2 -->
<g id="edge1" class="edge">
<title>n1&#45;&gt;n2</title>
<path fill="none" stroke="#666666" d="M173.43,-34C181.22,-34 189.29,-34 197.5,-34"/>
<polygon fill="#666666" stroke="#666666" points="197.26,-37.5 207.26,-34 197.26,-30.5 197.26,-37.5"/>
</g>
</g>
</svg>
