<?xml version="1.0" encoding="UTF-8" standalone="no"?>
<!DOCTYPE svg PUBLIC "-//W3C//DTD SVG 1.1//EN"
 "http://www.w3.org/Graphics/SVG/1.1/DTD/svg11.dtd">
<!-- Generated by graphviz version 12.0.0 (0)
 -->
<!-- Title: OpsSpecTree Pages: 1 -->
<svg width="1180pt" height="186pt"
 viewBox="0.00 0.00 1180.00 186.00" xmlns="http://www.w3.org/2000/svg" xmlns:xlink="http://www.w3.org/1999/xlink">
<g id="graph0" class="graph" transform="scale(1 1) rotate(0) translate(4 182)">
<title>OpsSpecTree</title>
<polygon fill="white" stroke="none" points="-4,4 -4,-182 1176,-182 1176,4 -4,4"/>
<g id="clust1" class="cluster">
<title>cluster_ops</title>
<path fill="#e8f0fe" stroke="#bbbbbb" d="M23,-93C23,-93 785.75,-93 785.75,-93 791.75,-93 797.75,-99 797.75,-105 797.75,-105 797.75,-158 797.75,-158 797.75,-164 791.75,-170 785.75,-170 785.75,-170 23,-170 23,-170 17,-170 11,-164 11,-158 11,-158 11,-105 11,-105 11,-99 17,-93 23,-93"/>
<text text-anchor="middle" x="404.38" y="-152.7" font-family="Times,serif" font-size="14.00">ops</text>
</g>
<g id="clust2" class="cluster">
<title>cluster_ops2</title>
<path fill="#e8f5e9" stroke="#bbbbbb" d="M20,-8C20,-8 789.5,-8 789.5,-8 795.5,-8 801.5,-14 801.5,-20 801.5,-20 801.5,-73 801.5,-73 801.5,-79 795.5,-85 789.5,-85 789.5,-85 20,-85 20,-85 14,-85 8,-79 8,-73 8,-73 8,-20 8,-20 8,-14 14,-8 20,-8"/>
<text text-anchor="middle" x="404.75" y="-67.7" font-family="Times,serif" font-size="14.00">ops2</text>
</g>
<g id="clust3" class="cluster">
<title>cluster_ops3</title>
<path fill="#e8f5e9" stroke="#bbbbbb" d="M833.5,-50C833.5,-50 1152,-50 1152,-50 1158,-50 1164,-56 1164,-62 1164,-62 1164,-115 1164,-115 1164,-121 1158,-127 1152,-127 1152,-127 833.5,-127 833.5,-127 827.5,-127 821.5,-121 821.5,-115 821.5,-115 821.5,-62 821.5,-62 821.5,-56 827.5,-50 833.5,-50"/>
<text text-anchor="middle" x="992.75" y="-109.7" font-family="Times,serif" font-size="14.00">ops3</text>
</g>
<!-- n1 -->
<g id="node1" class="node">
<title>n1</title>
<path fill="white" stroke="black" d="M405.5,-137C405.5,-137 31,-137 31,-137 25,-137 19,-131 19,-125 19,-125 19,-113 19,-113 19,-107 25,-101 31,-101 31,-101 405.5,-101 405.5,-101 411.5,-101 417.5,-107 417.5,-113 417.5,-113 417.5,-125 417.5,-125 417.5,-131 411.5,-137 405.5,-137"/>
<text text-anchor="middle" x="218.25" y="-113.2" font-family="Helvetica,sans-Serif" font-size="14.00">n1 filter (ops) field=Average weight in metric grams group=Boys</text>
</g>
<!-- n2 -->
<g id="node2" class="node">
<title>n2</title>
<path fill="white" stroke="black" d="M777.75,-137C777.75,-137 472.25,-137 472.25,-137 466.25,-137 460.25,-131 460.25,-125 460.25,-125 460.25,-113 460.25,-113 460.25,-107 466.25,-101 472.25,-101 472.25,-101 777.75,-101 777.75,-101 783.75,-101 789.75,-107 789.75,-113 789.75,-113 789.75,-125 789.75,-125 789.75,-131 783.75,-137 777.75,-137"/>
<text text-anchor="middle" x="625" y="-113.2" font-family="Helvetica,sans-Serif" font-size="14.00">n2 count (ops) field=Average weight in metric grams</text>
</g>
<!-- n1&#45;&gt;n2 -->
<g id="edge1" class="edge">
<title>n1&#45;&gt;n2</title>
<path fill="none" stroke="#666666" d="M417.77,-119C428.02,-119 438.28,-119 448.46,-119"/>
<polygon fill="#666666" stroke="#666666" points="448.38,-122.5 458.38,-119 448.38,-115.5 448.38,-122.5"/>
</g>
<!-- n5 -->
<g id="node5" class="node">
<title>n5</title>
<path fill="white" stroke="black" d="M1144,-94C1144,-94 841.5,-94 841.5,-94 835.5,-94 829.5,-88 829.5,-82 829.5,-82 829.5,-70 829.5,-70 829.5,-64 835.5,-58 841.5,-58 841.5,-58 1144,-58 1144,-58 1150,-58 1156,-64 1156,-70 1156,-70 1156,-82 1156,-82 1156,-88 1150,-94 1144,-94"/>
<text text-anchor="middle" x="992.75" y="-70.2" font-family="Helvetica,sans-Serif" font-size="14.00">n5 add (ops3) field=Average weight in metric grams</text>
</g>
<!-- n2&#45;&gt;n5 -->
<g id="edge3" class="edge">
<title>n2&#45;&gt;n5</title>
<path fill="none" stroke="#666666" d="M783.23,-100.51C796.54,-98.95 810.04,-97.36 823.43,-95.79"/>
<polygon fill="#666666" stroke="#666666" points="823.62,-99.29 833.15,-94.65 822.81,-92.34 823.62,-99.29"/>
</g>
<!-- n3 -->
<g id="node3" class="node">
<title>n3</title>
<path fill="white" stroke="black" d="M408.5,-52C408.5,-52 28,-52 28,-52 22,-52 16,-46 16,-40 16,-40 16,-28 16,-28 16,-22 22,-16 28,-16 28,-16 408.5,-16 408.5,-16 414.5,-16 420.5,-22 420.5,-28 420.5,-28 420.5,-40 420.5,-40 420.5,-46 414.5,-52 408.5,-52"/>
<text text-anchor="middle" x="218.25" y="-28.2" font-family="Helvetica,sans-Serif" font-size="14.00">n3 filter (ops2) field=Average weight in metric grams group=Girls</text>
</g>
<!-- n4 -->
<g id="node4" class="node">
<title>n4</title>
<path fill="white" stroke="black" d="M781.5,-52C781.5,-52 468.5,-52 468.5,-52 462.5,-52 456.5,-46 456.5,-40 456.5,-40 456.5,-28 456.5,-28 456.5,-22 462.5,-16 468.5,-16 468.5,-16 781.5,-16 781.5,-16 787.5,-16 793.5,-22 793.5,-28 793.5,-28 793.5,-40 793.5,-40 793.5,-46 787.5,-52 781.5,-52"/>
<text text-anchor="middle" x="625" y="-28.2" font-family="Helvetica,sans-Serif" font-size="14.00">n4 count (ops2) field=Average weight in metric grams</text>
</g>
<!-- n3&#45;&gt;n4 -->
<g id="edge2" class="edge">
<title>n3&#45;&gt;n4</title>
<path fill="none" stroke="#666666" d="M420.74,-34C428.82,-34 436.9,-34 444.94,-34"/>
<polygon fill="#666666" stroke="#666666" points="444.75,-37.5 454.75,-34 444.75,-30.5 444.75,-37.5"/>
</g>
<!-- n4&#45;&gt;n5 -->
<g id="edge4" class="edge">
<title>n4&#45;&gt;n5</title>
<path fill="none" stroke="#666666" d="M786.96,-52.48C797.77,-53.72 808.68,-54.98 819.54,-56.23"/>
<polygon fill="#666666" stroke="#666666" points="819,-59.69 829.34,-57.35 819.8,-52.73 819,-59.69"/>
</g>
</g>
</svg>
