<?xml version="1.0" encoding="UTF-8" standalone="no"?>
<!DOCTYPE svg PUBLIC "-//W3C//DTD SVG 1.1//EN"
 "http://www.w3.org/Graphics/SVG/1.1/DTD/svg11.dtd">
<!-- Generated by graphviz version 12.0.0 (0)
 -->
<!-- Title: OpsSpecTree Pages: 1 -->
<svg width="823pt" height="101pt"
 viewBox="0.00 0.00 823.00 101.00" xmlns="http://www.w3.org/2000/svg" xmlns:xlink="http://www.w3.org/1999/xlink">
<g id="graph0" class="graph" transform="scale(1 1) rotate(0) translate(4 97)">
<title>OpsSpecTree</title>
<polygon fill="white" stroke="none" points="-4,4 -4,-97 819,-97 819,4 -4,4"/>
<g id="clust1" class="cluster">
<title>cluster_ops</title>
<path fill="#e8f0fe" stroke="#bbbbbb" d="M20,-8C20,-8 320.5,-8 320.5,-8 326.5,-8 332.5,-14 332.5,-20 332.5,-20 332.5,-73 332.5,-73 332.5,-79 326.5,-85 320.5,-85 320.5,-85 20,-85 20,-85 14,-85 8,-79 8,-73 8,-73 8,-20 8,-20 8,-14 14,-8 20,-8"/>
<text text-anchor="middle" x="170.25" y="-67.7" font-family="Times,serif" font-size="14.00">ops</text>
</g>
<g id="clust2" class="cluster">
<title>cluster_ops2</title>
<path fill="#e8f5e9" stroke="#bbbbbb" d="M364.5,-8C364.5,-8 795,-8 795,-8 801,-8 807,-14 807,-20 807,-20 807,-73 807,-73 807,-79 801,-85 795,-85 795,-85 364.5,-85 364.5,-85 358.5,-85 352.5,-79 352.5,-73 352.5,-73 352.5,-20 352.5,-20 352.5,-14 358.5,-8 364.5,-8"/>
<text text-anchor="middle" x="579.75" y="-67.7" font-family="Times,serif" font-size="14.00">ops2</text>
</g>
<!-- n1 -->
<g id="node1" class="node">
<title>n1</title>
<path fill="white" stroke="black" d="M312.5,-52C312.5,-52 28,-52 28,-52 22,-52 16,-46 16,-40 16,-40 16,-28 16,-28 16,-22 22,-16 28,-16 28,-16 312.5,-16 312.5,-16 318.5,-16 324.5,-22 324.5,-28 324.5,-28 324.5,-40 324.5,-40 324.5,-46 318.5,-52 312.5,-52"/>
<text text-anchor="middle" x="170.25" y="-28.2" font-family="Helvetica,sans-Serif" font-size="14.00">n1 average (ops) field=Production in million units</text>
</g>
<!-- n2 -->
<g id="node2" class="node">
<title>n2</title>
<path fill="white" stroke="black" d="M641.25,-52C641.25,-52 372.5,-52 372.5,-52 366.5,-52 360.5,-46 360.5,-40 360.5,-40 360.5,-28 360.5,-28 360.5,-22 366.5,-16 372.5,-16 372.5,-16 641.25,-16 641.25,-16 647.25,-16 653.25,-22 653.25,-28 653.25,-28 653.25,-40 653.25,-40 653.25,-46 647.25,-52 641.25,-52"/>
<text text-anchor="middle" x="506.88" y="-28.2" font-family="Helvetica,sans-Serif" font-size="14.00">n2 filter (ops2) field=Production in million units</text>
</g>
<!-- n1&#45;&gt;n2 -->
<g id="edge1" class="edge">
<title>n1&#45;&gt;n2</title>
<path fill="none" stroke="#666666" d="M324.85,-34C332.85,-34 340.89,-34 348.9,-34"/>
<polygon fill="#666666" stroke="#666666" points="348.68,-37.5 358.68,-34 348.68,-30.5 348.68,-37.5"/>
</g>
<!-- n3 -->
<g id="node3" class="node">
<title>n3</title>
<path fill="white" stroke="black" d="M787,-52C787,-52 701.25,-52 701.25,-52 695.25,-52 689.25,-46 689.25,-40 689.25,-40 689.25,-28 689.25,-28 689.25,-22 695.25,-16 701.25,-16 701.25,-16 787,-16 787,-16 793,-16 799,-22 799,-28 799,-28 799,-40 799,-40 799,-46 793,-52 787,-52"/>
<text text-anchor="middle" x="744.12" y="-28.2" font-family="Helvetica,sans-Serif" font-size="14.00">n3 count (ops2)</text>
</g>
<!-- n2&#45;&gt;n3 -->
<g id="edge2" class="edge">
<title>n2&#45;&gt;n3</title>
<path fill="none" stroke="#666666" d="M653.52,-34C661.76,-34 669.8,-34 677.48,-34"/>
<polygon fill="#666666" stroke="#666666" points="677.3,-37.5 687.3,-34 677.3,-30.5 677.3,-37.5"/>
</g>
</g>
</svg>
