<?xml version="1.0" encoding="UTF-8" standalone="no"?>
<!DOCTYPE svg PUBLIC "-//W3C//DTD SVG 1.1//EN"
 "http://www.w3.org/Graphics/SVG/1.1/DTD/svg11.dtd">
<!-- Generated by graphviz version 12.0.0 (0)
 -->
<!-- Title: OpsSpecTree Pages: 1 -->
<svg width="801pt" height="186pt"
 viewBox="0.00 0.00 801.00 186.00" xmlns="http://www.w3.org/2000/svg" xmlns:xlink="http://www.w3.org/1999/xlink">
<g id="graph0" class="graph" transform="scale(1 1) rotate(0) translate(4 182)">
<title>OpsSpecTree</title>
<polygon fill="white" stroke="none" points="-4,4 -4,-182 797,-182 797,4 -4,4"/>
<g id="clust1" class="cluster">
<title>cluster_ops</title>
<path fill="#e8f0fe" stroke="#bbbbbb" d="M49.25,-93C49.25,-93 436,-93 436,-93 442,-93 448,-99 448,-105 448,-105 448,-158 448,-158 448,-164 442,-170 436,-170 436,-170 49.25,-170 49.25,-170 43.25,-170 37.25,-164 37.25,-158 37.25,-158 37.25,-105 37.25,-105 37.25,-99 43.25,-93 49.25,-93"/>
<text text-anchor="middle" x="242.62" y="-152.7" font-family="Times,serif" font-size="14.00">ops</text>
</g>
<g id="clust2" class="cluster">
<title>cluster_ops2</title>
<path fill="#e8f5e9" stroke="#bbbbbb" d="M20,-8C20,-8 465.25,-8 465.25,-8 471.25,-8 477.25,-14 477.25,-20 477.25,-20 477.25,-73 477.25,-73 477.25,-79 471.25,-85 465.25,-85 465.25,-85 20,-85 20,-85 14,-85 8,-79 8,-73 8,-73 8,-20 8,-20 8,-14 14,-8 20,-8"/>
<text text-anchor="middle" x="242.62" y="-67.7" font-family="Times,serif" font-size="14.00">ops2</text>
</g>
<g id="clust3" class="cluster">
<title>cluster_ops3</title>
<path fill="#e8f5e9" stroke="#bbbbbb" d="M509.25,-93C509.25,-93 773,-93 773,-93 779,-93 785,-99 785,-105 785,-105 785,-158 785,-158 785,-164 779,-170 773,-170 773,-170 509.25,-170 509.25,-170 503.25,-170 497.25,-164 497.25,-158 497.25,-158 497.25,-105 497.25,-105 497.25,-99 503.25,-93 509.25,-93"/>
<text text-anchor="middle" x="641.12" y="-152.7" font-family="Times,serif" font-size="14.00">ops3</text>
</g>
<g id="clust4" class="cluster">
<title>cluster_ops4</title>
<path fill="#e8f5e9" stroke="#bbbbbb" d="M526.88,-8C526.88,-8 755.38,-8 755.38,-8 761.38,-8 767.38,-14 767.38,-20 767.38,-20 767.38,-73 767.38,-73 767.38,-79 761.38,-85 755.38,-85 755.38,-85 526.88,-85 526.88,-85 520.88,-85 514.88,-79 514.88,-73 514.88,-73 514.88,-20 514.88,-20 514.88,-14 520.88,-8 526.88,-8"/>
<text text-anchor="middle" x="641.12" y="-67.7" font-family="Times,serif" font-size="14.00">ops4</text>
</g>
<!-- n1 -->
<g id="node1" class="node">
<title>n1</title>
<path fill="white" stroke="black" d="M428,-137C428,-137 57.25,-137 57.25,-137 51.25,-137 45.25,-131 45.25,-125 45.25,-125 45.25,-113 45.25,-113 45.25,-107 51.25,-101 57.25,-101 57.25,-101 428,-101 428,-101 434,-101 440,-107 440,-113 440,-113 440,-125 440,-125 440,-131 434,-137 428,-137"/>
<text text-anchor="middle" x="242.62" y="-113.2" font-family="Helvetica,sans-Serif" font-size="14.00">n1 findExtremum (ops) field=SharePercentage group=Scotland</text>
</g>
<!-- n3 -->
<g id="node3" class="node">
<title>n3</title>
<path fill="white" stroke="black" d="M765,-137C765,-137 517.25,-137 517.25,-137 511.25,-137 505.25,-131 505.25,-125 505.25,-125 505.25,-113 505.25,-113 505.25,-107 511.25,-101 517.25,-101 517.25,-101 765,-101 765,-101 771,-101 777,-107 777,-113 777,-113 777,-125 777,-125 777,-131 771,-137 765,-137"/>
<text text-anchor="middle" x="641.12" y="-113.2" font-family="Helvetica,sans-Serif" font-size="14.00">n3 compare (ops3) field=SharePercentage</text>
</g>
<!-- n1&#45;&gt;n3 -->
<g id="edge1" class="edge">
<title>n1&#45;&gt;n3</title>
<path fill="none" stroke="#666666" d="M440.42,-119C458.3,-119 476.19,-119 493.51,-119"/>
<polygon fill="#666666" stroke="#666666" points="493.29,-122.5 503.29,-119 493.29,-115.5 493.29,-122.5"/>
</g>
<!-- n4 -->
<g id="node4" class="node">
<title>n4</title>
<path fill="white" stroke="black" d="M747.38,-52C747.38,-52 534.88,-52 534.88,-52 528.88,-52 522.88,-46 522.88,-40 522.88,-40 522.88,-28 522.88,-28 522.88,-22 528.88,-16 534.88,-16 534.88,-16 747.38,-16 747.38,-16 753.38,-16 759.38,-22 759.38,-28 759.38,-28 759.38,-40 759.38,-40 759.38,-46 753.38,-52 747.38,-52"/>
<text text-anchor="middle" x="641.12" y="-28.2" font-family="Helvetica,sans-Serif" font-size="14.00">n4 diff (ops4) field=SharePercentage</text>
</g>
<!-- n1&#45;&gt;n4 -->
<g id="edge3" class="edge">
<title>n1&#45;&gt;n4</title>
<path fill="none" stroke="#666666" d="M417.81,-100.51C437.96,-97.22 458.12,-93.41 477.25,-89 513.15,-80.72 552.3,-67.64 583.22,-56.31"/>
<polygon fill="#666666" stroke="#666666" points="584.22,-59.67 592.37,-52.91 581.78,-53.11 584.22,-59.67"/>
</g>
<!-- n2 -->
<g id="node2" class="node">
<title>n2</title>
<path fill="white" stroke="black" d="M457.25,-52C457.25,-52 28,-52 28,-52 22,-52 16,-46 16,-40 16,-40 16,-28 16,-28 16,-22 22,-16 28,-16 28,-16 457.25,-16 457.25,-16 463.25,-16 469.25,-22 469.25,-28 469.25,-28 469.25,-40 469.25,-40 469.25,-46 463.25,-52 457.25,-52"/>
<text text-anchor="middle" x="242.62" y="-28.2" font-family="Helvetica,sans-Serif" font-size="14.00">n2 findExtremum (ops2) field=SharePercentage group=England &amp; Wales</text>
</g>
<!-- n2&#45;&gt;n3 -->
<g id="edge2" class="edge">
<title>n2&#45;&gt;n3</title>
<path fill="none" stroke="#666666" d="M328.14,-52.47C377.44,-63.21 440.85,-76.96 497.25,-89 511.27,-91.99 526.08,-95.13 540.63,-98.2"/>
<polygon fill="#666666" stroke="#666666" points="539.71,-101.58 550.22,-100.22 541.15,-94.73 539.71,-101.58"/>
</g>
<!-- n2&#45;&gt;n4 -->
<g id="edge4" class="edge">
<title>n2&#45;&gt;n4</title>
<path fill="none" stroke="#666666" d="M469.67,-34C483.94,-34 498.01,-34 511.58,-34"/>
<polygon fill="#666666" stroke="#666666" points="511.34,-37.5 521.34,-34 511.34,-30.5 511.34,-37.5"/>
</g>
</g>
</svg>
