<?xml version="1.0" encoding="UTF-8" standalone="no"?>
<!DOCTYPE svg PUBLIC "-//W3C//DTD SVG 1.1//EN"
 "http://www.w3.org/Graphics/SVG/1.1/DTD/svg11.dtd">
<!-- Generated by graphviz version 12.0.0 (0)
 -->
<!-- Title: OpsSpecTree Pages: 1 -->
<svg width="921pt" height="101pt"
 viewBox="0.00 0.00 921.25 101.00" xmlns="http://www.w3.org/2000/svg" xmlns:xlink="http://www.w3.org/1999/xlink">
<g id="graph0" class="graph" transform="scale(1 1) rotate(0) translate(4 97)">
<title>OpsSpecTree</title>
<polygon fill="white" stroke="none" points="-4,4 -4,-97 917.25,-97 917.25,4 -4,4"/>
<g id="clust1" class="cluster">
<title>cluster_ops</title>
<path fill="#e8f0fe" stroke="#bbbbbb" d="M20,-8C20,-8 334,-8 334,-8 340,-8 346,-14 346,-20 346,-20 346,-73 346,-73 346,-79 340,-85 334,-85 334,-85 20,-85 20,-85 14,-85 8,-79 8,-73 8,-73 8,-20 8,-20 8,-14 14,-8 20,-8"/>
<text text-anchor="middle" x="177" y="-67.7" font-family="Times,serif" font-size="14.00">ops</text>
</g>
<g id="clust2" class="cluster">
<title>cluster_ops2</title>
<path fill="#e8f5e9" stroke="#bbbbbb" d="M378,-8C378,-8 893.25,-8 893.25,-8 899.25,-8 905.25,-14 905.25,-20 905.25,-20 905.25,-73 905.25,-73 905.25,-79 899.25,-85 893.25,-85 893.25,-85 378,-85 378,-85 372,-85 366,-79 366,-73 366,-73 366,-20 366,-20 366,-14 372,-8 378,-8"/>
<text text-anchor="middle" x="635.62" y="-67.7" font-family="Times,serif" font-size="14.00">ops2</text>
</g>
<!-- n1 -->
<g id="node1" class="node">
<title>n1</title>
<path fill="white" stroke="black" d="M326,-52C326,-52 28,-52 28,-52 22,-52 16,-46 16,-40 16,-40 16,-28 16,-28 16,-22 22,-16 28,-16 28,-16 326,-16 326,-16 332,-16 338,-22 338,-28 338,-28 338,-40 338,-40 338,-46 332,-52 326,-52"/>
<text text-anchor="middle" x="177" y="-28.2" font-family="Helvetica,sans-Serif" font-size="14.00">n1 pairDiff (ops) field=Favorable_View_Percentage</text>
</g>
<!-- n2 -->
<g id="node2" class="node">
<title>n2</title>
<path fill="white" stroke="black" d="M674.25,-52C674.25,-52 386,-52 386,-52 380,-52 374,-46 374,-40 374,-40 374,-28 374,-28 374,-22 380,-16 386,-16 386,-16 674.25,-16 674.25,-16 680.25,-16 686.25,-22 686.25,-28 686.25,-28 686.25,-40 686.25,-40 686.25,-46 680.25,-52 674.25,-52"/>
<text text-anchor="middle" x="530.12" y="-28.2" font-family="Helvetica,sans-Serif" font-size="14.00">n2 filter (ops2) field=Favorable_View_Percentage</text>
</g>
<!-- n1&#45;&gt;n2 -->
<g id="edge1" class="edge">
<title>n1&#45;&gt;n2</title>
<path fill="none" stroke="#666666" d="M338.41,-34C346.39,-34 354.42,-34 362.42,-34"/>
<polygon fill="#666666" stroke="#666666" points="362.19,-37.5 372.19,-34 362.19,-30.5 362.19,-37.5"/>
</g>
<!-- n3 -->
<g id="node3" class="node">
<title>n3</title>
<path fill="white" stroke="black" d="M885.25,-52C885.25,-52 734.25,-52 734.25,-52 728.25,-52 722.25,-46 722.25,-40 722.25,-40 722.25,-28 722.25,-28 722.25,-22 728.25,-16 734.25,-16 734.25,-16 885.25,-16 885.25,-16 891.25,-16 897.25,-22 897.25,-28 897.25,-28 897.25,-40 897.25,-40 897.25,-46 891.25,-52 885.25,-52"/>
<text text-anchor="middle" x="809.75" y="-28.2" font-family="Helvetica,sans-Serif" font-size="14.00">n3 count (ops2) field=Year</text>
</g>
<!-- n2&#45;&gt;n3 -->
<g id="edge2" class="edge">
<title>n2&#45;&gt;n3</title>
<path fill="none" stroke="#666666" d="M686.58,-34C694.65,-34 702.65,-34 710.46,-34"/>
<polygon fill="#666666" stroke="#666666" points="710.24,-37.5 720.24,-34 710.24,-30.5 710.24,-37.5"/>
</g>
</g>
</svg>
