<?xml version="1.0" encoding="UTF-8" standalone="no"?>
<!DOCTYPE svg PUBLIC "-//W3C//DTD SVG 1.1//EN"
 "http://www.w3.org/Graphics/SVG/1.1/DTD/svg11.dtd">
<!-- Generated by graphviz version 12.0.0 (0)
 -->
<!-- Title: OpsSpecTree Pages: 1 -->
<svg width="1086pt" height="101pt"
 viewBox="0.00 0.00 1085.50 101.00" xmlns="http://www.w3.org/2000/svg" xmlns:xlink="http://www.w3.org/1999/xlink">
<g id="graph0" class="graph" transform="scale(1 1) rotate(0) translate(4 97)">
<title>OpsSpecTree</title>
<polygon fill="white" stroke="none" points="-4,4 -4,-97 1081.5,-97 1081.5,4 -4,4"/>
<g id="clust1" class="cluster">
<title>cluster_ops</title>
<path fill="#e8f0fe" stroke="#bbbbbb" d="M20,-8C20,-8 465.25,-8 465.25,-8 471.25,-8 477.25,-14 477.25,-20 477.25,-20 477.25,-73 477.25,-73 477.25,-79 471.25,-85 465.25,-85 465.25,-85 20,-85 20,-85 14,-85 8,-79 8,-73 8,-73 8,-20 8,-20 8,-14 14,-8 20,-8"/>
<text text-anchor="middle" x="242.62" y="-67.7" font-family="Times,serif" font-size="14.00">ops</text>
</g>
<g id="clust2" class="cluster">
<title>cluster_ops2</title>
<path fill="#e8f5e9" stroke="#bbbbbb" d="M509.25,-8C509.25,-8 722.75,-8 722.75,-8 728.75,-8 734.75,-14 734.75,-20 734.75,-20 734.75,-73 734.75,-73 734.75,-79 728.75,-85 722.75,-85 722.75,-85 509.25,-85 509.25,-85 503.25,-85 497.25,-79 497.25,-73 497.25,-73 497.25,-20 497.25,-20 497.25,-14 503.25,-8 509.25,-8"/>
<text text-anchor="middle" x="616" y="-67.7" font-family="Times,serif" font-size="14.00">ops2</text>
</g>
<g id="clust3" class="cluster">
<title>cluster_ops3</title>
<path fill="#e8f5e9" stroke="#bbbbbb" d="M766.75,-8C766.75,-8 1057.5,-8 1057.5,-8 1063.5,-8 1069.5,-14 1069.5,-20 1069.5,-20 1069.5,-73 1069.5,-73 1069.5,-79 1063.5,-85 1057.5,-85 1057.5,-85 766.75,-85 766.75,-85 760.75,-85 754.75,-79 754.75,-73 754.75,-73 754.75,-20 754.75,-20 754.75,-14 760.75,-8 766.75,-8"/>
<text text-anchor="middle" x="912.12" y="-67.7" font-family="Times,serif" font-size="14.00">ops3</text>
</g>
<!-- n1 -->
<g id="node1" class="node">
<title>n1</title>
<path fill="white" stroke="black" d="M457.25,-52C457.25,-52 28,-52 28,-52 22,-52 16,-46 16,-40 16,-40 16,-28 16,-28 16,-22 22,-16 28,-16 28,-16 457.25,-16 457.25,-16 463.25,-16 469.25,-22 469.25,-28 469.25,-28 469.25,-40 469.25,-40 469.25,-46 463.25,-52 457.25,-52"/>
<text text-anchor="middle" x="242.62" y="-28.2" font-family="Helvetica,sans-Serif" font-size="14.00">n1 findExtremum (ops) field=Revenue_Million_USD group=Data Centers</text>
</g>
<!-- n2 -->
<g id="node2" class="node">
<title>n2</title>
<path fill="white" stroke="black" d="M714.75,-52C714.75,-52 517.25,-52 517.25,-52 511.25,-52 505.25,-46 505.25,-40 505.25,-40 505.25,-28 505.25,-28 505.25,-22 511.25,-16 517.25,-16 517.25,-16 714.75,-16 714.75,-16 720.75,-16 726.75,-22 726.75,-28 726.75,-28 726.75,-40 726.75,-40 726.75,-46 720.75,-52 714.75,-52"/>
<text text-anchor="middle" x="616" y="-28.2" font-family="Helvetica,sans-Serif" font-size="14.00">n2 retrieveValue (ops2) field=Year</text>
</g>
<!-- n1&#45;&gt;n2 -->
<g id="edge1" class="edge">
<title>n1&#45;&gt;n2</title>
<path fill="none" stroke="#666666" d="M469.55,-34C477.71,-34 485.75,-34 493.62,-34"/>
<polygon fill="#666666" stroke="#666666" points="493.5,-37.5 503.5,-34 493.5,-30.5 493.5,-37.5"/>
</g>
<!-- n3 -->
<g id="node3" class="node">
<title>n3</title>
<path fill="white" stroke="black" d="M1049.5,-52C1049.5,-52 774.75,-52 774.75,-52 768.75,-52 762.75,-46 762.75,-40 762.75,-40 762.75,-28 762.75,-28 762.75,-22 768.75,-16 774.75,-16 774.75,-16 1049.5,-16 1049.5,-16 1055.5,-16 1061.5,-22 1061.5,-28 1061.5,-28 1061.5,-40 1061.5,-40 1061.5,-46 1055.5,-52 1049.5,-52"/>
<text text-anchor="middle" x="912.12" y="-28.2" font-family="Helvetica,sans-Serif" font-size="14.00">n3 average (ops3) field=Revenue_Million_USD</text>
</g>
<!-- n2&#45;&gt;n3 -->
<g id="edge2" class="edge">
<title>n2&#45;&gt;n3</title>
<path fill="none" stroke="#666666" d="M726.94,-34C734.81,-34 742.84,-34 750.92,-34"/>
<polygon fill="#666666" stroke="#666666" points="750.85,-37.5 760.85,-34 750.85,-30.5 750.85,-37.5"/>
</g>
</g>
</svg>
