<?xml version="1.0" encoding="UTF-8" standalone="no"?>
<!DOCTYPE svg PUBLIC "-//W3C//DTD SVG 1.1//EN"
 "http://www.w3.org/Graphics/SVG/1.1/DTD/svg11.dtd">
<!-- Generated by graphviz version 12.0.0 (0)
 -->
<!-- Title: OpsSpecTree Pages: 1 -->
<svg width="918pt" height="186pt"
 viewBox="0.00 0.00 918.25 186.00" xmlns="http://www.w3.org/2000/svg" xmlns:xlink="http://www.w3.org/1999/xlink">
<g id="graph0" class="graph" transform="scale(1 1) rotate(0) translate(4 182)">
<title>OpsSpecTree</title>
<polygon fill="white" stroke="none" points="-4,4 -4,-182 914.25,-182 914.25,4 -4,4"/>
<g id="clust1" class="cluster">
<title>cluster_ops</title>
<path fill="#e8f0fe" stroke="#bbbbbb" d="M23.75,-93C23.75,-93 546.5,-93 546.5,-93 552.5,-93 558.5,-99 558.5,-105 558.5,-105 558.5,-158 558.5,-158 558.5,-164 552.5,-170 546.5,-170 546.5,-170 23.75,-170 23.75,-170 17.75,-170 11.75,-164 11.75,-158 11.75,-158 11.75,-105 11.75,-105 11.75,-99 17.75,-93 23.75,-93"/>
<text text-anchor="middle" x="285.12" y="-152.7" font-family="Times,serif" font-size="14.00">ops</text>
</g>
<g id="clust2" class="cluster">
<title>cluster_ops2</title>
<path fill="#e8f5e9" stroke="#bbbbbb" d="M20,-8C20,-8 550.25,-8 550.25,-8 556.25,-8 562.25,-14 562.25,-20 562.25,-20 562.25,-73 562.25,-73 562.25,-79 556.25,-85 550.25,-85 550.25,-85 20,-85 20,-85 14,-85 8,-79 8,-73 8,-73 8,-20 8,-20 8,-14 14,-8 20,-8"/>
<text text-anchor="middle" x="285.12" y="-67.7" font-family="Times,serif" font-size="14.00">ops2</text>
</g>
<g id="clust3" class="cluster">
<title>cluster_ops3</title>
<path fill="#e8f5e9" stroke="#bbbbbb" d="M594.25,-50C594.25,-50 890.25,-50 890.25,-50 896.25,-50 902.25,-56 902.25,-62 902.25,-62 902.25,-115 902.25,-115 902.25,-121 896.25,-127 890.25,-127 890.25,-127 594.25,-127 594.25,-127 588.25,-127 582.25,-121 582.25,-115 582.25,-115 582.25,-62 582.25,-62 582.25,-56 588.25,-50 594.25,-50"/>
<text text-anchor="middle" x="742.25" y="-109.7" font-family="Times,serif" font-size="14.00">ops3</text>
</g>
<!-- n1 -->
<g id="node1" class="node">
<title>n1</title>
<path fill="white" stroke="black" d="M167.75,-137C167.75,-137 31.75,-137 31.75,-137 25.75,-137 19.75,-131 19.75,-125 19.75,-125 19.75,-113 19.75,-113 19.75,-107 25.75,-101 31.75,-101 31.75,-101 167.75,-101 167.75,-101 173.75,-101 179.75,-107 179.75,-113 179.75,-113 179.75,-125 179.75,-125 179.75,-131 173.75,-137 167.75,-137"/>
<text text-anchor="middle" x="99.75" y="-113.2" font-family="Helvetica,sans-Serif" font-size="14.00">n1 filter (ops) field=Year</text>
</g>
<!-- n2 -->
<g id="node2" class="node">
<title>n2</title>
<path fill="white" stroke="black" d="M538.5,-137C538.5,-137 235.25,-137 235.25,-137 229.25,-137 223.25,-131 223.25,-125 223.25,-125 223.25,-113 223.25,-113 223.25,-107 229.25,-101 235.25,-101 235.25,-101 538.5,-101 538.5,-101 544.5,-101 550.5,-107 550.5,-113 550.5,-113 550.5,-125 550.5,-125 550.5,-131 544.5,-137 538.5,-137"/>
<text text-anchor="middle" x="386.88" y="-113.2" font-family="Helvetica,sans-Serif" font-size="14.00">n2 average (ops) field=Installed base in million units</text>
</g>
<!-- n1&#45;&gt;n2 -->
<g id="edge1" class="edge">
<title>n1&#45;&gt;n2</title>
<path fill="none" stroke="#666666" d="M180.17,-119C190.2,-119 200.75,-119 211.56,-119"/>
<polygon fill="#666666" stroke="#666666" points="211.39,-122.5 221.39,-119 211.39,-115.5 211.39,-122.5"/>
</g>
<!-- n5 -->
<g id="node5" class="node">
<title>n5</title>
<path fill="white" stroke="black" d="M882.25,-94C882.25,-94 602.25,-94 602.25,-94 596.25,-94 590.25,-88 590.25,-82 590.25,-82 590.25,-70 590.25,-70 590.25,-64 596.25,-58 602.25,-58 602.25,-58 882.25,-58 882.25,-58 888.25,-58 894.25,-64 894.25,-70 894.25,-70 894.25,-82 894.25,-82 894.25,-88 888.25,-94 882.25,-94"/>
<text text-anchor="middle" x="742.25" y="-70.2" font-family="Helvetica,sans-Serif" font-size="14.00">n5 diff (ops3) field=Installed base in million units</text>
</g>
<!-- n2&#45;&gt;n5 -->
<g id="edge3" class="edge">
<title>n2&#45;&gt;n5</title>
<path fill="none" stroke="#666666" d="M539.79,-100.51C552.67,-98.95 565.72,-97.36 578.68,-95.78"/>
<polygon fill="#666666" stroke="#666666" points="579.02,-99.27 588.52,-94.58 578.17,-92.32 579.02,-99.27"/>
</g>
<!-- n3 -->
<g id="node3" class="node">
<title>n3</title>
<path fill="white" stroke="black" d="M171.5,-52C171.5,-52 28,-52 28,-52 22,-52 16,-46 16,-40 16,-40 16,-28 16,-28 16,-22 22,-16 28,-16 28,-16 171.5,-16 171.5,-16 177.5,-16 183.5,-22 183.5,-28 183.5,-28 183.5,-40 183.5,-40 183.5,-46 177.5,-52 171.5,-52"/>
<text text-anchor="middle" x="99.75" y="-28.2" font-family="Helvetica,sans-Serif" font-size="14.00">n3 filter (ops2) field=Year</text>
</g>
<!-- n4 -->
<g id="node4" class="node">
<title>n4</title>
<path fill="white" stroke="black" d="M542.25,-52C542.25,-52 231.5,-52 231.5,-52 225.5,-52 219.5,-46 219.5,-40 219.5,-40 219.5,-28 219.5,-28 219.5,-22 225.5,-16 231.5,-16 231.5,-16 542.25,-16 542.25,-16 548.25,-16 554.25,-22 554.25,-28 554.25,-28 554.25,-40 554.25,-40 554.25,-46 548.25,-52 542.25,-52"/>
<text text-anchor="middle" x="386.88" y="-28.2" font-family="Helvetica,sans-Serif" font-size="14.00">n4 average (ops2) field=Installed base in million units</text>
</g>
<!-- n3&#45;&gt;n4 -->
<g id="edge2" class="edge">
<title>n3&#45;&gt;n4</title>
<path fill="none" stroke="#666666" d="M183.99,-34C191.73,-34 199.75,-34 207.94,-34"/>
<polygon fill="#666666" stroke="#666666" points="207.69,-37.5 217.69,-34 207.69,-30.5 207.69,-37.5"/>
</g>
<!-- n4&#45;&gt;n5 -->
<g id="edge4" class="edge">
<title>n4&#45;&gt;n5</title>
<path fill="none" stroke="#666666" d="M543.38,-52.48C555.1,-53.88 566.94,-55.28 578.7,-56.68"/>
<polygon fill="#666666" stroke="#666666" points="578.1,-60.13 588.44,-57.84 578.93,-53.18 578.1,-60.13"/>
</g>
</g>
</svg>
