<?xml version="1.0" encoding="UTF-8" standalone="no"?>
<!DOCTYPE svg PUBLIC "-//W3C//DTD SVG 1.1//EN"
 "http://www.w3.org/Graphics/SVG/1.1/DTD/svg11.dtd">
<!-- Generated by graphviz version 12.0.0 (0)
 -->
<!-- Title: OpsSpecTree Pages: 1 -->
<svg width="939pt" height="186pt"
 viewBox="0.00 0.00 939.25 186.00" xmlns="http://www.w3.org/2000/svg" xmlns:xlink="http://www.w3.org/1999/xlink">
<g id="graph0" class="graph" transform="scale(1 1) rotate(0) translate(4 182)">
<title>OpsSpecTree</title>
<polygon fill="white" stroke="none" points="-4,4 -4,-182 935.25,-182 935.25,4 -4,4"/>
<g id="clust1" class="cluster">
<title>cluster_ops</title>
<path fill="#e8f0fe" stroke="#bbbbbb" d="M49.25,-93C49.25,-93 599.75,-93 599.75,-93 605.75,-93 611.75,-99 611.75,-105 611.75,-105 611.75,-158 611.75,-158 611.75,-164 605.75,-170 599.75,-170 599.75,-170 49.25,-170 49.25,-170 43.25,-170 37.25,-164 37.25,-158 37.25,-158 37.25,-105 37.25,-105 37.25,-99 43.25,-93 49.25,-93"/>
<text text-anchor="middle" x="324.5" y="-152.7" font-family="Times,serif" font-size="14.00">ops</text>
</g>
<g id="clust2" class="cluster">
<title>cluster_ops2</title>
<path fill="#e8f5e9" stroke="#bbbbbb" d="M20,-8C20,-8 603.5,-8 603.5,-8 609.5,-8 615.5,-14 615.5,-20 615.5,-20 615.5,-73 615.5,-73 615.5,-79 609.5,-85 603.5,-85 603.5,-85 20,-85 20,-85 14,-85 8,-79 8,-73 8,-73 8,-20 8,-20 8,-14 14,-8 20,-8"/>
<text text-anchor="middle" x="311.75" y="-67.7" font-family="Times,serif" font-size="14.00">ops2</text>
</g>
<g id="clust3" class="cluster">
<title>cluster_ops3</title>
<path fill="#e8f5e9" stroke="#bbbbbb" d="M647.5,-93C647.5,-93 911.25,-93 911.25,-93 917.25,-93 923.25,-99 923.25,-105 923.25,-105 923.25,-158 923.25,-158 923.25,-164 917.25,-170 911.25,-170 911.25,-170 647.5,-170 647.5,-170 641.5,-170 635.5,-164 635.5,-158 635.5,-158 635.5,-105 635.5,-105 635.5,-99 641.5,-93 647.5,-93"/>
<text text-anchor="middle" x="779.38" y="-152.7" font-family="Times,serif" font-size="14.00">ops3</text>
</g>
<g id="clust4" class="cluster">
<title>cluster_ops4</title>
<path fill="#e8f5e9" stroke="#bbbbbb" d="M665.12,-8C665.12,-8 893.62,-8 893.62,-8 899.62,-8 905.62,-14 905.62,-20 905.62,-20 905.62,-73 905.62,-73 905.62,-79 899.62,-85 893.62,-85 893.62,-85 665.12,-85 665.12,-85 659.12,-85 653.12,-79 653.12,-73 653.12,-73 653.12,-20 653.12,-20 653.12,-14 659.12,-8 665.12,-8"/>
<text text-anchor="middle" x="779.38" y="-67.7" font-family="Times,serif" font-size="14.00">ops4</text>
</g>
<!-- n1 -->
<g id="node1" class="node">
<title>n1</title>
<path fill="white" stroke="black" d="M227,-137C227,-137 57.25,-137 57.25,-137 51.25,-137 45.25,-131 45.25,-125 45.25,-125 45.25,-113 45.25,-113 45.25,-107 51.25,-101 57.25,-101 57.25,-101 227,-101 227,-101 233,-101 239,-107 239,-113 239,-113 239,-125 239,-125 239,-131 233,-137 227,-137"/>
<text text-anchor="middle" x="142.12" y="-113.2" font-family="Helvetica,sans-Serif" font-size="14.00">n1 filter (ops) group=Scotland</text>
</g>
<!-- n2 -->
<g id="node2" class="node">
<title>n2</title>
<path fill="white" stroke="black" d="M591.75,-137C591.75,-137 320,-137 320,-137 314,-137 308,-131 308,-125 308,-125 308,-113 308,-113 308,-107 314,-101 320,-101 320,-101 591.75,-101 591.75,-101 597.75,-101 603.75,-107 603.75,-113 603.75,-113 603.75,-125 603.75,-125 603.75,-131 597.75,-137 591.75,-137"/>
<text text-anchor="middle" x="455.88" y="-113.2" font-family="Helvetica,sans-Serif" font-size="14.00">n2 findExtremum (ops) field=SharePercentage</text>
</g>
<!-- n1&#45;&gt;n2 -->
<g id="edge1" class="edge">
<title>n1&#45;&gt;n2</title>
<path fill="none" stroke="#666666" d="M239.2,-119C257.3,-119 276.66,-119 296.09,-119"/>
<polygon fill="#666666" stroke="#666666" points="296.01,-122.5 306.01,-119 296.01,-115.5 296.01,-122.5"/>
</g>
<!-- n5 -->
<g id="node5" class="node">
<title>n5</title>
<path fill="white" stroke="black" d="M903.25,-137C903.25,-137 655.5,-137 655.5,-137 649.5,-137 643.5,-131 643.5,-125 643.5,-125 643.5,-113 643.5,-113 643.5,-107 649.5,-101 655.5,-101 655.5,-101 903.25,-101 903.25,-101 909.25,-101 915.25,-107 915.25,-113 915.25,-113 915.25,-125 915.25,-125 915.25,-131 909.25,-137 903.25,-137"/>
<text text-anchor="middle" x="779.38" y="-113.2" font-family="Helvetica,sans-Serif" font-size="14.00">n5 compare (ops3) field=SharePercentage</text>
</g>
<!-- n2&#45;&gt;n5 -->
<g id="edge3" class="edge">
<title>n2&#45;&gt;n5</title>
<path fill="none" stroke="#666666" d="M603.98,-119C613.27,-119 622.62,-119 631.9,-119"/>
<polygon fill="#666666" stroke="#666666" points="631.67,-122.5 641.67,-119 631.67,-115.5 631.67,-122.5"/>
</g>
<!-- n6 -->
<g id="node6" class="node">
<title>n6</title>
<path fill="white" stroke="black" d="M885.62,-52C885.62,-52 673.12,-52 673.12,-52 667.12,-52 661.12,-46 661.12,-40 661.12,-40 661.12,-28 661.12,-28 661.12,-22 667.12,-16 673.12,-16 673.12,-16 885.62,-16 885.62,-16 891.62,-16 897.62,-22 897.62,-28 897.62,-28 897.62,-40 897.62,-40 897.62,-46 891.62,-52 885.62,-52"/>
<text text-anchor="middle" x="779.38" y="-28.2" font-family="Helvetica,sans-Serif" font-size="14.00">n6 diff (ops4) field=SharePercentage</text>
</g>
<!-- n2&#45;&gt;n6 -->
<g id="edge5" class="edge">
<title>n2&#45;&gt;n6</title>
<path fill="none" stroke="#666666" d="M565.26,-100.58C582.17,-97.11 599.37,-93.23 615.5,-89 650.36,-79.86 688.58,-67.11 719.23,-56.18"/>
<polygon fill="#666666" stroke="#666666" points="720.08,-59.59 728.31,-52.91 717.71,-53.01 720.08,-59.59"/>
</g>
<!-- n3 -->
<g id="node3" class="node">
<title>n3</title>
<path fill="white" stroke="black" d="M256.25,-52C256.25,-52 28,-52 28,-52 22,-52 16,-46 16,-40 16,-40 16,-28 16,-28 16,-22 22,-16 28,-16 28,-16 256.25,-16 256.25,-16 262.25,-16 268.25,-22 268.25,-28 268.25,-28 268.25,-40 268.25,-40 268.25,-46 262.25,-52 256.25,-52"/>
<text text-anchor="middle" x="142.12" y="-28.2" font-family="Helvetica,sans-Serif" font-size="14.00">n3 filter (ops2) group=England &amp; Wales</text>
</g>
<!-- n4 -->
<g id="node4" class="node">
<title>n4</title>
<path fill="white" stroke="black" d="M595.5,-52C595.5,-52 316.25,-52 316.25,-52 310.25,-52 304.25,-46 304.25,-40 304.25,-40 304.25,-28 304.25,-28 304.25,-22 310.25,-16 316.25,-16 316.25,-16 595.5,-16 595.5,-16 601.5,-16 607.5,-22 607.5,-28 607.5,-28 607.5,-40 607.5,-40 607.5,-46 601.5,-52 595.5,-52"/>
<text text-anchor="middle" x="455.88" y="-28.2" font-family="Helvetica,sans-Serif" font-size="14.00">n4 findExtremum (ops2) field=SharePercentage</text>
</g>
<!-- n3&#45;&gt;n4 -->
<g id="edge2" class="edge">
<title>n3&#45;&gt;n4</title>
<path fill="none" stroke="#666666" d="M268.58,-34C276.46,-34 284.44,-34 292.45,-34"/>
<polygon fill="#666666" stroke="#666666" points="292.26,-37.5 302.26,-34 292.26,-30.5 292.26,-37.5"/>
</g>
<!-- n4&#45;&gt;n5 -->
<g id="edge4" class="edge">
<title>n4&#45;&gt;n5</title>
<path fill="none" stroke="#666666" d="M512.02,-52.41C547.14,-63.78 593.72,-78.2 635.5,-89 647.65,-92.14 660.44,-95.18 673.17,-98.06"/>
<polygon fill="#666666" stroke="#666666" points="672.33,-101.46 682.85,-100.21 673.85,-94.62 672.33,-101.46"/>
</g>
<!-- n4&#45;&gt;n6 -->
<g id="edge6" class="edge">
<title>n4&#45;&gt;n6</title>
<path fill="none" stroke="#666666" d="M607.74,-34C621.63,-34 635.63,-34 649.3,-34"/>
<polygon fill="#666666" stroke="#666666" points="649.19,-37.5 659.19,-34 649.19,-30.5 649.19,-37.5"/>
</g>
</g>
</svg>
