<?xml version="1.0" encoding="UTF-8" standalone="no"?>
<!DOCTYPE svg PUBLIC "-//W3C//DTD SVG 1.1//EN"
 "http://www.w3.org/Graphics/SVG/1.1/DTD/svg11.dtd">
<!-- Generated by graphviz version 12.0.0 (0)
 -->
<!-- Title: OpsSpecTree Pages: 1 -->
<svg width="523pt" height="294pt"
 viewBox="0.00 0.00 523.00 294.00" xmlns="http://www.w3.org/2000/svg" xmlns:xlink="http://www.w3.org/1999/xlink">
<g id="graph0" class="graph" transform="scale(1 1) rotate(0) translate(4 290)">
<title>OpsSpecTree</title>
<polygon fill="white" stroke="none" points="-4,4 -4,-290 519,-290 519,4 -4,4"/>
<g id="clust1" class="cluster">
<title>cluster_ops</title>
<path fill="#e8f0fe" stroke="#bbbbbb" d="M23.75,-147C23.75,-147 229.75,-147 229.75,-147 235.75,-147 241.75,-153 241.75,-159 241.75,-159 241.75,-266 241.75,-266 241.75,-272 235.75,-278 229.75,-278 229.75,-278 23.75,-278 23.75,-278 17.75,-278 11.75,-272 11.75,-266 11.75,-266 11.75,-159 11.75,-159 11.75,-153 17.75,-147 23.75,-147"/>
<text text-anchor="middle" x="126.75" y="-260.7" font-family="Times,serif" font-size="14.00">ops</text>
</g>
<g id="clust2" class="cluster">
<title>cluster_ops2</title>
<path fill="#e8f5e9" stroke="#bbbbbb" d="M20,-8C20,-8 233.5,-8 233.5,-8 239.5,-8 245.5,-14 245.5,-20 245.5,-20 245.5,-127 245.5,-127 245.5,-133 239.5,-139 233.5,-139 233.5,-139 20,-139 20,-139 14,-139 8,-133 8,-127 8,-127 8,-20 8,-20 8,-14 14,-8 20,-8"/>
<text text-anchor="middle" x="126.75" y="-121.7" font-family="Times,serif" font-size="14.00">ops2</text>
</g>
<g id="clust3" class="cluster">
<title>cluster_ops3</title>
<path fill="#e8f5e9" stroke="#bbbbbb" d="M277.5,-77C277.5,-77 495,-77 495,-77 501,-77 507,-83 507,-89 507,-89 507,-196 507,-196 507,-202 501,-208 495,-208 495,-208 277.5,-208 277.5,-208 271.5,-208 265.5,-202 265.5,-196 265.5,-196 265.5,-89 265.5,-89 265.5,-83 271.5,-77 277.5,-77"/>
<text text-anchor="middle" x="386.25" y="-190.7" font-family="Times,serif" font-size="14.00">ops3</text>
</g>
<!-- n1 -->
<g id="node1" class="node">
<title>n1</title>
<path fill="white" stroke="black" d="M221.75,-191C221.75,-191 31.75,-191 31.75,-191 25.75,-191 19.75,-185 19.75,-179 19.75,-179 19.75,-167 19.75,-167 19.75,-161 25.75,-155 31.75,-155 31.75,-155 221.75,-155 221.75,-155 227.75,-155 233.75,-161 233.75,-167 233.75,-167 233.75,-179 233.75,-179 233.75,-185 227.75,-191 221.75,-191"/>
<text text-anchor="middle" x="126.75" y="-167.2" font-family="Helvetica,sans-Serif" font-size="14.00">n1 retrieveValue (ops) field=Year</text>
</g>
<!-- n5 -->
<g id="node5" class="node">
<title>n5</title>
<path fill="white" stroke="black" d="M356.25,-175C356.25,-175 285.5,-175 285.5,-175 279.5,-175 273.5,-169 273.5,-163 273.5,-163 273.5,-151 273.5,-151 273.5,-145 279.5,-139 285.5,-139 285.5,-139 356.25,-139 356.25,-139 362.25,-139 368.25,-145 368.25,-151 368.25,-151 368.25,-163 368.25,-163 368.25,-169 362.25,-175 356.25,-175"/>
<text text-anchor="middle" x="320.88" y="-151.2" font-family="Helvetica,sans-Serif" font-size="14.00">n5 diff (ops3)</text>
</g>
<!-- n1&#45;&gt;n5 -->
<g id="edge1" class="edge">
<title>n1&#45;&gt;n5</title>
<path fill="none" stroke="#666666" d="M234.21,-164.13C243.72,-163.34 253.09,-162.56 261.95,-161.82"/>
<polygon fill="#666666" stroke="#666666" points="262.08,-165.33 271.76,-161.01 261.5,-158.35 262.08,-165.33"/>
</g>
<!-- n2 -->
<g id="node2" class="node">
<title>n2</title>
<path fill="white" stroke="black" d="M221.75,-245C221.75,-245 31.75,-245 31.75,-245 25.75,-245 19.75,-239 19.75,-233 19.75,-233 19.75,-221 19.75,-221 19.75,-215 25.75,-209 31.75,-209 31.75,-209 221.75,-209 221.75,-209 227.75,-209 233.75,-215 233.75,-221 233.75,-221 233.75,-233 233.75,-233 233.75,-239 227.75,-245 221.75,-245"/>
<text text-anchor="middle" x="126.75" y="-221.2" font-family="Helvetica,sans-Serif" font-size="14.00">n2 retrieveValue (ops) field=Year</text>
</g>
<!-- n2&#45;&gt;n5 -->
<g id="edge2" class="edge">
<title>n2&#45;&gt;n5</title>
<path fill="none" stroke="#666666" d="M220.47,-208.52C229.04,-205.98 237.5,-203.15 245.5,-200 258.17,-195.02 271.26,-188.12 282.85,-181.31"/>
<polygon fill="#666666" stroke="#666666" points="284.58,-184.36 291.32,-176.18 280.96,-178.37 284.58,-184.36"/>
</g>
<!-- n3 -->
<g id="node3" class="node">
<title>n3</title>
<path fill="white" stroke="black" d="M225.5,-52C225.5,-52 28,-52 28,-52 22,-52 16,-46 16,-40 16,-40 16,-28 16,-28 16,-22 22,-16 28,-16 28,-16 225.5,-16 225.5,-16 231.5,-16 237.5,-22 237.5,-28 237.5,-28 237.5,-40 237.5,-40 237.5,-46 231.5,-52 225.5,-52"/>
<text text-anchor="middle" x="126.75" y="-28.2" font-family="Helvetica,sans-Serif" font-size="14.00">n3 retrieveValue (ops2) field=Year</text>
</g>
<!-- n6 -->
<g id="node6" class="node">
<title>n6</title>
<path fill="white" stroke="black" d="M356.25,-121C356.25,-121 285.5,-121 285.5,-121 279.5,-121 273.5,-115 273.5,-109 273.5,-109 273.5,-97 273.5,-97 273.5,-91 279.5,-85 285.5,-85 285.5,-85 356.25,-85 356.25,-85 362.25,-85 368.25,-91 368.25,-97 368.25,-97 368.25,-109 368.25,-109 368.25,-115 362.25,-121 356.25,-121"/>
<text text-anchor="middle" x="320.88" y="-97.2" font-family="Helvetica,sans-Serif" font-size="14.00">n6 diff (ops3)</text>
</g>
<!-- n3&#45;&gt;n6 -->
<g id="edge3" class="edge">
<title>n3&#45;&gt;n6</title>
<path fill="none" stroke="#666666" d="M220.13,-52.48C228.81,-55.02 237.38,-57.85 245.5,-61 257.91,-65.81 270.75,-72.4 282.2,-78.95"/>
<polygon fill="#666666" stroke="#666666" points="280.17,-81.81 290.56,-83.86 283.72,-75.78 280.17,-81.81"/>
</g>
<!-- n4 -->
<g id="node4" class="node">
<title>n4</title>
<path fill="white" stroke="black" d="M225.5,-106C225.5,-106 28,-106 28,-106 22,-106 16,-100 16,-94 16,-94 16,-82 16,-82 16,-76 22,-70 28,-70 28,-70 225.5,-70 225.5,-70 231.5,-70 237.5,-76 237.5,-82 237.5,-82 237.5,-94 237.5,-94 237.5,-100 231.5,-106 225.5,-106"/>
<text text-anchor="middle" x="126.75" y="-82.2" font-family="Helvetica,sans-Serif" font-size="14.00">n4 retrieveValue (ops2) field=Year</text>
</g>
<!-- n4&#45;&gt;n6 -->
<g id="edge4" class="edge">
<title>n4&#45;&gt;n6</title>
<path fill="none" stroke="#666666" d="M237.84,-96.6C246.08,-97.24 254.18,-97.87 261.89,-98.47"/>
<polygon fill="#666666" stroke="#666666" points="261.5,-101.95 271.75,-99.24 262.05,-94.97 261.5,-101.95"/>
</g>
<!-- n7 -->
<g id="node7" class="node">
<title>n7</title>
<path fill="white" stroke="black" d="M487,-148C487,-148 416.25,-148 416.25,-148 410.25,-148 404.25,-142 404.25,-136 404.25,-136 404.25,-124 404.25,-124 404.25,-118 410.25,-112 416.25,-112 416.25,-112 487,-112 487,-112 493,-112 499,-118 499,-124 499,-124 499,-136 499,-136 499,-142 493,-148 487,-148"/>
<text text-anchor="middle" x="451.62" y="-124.2" font-family="Helvetica,sans-Serif" font-size="14.00">n7 diff (ops3)</text>
</g>
<!-- n5&#45;&gt;n7 -->
<g id="edge5" class="edge">
<title>n5&#45;&gt;n7</title>
<path fill="none" stroke="#666666" d="M368.72,-147.18C376.54,-145.54 384.73,-143.82 392.79,-142.13"/>
<polygon fill="#666666" stroke="#666666" points="393.48,-145.56 402.55,-140.08 392.04,-138.71 393.48,-145.56"/>
</g>
<!-- n6&#45;&gt;n7 -->
<g id="edge6" class="edge">
<title>n6&#45;&gt;n7</title>
<path fill="none" stroke="#666666" d="M368.72,-112.82C376.54,-114.46 384.73,-116.18 392.79,-117.87"/>
<polygon fill="#666666" stroke="#666666" points="392.04,-121.29 402.55,-119.92 393.48,-114.44 392.04,-121.29"/>
</g>
</g>
</svg>
