<?xml version="1.0" encoding="UTF-8" standalone="no"?>
<!DOCTYPE svg PUBLIC "-//W3C//DTD SVG 1.1//EN"
 "http://www.w3.org/Graphics/SVG/1.1/DTD/svg11.dtd">
<!-- Generated by graphviz version 12.0.0 (0)
 -->
<!-- Title: OpsSpecTree Pages: 1 -->
<svg width="927pt" height="271pt"
 viewBox="0.00 0.00 927.25 271.00" xmlns="http://www.w3.org/2000/svg" xmlns:xlink="http://www.w3.org/1999/xlink">
<g id="graph0" class="graph" transform="scale(1 1) rotate(0) translate(4 267)">
<title>OpsSpecTree</title>
<polygon fill="white" stroke="none" points="-4,4 -4,-267 923.25,-267 923.25,4 -4,4"/>
<g id="clust1" class="cluster">
<title>cluster_ops</title>
<path fill="#e8f0fe" stroke="#bbbbbb" d="M23.75,-8C23.75,-8 569,-8 569,-8 575,-8 581,-14 581,-20 581,-20 581,-73 581,-73 581,-79 575,-85 569,-85 569,-85 23.75,-85 23.75,-85 17.75,-85 11.75,-79 11.75,-73 11.75,-73 11.75,-20 11.75,-20 11.75,-14 17.75,-8 23.75,-8"/>
<text text-anchor="middle" x="296.38" y="-67.7" font-family="Times,serif" font-size="14.00">ops</text>
</g>
<g id="clust2" class="cluster">
<title>cluster_ops2</title>
<path fill="#e8f5e9" stroke="#bbbbbb" d="M20,-178C20,-178 572.75,-178 572.75,-178 578.75,-178 584.75,-184 584.75,-190 584.75,-190 584.75,-243 584.75,-243 584.75,-249 578.75,-255 572.75,-255 572.75,-255 20,-255 20,-255 14,-255 8,-249 8,-243 8,-243 8,-190 8,-190 8,-184 14,-178 20,-178"/>
<text text-anchor="middle" x="296.38" y="-237.7" font-family="Times,serif" font-size="14.00">ops2</text>
</g>
<g id="clust3" class="cluster">
<title>cluster_ops3</title>
<path fill="#e8f5e9" stroke="#bbbbbb" d="M20,-93C20,-93 572.75,-93 572.75,-93 578.75,-93 584.75,-99 584.75,-105 584.75,-105 584.75,-158 584.75,-158 584.75,-164 578.75,-170 572.75,-170 572.75,-170 20,-170 20,-170 14,-170 8,-164 8,-158 8,-158 8,-105 8,-105 8,-99 14,-93 20,-93"/>
<text text-anchor="middle" x="296.38" y="-152.7" font-family="Times,serif" font-size="14.00">ops3</text>
</g>
<g id="clust4" class="cluster">
<title>cluster_ops4</title>
<path fill="#e8f5e9" stroke="#bbbbbb" d="M616.75,-135C616.75,-135 899.25,-135 899.25,-135 905.25,-135 911.25,-141 911.25,-147 911.25,-147 911.25,-200 911.25,-200 911.25,-206 905.25,-212 899.25,-212 899.25,-212 616.75,-212 616.75,-212 610.75,-212 604.75,-206 604.75,-200 604.75,-200 604.75,-147 604.75,-147 604.75,-141 610.75,-135 616.75,-135"/>
<text text-anchor="middle" x="758" y="-194.7" font-family="Times,serif" font-size="14.00">ops4</text>
</g>
<!-- n1 -->
<g id="node1" class="node">
<title>n1</title>
<path fill="white" stroke="black" d="M167.75,-52C167.75,-52 31.75,-52 31.75,-52 25.75,-52 19.75,-46 19.75,-40 19.75,-40 19.75,-28 19.75,-28 19.75,-22 25.75,-16 31.75,-16 31.75,-16 167.75,-16 167.75,-16 173.75,-16 179.75,-22 179.75,-28 179.75,-28 179.75,-40 179.75,-40 179.75,-46 173.75,-52 167.75,-52"/>
<text text-anchor="middle" x="99.75" y="-28.2" font-family="Helvetica,sans-Serif" font-size="14.00">n1 filter (ops) field=Year</text>
</g>
<!-- n2 -->
<g id="node2" class="node">
<title>n2</title>
<path fill="white" stroke="black" d="M561,-52C561,-52 235.25,-52 235.25,-52 229.25,-52 223.25,-46 223.25,-40 223.25,-40 223.25,-28 223.25,-28 223.25,-22 229.25,-16 235.25,-16 235.25,-16 561,-16 561,-16 567,-16 573,-22 573,-28 573,-28 573,-40 573,-40 573,-46 567,-52 561,-52"/>
<text text-anchor="middle" x="398.12" y="-28.2" font-family="Helvetica,sans-Serif" font-size="14.00">n2 findExtremum (ops) field=Percentage_of_Population</text>
</g>
<!-- n1&#45;&gt;n2 -->
<g id="edge1" class="edge">
<title>n1&#45;&gt;n2</title>
<path fill="none" stroke="#666666" d="M180.17,-34C190.16,-34 200.69,-34 211.5,-34"/>
<polygon fill="#666666" stroke="#666666" points="211.34,-37.5 221.34,-34 211.34,-30.5 211.34,-37.5"/>
</g>
<!-- n3 -->
<g id="node3" class="node">
<title>n3</title>
<path fill="white" stroke="black" d="M171.5,-222C171.5,-222 28,-222 28,-222 22,-222 16,-216 16,-210 16,-210 16,-198 16,-198 16,-192 22,-186 28,-186 28,-186 171.5,-186 171.5,-186 177.5,-186 183.5,-192 183.5,-198 183.5,-198 183.5,-210 183.5,-210 183.5,-216 177.5,-222 171.5,-222"/>
<text text-anchor="middle" x="99.75" y="-198.2" font-family="Helvetica,sans-Serif" font-size="14.00">n3 filter (ops2) field=Year</text>
</g>
<!-- n4 -->
<g id="node4" class="node">
<title>n4</title>
<path fill="white" stroke="black" d="M564.75,-222C564.75,-222 231.5,-222 231.5,-222 225.5,-222 219.5,-216 219.5,-210 219.5,-210 219.5,-198 219.5,-198 219.5,-192 225.5,-186 231.5,-186 231.5,-186 564.75,-186 564.75,-186 570.75,-186 576.75,-192 576.75,-198 576.75,-198 576.75,-210 576.75,-210 576.75,-216 570.75,-222 564.75,-222"/>
<text text-anchor="middle" x="398.12" y="-198.2" font-family="Helvetica,sans-Serif" font-size="14.00">n4 findExtremum (ops2) field=Percentage_of_Population</text>
</g>
<!-- n3&#45;&gt;n4 -->
<g id="edge2" class="edge">
<title>n3&#45;&gt;n4</title>
<path fill="none" stroke="#666666" d="M183.7,-204C191.47,-204 199.54,-204 207.79,-204"/>
<polygon fill="#666666" stroke="#666666" points="207.64,-207.5 217.64,-204 207.64,-200.5 207.64,-207.5"/>
</g>
<!-- n7 -->
<g id="node7" class="node">
<title>n7</title>
<path fill="white" stroke="black" d="M891.25,-179C891.25,-179 624.75,-179 624.75,-179 618.75,-179 612.75,-173 612.75,-167 612.75,-167 612.75,-155 612.75,-155 612.75,-149 618.75,-143 624.75,-143 624.75,-143 891.25,-143 891.25,-143 897.25,-143 903.25,-149 903.25,-155 903.25,-155 903.25,-167 903.25,-167 903.25,-173 897.25,-179 891.25,-179"/>
<text text-anchor="middle" x="758" y="-155.2" font-family="Helvetica,sans-Serif" font-size="14.00">n7 diff (ops4) field=Percentage_of_Population</text>
</g>
<!-- n4&#45;&gt;n7 -->
<g id="edge4" class="edge">
<title>n4&#45;&gt;n7</title>
<path fill="none" stroke="#666666" d="M552.97,-185.51C568.98,-183.59 585.26,-181.63 601.29,-179.71"/>
<polygon fill="#666666" stroke="#666666" points="601.33,-183.23 610.84,-178.56 600.49,-176.28 601.33,-183.23"/>
</g>
<!-- n5 -->
<g id="node5" class="node">
<title>n5</title>
<path fill="white" stroke="black" d="M171.5,-137C171.5,-137 28,-137 28,-137 22,-137 16,-131 16,-125 16,-125 16,-113 16,-113 16,-107 22,-101 28,-101 28,-101 171.5,-101 171.5,-101 177.5,-101 183.5,-107 183.5,-113 183.5,-113 183.5,-125 183.5,-125 183.5,-131 177.5,-137 171.5,-137"/>
<text text-anchor="middle" x="99.75" y="-113.2" font-family="Helvetica,sans-Serif" font-size="14.00">n5 filter (ops3) field=Year</text>
</g>
<!-- n6 -->
<g id="node6" class="node">
<title>n6</title>
<path fill="white" stroke="black" d="M564.75,-137C564.75,-137 231.5,-137 231.5,-137 225.5,-137 219.5,-131 219.5,-125 219.5,-125 219.5,-113 219.5,-113 219.5,-107 225.5,-101 231.5,-101 231.5,-101 564.75,-101 564.75,-101 570.75,-101 576.75,-107 576.75,-113 576.75,-113 576.75,-125 576.75,-125 576.75,-131 570.75,-137 564.75,-137"/>
<text text-anchor="middle" x="398.12" y="-113.2" font-family="Helvetica,sans-Serif" font-size="14.00">n6 findExtremum (ops3) field=Percentage_of_Population</text>
</g>
<!-- n5&#45;&gt;n6 -->
<g id="edge3" class="edge">
<title>n5&#45;&gt;n6</title>
<path fill="none" stroke="#666666" d="M183.7,-119C191.47,-119 199.54,-119 207.79,-119"/>
<polygon fill="#666666" stroke="#666666" points="207.64,-122.5 217.64,-119 207.64,-115.5 207.64,-122.5"/>
</g>
<!-- n6&#45;&gt;n7 -->
<g id="edge5" class="edge">
<title>n6&#45;&gt;n7</title>
<path fill="none" stroke="#666666" d="M556.61,-137.48C571.41,-139.22 586.4,-140.98 601.18,-142.71"/>
<polygon fill="#666666" stroke="#666666" points="600.59,-146.17 610.93,-143.86 601.41,-139.22 600.59,-146.17"/>
</g>
</g>
</svg>
