<?xml version="1.0" encoding="UTF-8" standalone="no"?>
<!DOCTYPE svg PUBLIC "-//W3C//DTD SVG 1.1//EN"
 "http://www.w3.org/Graphics/SVG/1.1/DTD/svg11.dtd">
<!-- Generated by graphviz version 12.0.0 (0)
 -->
<!-- Title: OpsSpecTree Pages: 1 -->
<svg width="778pt" height="186pt"
 viewBox="0.00 0.00 778.00 186.00" xmlns="http://www.w3.org/2000/svg" xmlns:xlink="http://www.w3.org/1999/xlink">
<g id="graph0" class="graph" transform="scale(1 1) rotate(0) translate(4 182)">
<title>OpsSpecTree</title>
<polygon fill="white" stroke="none" points="-4,4 -4,-182 774,-182 774,4 -4,4"/>
<g id="clust1" class="cluster">
<title>cluster_ops</title>
<path fill="#e8f0fe" stroke="#bbbbbb" d="M23.75,-93C23.75,-93 615.5,-93 615.5,-93 621.5,-93 627.5,-99 627.5,-105 627.5,-105 627.5,-158 627.5,-158 627.5,-164 621.5,-170 615.5,-170 615.5,-170 23.75,-170 23.75,-170 17.75,-170 11.75,-164 11.75,-158 11.75,-158 11.75,-105 11.75,-105 11.75,-99 17.75,-93 23.75,-93"/>
<text text-anchor="middle" x="319.62" y="-152.7" font-family="Times,serif" font-size="14.00">ops</text>
</g>
<g id="clust2" class="cluster">
<title>cluster_ops2</title>
<path fill="#e8f5e9" stroke="#bbbbbb" d="M20,-8C20,-8 619.25,-8 619.25,-8 625.25,-8 631.25,-14 631.25,-20 631.25,-20 631.25,-73 631.25,-73 631.25,-79 625.25,-85 619.25,-85 619.25,-85 20,-85 20,-85 14,-85 8,-79 8,-73 8,-73 8,-20 8,-20 8,-14 14,-8 20,-8"/>
<text text-anchor="middle" x="319.62" y="-67.7" font-family="Times,serif" font-size="14.00">ops2</text>
</g>
<g id="clust3" class="cluster">
<title>cluster_ops3</title>
<path fill="#e8f5e9" stroke="#bbbbbb" d="M663.25,-50C663.25,-50 750,-50 750,-50 756,-50 762,-56 762,-62 762,-62 762,-115 762,-115 762,-121 756,-127 750,-127 750,-127 663.25,-127 663.25,-127 657.25,-127 651.25,-121 651.25,-115 651.25,-115 651.25,-62 651.25,-62 651.25,-56 657.25,-50 663.25,-50"/>
<text text-anchor="middle" x="706.62" y="-109.7" font-family="Times,serif" font-size="14.00">ops3</text>
</g>
<!-- n1 -->
<g id="node1" class="node">
<title>n1</title>
<path fill="white" stroke="black" d="M209.75,-137C209.75,-137 31.75,-137 31.75,-137 25.75,-137 19.75,-131 19.75,-125 19.75,-125 19.75,-113 19.75,-113 19.75,-107 25.75,-101 31.75,-101 31.75,-101 209.75,-101 209.75,-101 215.75,-101 221.75,-107 221.75,-113 221.75,-113 221.75,-125 221.75,-125 221.75,-131 215.75,-137 209.75,-137"/>
<text text-anchor="middle" x="120.75" y="-113.2" font-family="Helvetica,sans-Serif" font-size="14.00">n1 filter (ops) field=Month/Year</text>
</g>
<!-- n2 -->
<g id="node2" class="node">
<title>n2</title>
<path fill="white" stroke="black" d="M607.5,-137C607.5,-137 277.25,-137 277.25,-137 271.25,-137 265.25,-131 265.25,-125 265.25,-125 265.25,-113 265.25,-113 265.25,-107 271.25,-101 277.25,-101 277.25,-101 607.5,-101 607.5,-101 613.5,-101 619.5,-107 619.5,-113 619.5,-113 619.5,-125 619.5,-125 619.5,-131 613.5,-137 607.5,-137"/>
<text text-anchor="middle" x="442.38" y="-113.2" font-family="Helvetica,sans-Serif" font-size="14.00">n2 average (ops) field=Fatality rate among plague cases</text>
</g>
<!-- n1&#45;&gt;n2 -->
<g id="edge1" class="edge">
<title>n1&#45;&gt;n2</title>
<path fill="none" stroke="#666666" d="M222,-119C232.2,-119 242.76,-119 253.51,-119"/>
<polygon fill="#666666" stroke="#666666" points="253.24,-122.5 263.24,-119 253.24,-115.5 253.24,-122.5"/>
</g>
<!-- n5 -->
<g id="node5" class="node">
<title>n5</title>
<path fill="white" stroke="black" d="M742,-94C742,-94 671.25,-94 671.25,-94 665.25,-94 659.25,-88 659.25,-82 659.25,-82 659.25,-70 659.25,-70 659.25,-64 665.25,-58 671.25,-58 671.25,-58 742,-58 742,-58 748,-58 754,-64 754,-70 754,-70 754,-82 754,-82 754,-88 748,-94 742,-94"/>
<text text-anchor="middle" x="706.62" y="-70.2" font-family="Helvetica,sans-Serif" font-size="14.00">n5 diff (ops3)</text>
</g>
<!-- n2&#45;&gt;n5 -->
<g id="edge3" class="edge">
<title>n2&#45;&gt;n5</title>
<path fill="none" stroke="#666666" d="M560.93,-100.5C584.24,-96.76 608.53,-92.8 631.25,-89 636.55,-88.11 642.05,-87.18 647.57,-86.23"/>
<polygon fill="#666666" stroke="#666666" points="648.08,-89.7 657.34,-84.55 646.89,-82.8 648.08,-89.7"/>
</g>
<!-- n3 -->
<g id="node3" class="node">
<title>n3</title>
<path fill="white" stroke="black" d="M213.5,-52C213.5,-52 28,-52 28,-52 22,-52 16,-46 16,-40 16,-40 16,-28 16,-28 16,-22 22,-16 28,-16 28,-16 213.5,-16 213.5,-16 219.5,-16 225.5,-22 225.5,-28 225.5,-28 225.5,-40 225.5,-40 225.5,-46 219.5,-52 213.5,-52"/>
<text text-anchor="middle" x="120.75" y="-28.2" font-family="Helvetica,sans-Serif" font-size="14.00">n3 filter (ops2) field=Month/Year</text>
</g>
<!-- n4 -->
<g id="node4" class="node">
<title>n4</title>
<path fill="white" stroke="black" d="M611.25,-52C611.25,-52 273.5,-52 273.5,-52 267.5,-52 261.5,-46 261.5,-40 261.5,-40 261.5,-28 261.5,-28 261.5,-22 267.5,-16 273.5,-16 273.5,-16 611.25,-16 611.25,-16 617.25,-16 623.25,-22 623.25,-28 623.25,-28 623.25,-40 623.25,-40 623.25,-46 617.25,-52 611.25,-52"/>
<text text-anchor="middle" x="442.38" y="-28.2" font-family="Helvetica,sans-Serif" font-size="14.00">n4 average (ops2) field=Fatality rate among plague cases</text>
</g>
<!-- n3&#45;&gt;n4 -->
<g id="edge2" class="edge">
<title>n3&#45;&gt;n4</title>
<path fill="none" stroke="#666666" d="M225.96,-34C233.7,-34 241.64,-34 249.69,-34"/>
<polygon fill="#666666" stroke="#666666" points="249.62,-37.5 259.62,-34 249.62,-30.5 249.62,-37.5"/>
</g>
<!-- n4&#45;&gt;n5 -->
<g id="edge4" class="edge">
<title>n4&#45;&gt;n5</title>
<path fill="none" stroke="#666666" d="M558.78,-52.48C589.55,-57.41 621.48,-62.52 647.68,-66.72"/>
<polygon fill="#666666" stroke="#666666" points="646.99,-70.15 657.42,-68.28 648.1,-63.24 646.99,-70.15"/>
</g>
</g>
</svg>
