<?xml version="1.0" encoding="UTF-8" standalone="no"?>
<!DOCTYPE svg PUBLIC "-//W3C//DTD SVG 1.1//EN"
 "http://www.w3.org/Graphics/SVG/1.1/DTD/svg11.dtd">
<!-- Generated by graphviz version 12.0.0 (0)
 -->
<!-- Title: OpsSpecTree Pages: 1 -->
<svg width="674pt" height="101pt"
 viewBox="0.00 0.00 673.50 101.00" xmlns="http://www.w3.org/2000/svg" xmlns:xlink="http://www.w3.org/1999/xlink">
<g id="graph0" class="graph" transform="scale(1 1) rotate(0) translate(4 97)">
<title>OpsSpecTree</title>
<polygon fill="white" stroke="none" points="-4,4 -4,-97 669.5,-97 669.5,4 -4,4"/>
<g id="clust1" class="cluster">
<title>cluster_ops</title>
<path fill="#e8f0fe" stroke="#bbbbbb" d="M20,-8C20,-8 283.75,-8 283.75,-8 289.75,-8 295.75,-14 295.75,-20 295.75,-20 295.75,-73 295.75,-73 295.75,-79 289.75,-85 283.75,-85 283.75,-85 20,-85 20,-85 14,-85 8,-79 8,-73 8,-73 8,-20 8,-20 8,-14 14,-8 20,-8"/>
<text text-anchor="middle" x="151.88" y="-67.7" font-family="Times,serif" font-size="14.00">ops</text>
</g>
<g id="clust2" class="cluster">
<title>cluster_ops2</title>
<path fill="#e8f5e9" stroke="#bbbbbb" d="M327.75,-8C327.75,-8 645.5,-8 645.5,-8 651.5,-8 657.5,-14 657.5,-20 657.5,-20 657.5,-73 657.5,-73 657.5,-79 651.5,-85 645.5,-85 645.5,-85 327.75,-85 327.75,-85 321.75,-85 315.75,-79 315.75,-73 315.75,-73 315.75,-20 315.75,-20 315.75,-14 321.75,-8 327.75,-8"/>
<text text-anchor="middle" x="486.62" y="-67.7" font-family="Times,serif" font-size="14.00">ops2</text>
</g>
<!-- n1 -->
<g id="node1" class="node">
<title>n1</title>
<path fill="white" stroke="black" d="M275.75,-52C275.75,-52 28,-52 28,-52 22,-52 16,-46 16,-40 16,-40 16,-28 16,-28 16,-22 22,-16 28,-16 28,-16 275.75,-16 275.75,-16 281.75,-16 287.75,-22 287.75,-28 287.75,-28 287.75,-40 287.75,-40 287.75,-46 281.75,-52 275.75,-52"/>
<text text-anchor="middle" x="151.88" y="-28.2" font-family="Helvetica,sans-Serif" font-size="14.00">n1 lagDiff (ops) field=Population in millions</text>
</g>
<!-- n2 -->
<g id="node2" class="node">
<title>n2</title>
<path fill="white" stroke="black" d="M637.5,-52C637.5,-52 335.75,-52 335.75,-52 329.75,-52 323.75,-46 323.75,-40 323.75,-40 323.75,-28 323.75,-28 323.75,-22 329.75,-16 335.75,-16 335.75,-16 637.5,-16 637.5,-16 643.5,-16 649.5,-22 649.5,-28 649.5,-28 649.5,-40 649.5,-40 649.5,-46 643.5,-52 637.5,-52"/>
<text text-anchor="middle" x="486.62" y="-28.2" font-family="Helvetica,sans-Serif" font-size="14.00">n2 findExtremum (ops2) field=Population in millions</text>
</g>
<!-- n1&#45;&gt;n2 -->
<g id="edge1" class="edge">
<title>n1&#45;&gt;n2</title>
<path fill="none" stroke="#666666" d="M288.22,-34C296.11,-34 304.09,-34 312.1,-34"/>
<polygon fill="#666666" stroke="#666666" points="311.91,-37.5 321.91,-34 311.91,-30.5 311.91,-37.5"/>
</g>
</g>
</svg>
