<?xml version="1.0" encoding="UTF-8" standalone="no"?>
<!DOCTYPE svg PUBLIC "-//W3C//DTD SVG 1.1//EN"
 "http://www.w3.org/Graphics/SVG/1.1/DTD/svg11.dtd">
<!-- Generated by graphviz version 12.0.0 (0)
 -->
<!-- Title: OpsSpecTree Pages: 1 -->
<svg width="639pt" height="101pt"
 viewBox="0.00 0.00 639.00 101.00" xmlns="http://www.w3.org/2000/svg" xmlns:xlink="http://www.w3.org/1999/xlink">
<g id="graph0" class="graph" transform="scale(1 1) rotate(0) translate(4 97)">
<title>OpsSpecTree</title>
<polygon fill="white" stroke="none" points="-4,4 -4,-97 635,-97 635,4 -4,4"/>
<g id="clust1" class="cluster">
<title>cluster_ops</title>
<path fill="#e8f0fe" stroke="#bbbbbb" d="M20,-8C20,-8 260.5,-8 260.5,-8 266.5,-8 272.5,-14 272.5,-20 272.5,-20 272.5,-73 272.5,-73 272.5,-79 266.5,-85 260.5,-85 260.5,-85 20,-85 20,-85 14,-85 8,-79 8,-73 8,-73 8,-20 8,-20 8,-14 14,-8 20,-8"/>
<text text-anchor="middle" x="140.25" y="-67.7" font-family="Times,serif" font-size="14.00">ops</text>
</g>
<g id="clust2" class="cluster">
<title>cluster_ops2</title>
<path fill="#e8f5e9" stroke="#bbbbbb" d="M304.5,-8C304.5,-8 611,-8 611,-8 617,-8 623,-14 623,-20 623,-20 623,-73 623,-73 623,-79 617,-85 611,-85 611,-85 304.5,-85 304.5,-85 298.5,-85 292.5,-79 292.5,-73 292.5,-73 292.5,-20 292.5,-20 292.5,-14 298.5,-8 304.5,-8"/>
<text text-anchor="middle" x="457.75" y="-67.7" font-family="Times,serif" font-size="14.00">ops2</text>
</g>
<!-- n1 -->
<g id="node1" class="node">
<title>n1</title>
<path fill="white" stroke="black" d="M252.5,-52C252.5,-52 28,-52 28,-52 22,-52 16,-46 16,-40 16,-40 16,-28 16,-28 16,-22 22,-16 28,-16 28,-16 252.5,-16 252.5,-16 258.5,-16 264.5,-22 264.5,-28 264.5,-28 264.5,-40 264.5,-40 264.5,-46 258.5,-52 252.5,-52"/>
<text text-anchor="middle" x="140.25" y="-28.2" font-family="Helvetica,sans-Serif" font-size="14.00">n1 sum (ops) field=Number of suicides</text>
</g>
<!-- n2 -->
<g id="node2" class="node">
<title>n2</title>
<path fill="white" stroke="black" d="M603,-52C603,-52 312.5,-52 312.5,-52 306.5,-52 300.5,-46 300.5,-40 300.5,-40 300.5,-28 300.5,-28 300.5,-22 306.5,-16 312.5,-16 312.5,-16 603,-16 603,-16 609,-16 615,-22 615,-28 615,-28 615,-40 615,-40 615,-46 609,-52 603,-52"/>
<text text-anchor="middle" x="457.75" y="-28.2" font-family="Helvetica,sans-Serif" font-size="14.00">n2 findExtremum (ops2) field=Number of suicides</text>
</g>
<!-- n1&#45;&gt;n2 -->
<g id="edge1" class="edge">
<title>n1&#45;&gt;n2</title>
<path fill="none" stroke="#666666" d="M264.59,-34C272.52,-34 280.57,-34 288.65,-34"/>
<polygon fill="#666666" stroke="#666666" points="288.59,-37.5 298.59,-34 288.59,-30.5 288.59,-37.5"/>
</g>
</g>
</svg>
