<?xml version="1.0" encoding="UTF-8" standalone="no"?>
<!DOCTYPE svg PUBLIC "-//W3C//DTD SVG 1.1//EN"
 "http://www.w3.org/Graphics/SVG/1.1/DTD/svg11.dtd">
<!-- Generated by graphviz version 12.0.0 (0)
 -->
<!-- Title: OpsSpecTree Pages: 1 -->
<svg width="766pt" height="186pt"
 viewBox="0.00 0.00 765.75 186.00" xmlns="http://www.w3.org/2000/svg" xmlns:xlink="http://www.w3.org/1999/xlink">
<g id="graph0" class="graph" transform="scale(1 1) rotate(0) translate(4 182)">
<title>OpsSpecTree</title>
<polygon fill="white" stroke="none" points="-4,4 -4,-182 761.75,-182 761.75,4 -4,4"/>
<g id="clust1" class="cluster">
<title>cluster_ops</title>
<path fill="#e8f0fe" stroke="#bbbbbb" d="M49.25,-93C49.25,-93 436,-93 436,-93 442,-93 448,-99 448,-105 448,-105 448,-158 448,-158 448,-164 442,-170 436,-170 436,-170 49.25,-170 49.25,-170 43.25,-170 37.25,-164 37.25,-158 37.25,-158 37.25,-105 37.25,-105 37.25,-99 43.25,-93 49.25,-93"/>
<text text-anchor="middle" x="242.62" y="-152.7" font-family="Times,serif" font-size="14.00">ops</text>
</g>
<g id="clust2" class="cluster">
<title>cluster_ops2</title>
<path fill="#e8f5e9" stroke="#bbbbbb" d="M20,-8C20,-8 465.25,-8 465.25,-8 471.25,-8 477.25,-14 477.25,-20 477.25,-20 477.25,-73 477.25,-73 477.25,-79 471.25,-85 465.25,-85 465.25,-85 20,-85 20,-85 14,-85 8,-79 8,-73 8,-73 8,-20 8,-20 8,-14 14,-8 20,-8"/>
<text text-anchor="middle" x="242.62" y="-67.7" font-family="Times,serif" font-size="14.00">ops2</text>
</g>
<g id="clust3" class="cluster">
<title>cluster_ops3</title>
<path fill="#e8f5e9" stroke="#bbbbbb" d="M562.5,-93C562.5,-93 684.5,-93 684.5,-93 690.5,-93 696.5,-99 696.5,-105 696.5,-105 696.5,-158 696.5,-158 696.5,-164 690.5,-170 684.5,-170 684.5,-170 562.5,-170 562.5,-170 556.5,-170 550.5,-164 550.5,-158 550.5,-158 550.5,-105 550.5,-105 550.5,-99 556.5,-93 562.5,-93"/>
<text text-anchor="middle" x="623.5" y="-152.7" font-family="Times,serif" font-size="14.00">ops3</text>
</g>
<g id="clust4" class="cluster">
<title>cluster_ops4</title>
<path fill="#e8f5e9" stroke="#bbbbbb" d="M509.25,-8C509.25,-8 737.75,-8 737.75,-8 743.75,-8 749.75,-14 749.75,-20 749.75,-20 749.75,-73 749.75,-73 749.75,-79 743.75,-85 737.75,-85 737.75,-85 509.25,-85 509.25,-85 503.25,-85 497.25,-79 497.25,-73 497.25,-73 497.25,-20 497.25,-20 497.25,-14 503.25,-8 509.25,-8"/>
<text text-anchor="middle" x="623.5" y="-67.7" font-family="Times,serif" font-size="14.00">ops4</text>
</g>
<!-- n1 -->
<g id="node1" class="node">
<title>n1</title>
<path fill="white" stroke="black" d="M428,-137C428,-137 57.25,-137 57.25,-137 51.25,-137 45.25,-131 45.25,-125 45.25,-125 45.25,-113 45.25,-113 45.25,-107 51.25,-101 57.25,-101 57.25,-101 428,-101 428,-101 434,-101 440,-107 440,-113 440,-113 440,-125 440,-125 440,-131 434,-137 428,-137"/>
<text text-anchor="middle" x="242.62" y="-113.2" font-family="Helvetica,sans-Serif" font-size="14.00">n1 findExtremum (ops) field=SharePercentage group=Scotland</text>
</g>
<!-- n3 -->
<g id="node3" class="node">
<title>n3</title>
<path fill="white" stroke="black" d="M676.5,-137C676.5,-137 570.5,-137 570.5,-137 564.5,-137 558.5,-131 558.5,-125 558.5,-125 558.5,-113 558.5,-113 558.5,-107 564.5,-101 570.5,-101 570.5,-101 676.5,-101 676.5,-101 682.5,-101 688.5,-107 688.5,-113 688.5,-113 688.5,-125 688.5,-125 688.5,-131 682.5,-137 676.5,-137"/>
<text text-anchor="middle" x="623.5" y="-113.2" font-family="Helvetica,sans-Serif" font-size="14.00">n3 compare (ops3)</text>
</g>
<!-- n1&#45;&gt;n3 -->
<g id="edge1" class="edge">
<title>n1&#45;&gt;n3</title>
<path fill="none" stroke="#666666" d="M440.28,-119C478.31,-119 515.95,-119 547.07,-119"/>
<polygon fill="#666666" stroke="#666666" points="546.71,-122.5 556.71,-119 546.71,-115.5 546.71,-122.5"/>
</g>
<!-- n4 -->
<g id="node4" class="node">
<title>n4</title>
<path fill="white" stroke="black" d="M729.75,-52C729.75,-52 517.25,-52 517.25,-52 511.25,-52 505.25,-46 505.25,-40 505.25,-40 505.25,-28 505.25,-28 505.25,-22 511.25,-16 517.25,-16 517.25,-16 729.75,-16 729.75,-16 735.75,-16 741.75,-22 741.75,-28 741.75,-28 741.75,-40 741.75,-40 741.75,-46 735.75,-52 729.75,-52"/>
<text text-anchor="middle" x="623.5" y="-28.2" font-family="Helvetica,sans-Serif" font-size="14.00">n4 diff (ops4) field=SharePercentage</text>
</g>
<!-- n1&#45;&gt;n4 -->
<g id="edge3" class="edge">
<title>n1&#45;&gt;n4</title>
<path fill="none" stroke="#666666" d="M421.75,-100.55C440.6,-97.28 459.4,-93.46 477.25,-89 509.24,-81.01 543.8,-68.1 571.19,-56.8"/>
<polygon fill="#666666" stroke="#666666" points="572.42,-60.08 580.29,-52.99 569.72,-53.62 572.42,-60.08"/>
</g>
<!-- n2 -->
<g id="node2" class="node">
<title>n2</title>
<path fill="white" stroke="black" d="M457.25,-52C457.25,-52 28,-52 28,-52 22,-52 16,-46 16,-40 16,-40 16,-28 16,-28 16,-22 22,-16 28,-16 28,-16 457.25,-16 457.25,-16 463.25,-16 469.25,-22 469.25,-28 469.25,-28 469.25,-40 469.25,-40 469.25,-46 463.25,-52 457.25,-52"/>
<text text-anchor="middle" x="242.62" y="-28.2" font-family="Helvetica,sans-Serif" font-size="14.00">n2 findExtremum (ops2) field=SharePercentage group=England &amp; Wales</text>
</g>
<!-- n2&#45;&gt;n3 -->
<g id="edge2" class="edge">
<title>n2&#45;&gt;n3</title>
<path fill="none" stroke="#666666" d="M325.84,-52.44C391.53,-67.18 482.89,-87.68 546.81,-102.02"/>
<polygon fill="#666666" stroke="#666666" points="546.01,-105.43 556.54,-104.2 547.55,-98.6 546.01,-105.43"/>
</g>
<!-- n2&#45;&gt;n4 -->
<g id="edge4" class="edge">
<title>n2&#45;&gt;n4</title>
<path fill="none" stroke="#666666" d="M469.49,-34C477.58,-34 485.58,-34 493.43,-34"/>
<polygon fill="#666666" stroke="#666666" points="493.29,-37.5 503.29,-34 493.29,-30.5 493.29,-37.5"/>
</g>
</g>
</svg>
