<?xml version="1.0" encoding="UTF-8" standalone="no"?>
<!DOCTYPE svg PUBLIC "-//W3C//DTD SVG 1.1//EN"
 "http://www.w3.org/Graphics/SVG/1.1/DTD/svg11.dtd">
<!-- Generated by graphviz version 12.0.0 (0)
 -->
<!-- Title: OpsSpecTree Pages: 1 -->
<svg width="664pt" height="101pt"
 viewBox="0.00 0.00 663.75 101.00" xmlns="http://www.w3.org/2000/svg" xmlns:xlink="http://www.w3.org/1999/xlink">
<g id="graph0" class="graph" transform="scale(1 1) rotate(0) translate(4 97)">
<title>OpsSpecTree</title>
<polygon fill="white" stroke="none" points="-4,4 -4,-97 659.75,-97 659.75,4 -4,4"/>
<g id="clust1" class="cluster">
<title>cluster_ops</title>
<path fill="#e8f0fe" stroke="#bbbbbb" d="M20,-8C20,-8 304,-8 304,-8 310,-8 316,-14 316,-20 316,-20 316,-73 316,-73 316,-79 310,-85 304,-85 304,-85 20,-85 20,-85 14,-85 8,-79 8,-73 8,-73 8,-20 8,-20 8,-14 14,-8 20,-8"/>
<text text-anchor="middle" x="162" y="-67.7" font-family="Times,serif" font-size="14.00">ops</text>
</g>
<g id="clust2" class="cluster">
<title>cluster_ops2</title>
<path fill="#e8f5e9" stroke="#bbbbbb" d="M348,-8C348,-8 635.75,-8 635.75,-8 641.75,-8 647.75,-14 647.75,-20 647.75,-20 647.75,-73 647.75,-73 647.75,-79 641.75,-85 635.75,-85 635.75,-85 348,-85 348,-85 342,-85 336,-79 336,-73 336,-73 336,-20 336,-20 336,-14 342,-8 348,-8"/>
<text text-anchor="middle" x="491.88" y="-67.7" font-family="Times,serif" font-size="14.00">ops2</text>
</g>
<!-- n1 -->
<g id="node1" class="node">
<title>n1</title>
<path fill="white" stroke="black" d="M296,-52C296,-52 28,-52 28,-52 22,-52 16,-46 16,-40 16,-40 16,-28 16,-28 16,-22 22,-16 28,-16 28,-16 296,-16 296,-16 302,-16 308,-22 308,-28 308,-28 308,-40 308,-40 308,-46 302,-52 296,-52"/>
<text text-anchor="middle" x="162" y="-28.2" font-family="Helvetica,sans-Serif" font-size="14.00">n1 sort (ops) field=Average price in US dollars</text>
</g>
<!-- n2 -->
<g id="node2" class="node">
<title>n2</title>
<path fill="white" stroke="black" d="M627.75,-52C627.75,-52 356,-52 356,-52 350,-52 344,-46 344,-40 344,-40 344,-28 344,-28 344,-22 350,-16 356,-16 356,-16 627.75,-16 627.75,-16 633.75,-16 639.75,-22 639.75,-28 639.75,-28 639.75,-40 639.75,-40 639.75,-46 633.75,-52 627.75,-52"/>
<text text-anchor="middle" x="491.88" y="-28.2" font-family="Helvetica,sans-Serif" font-size="14.00">n2 nth (ops2) field=Average price in US dollars</text>
</g>
<!-- n1&#45;&gt;n2 -->
<g id="edge1" class="edge">
<title>n1&#45;&gt;n2</title>
<path fill="none" stroke="#666666" d="M308.24,-34C316.22,-34 324.25,-34 332.27,-34"/>
<polygon fill="#666666" stroke="#666666" points="332.07,-37.5 342.07,-34 332.07,-30.5 332.07,-37.5"/>
</g>
</g>
</svg>
