<?xml version="1.0" encoding="UTF-8" standalone="no"?>
<!DOCTYPE svg PUBLIC "-//W3C//DTD SVG 1.1//EN"
 "http://www.w3.org/Graphics/SVG/1.1/DTD/svg11.dtd">
<!-- Generated by graphviz version 12.0.0 (0)
 -->
<!-- Title: OpsSpecTree Pages: 1 -->
<svg width="864pt" height="155pt"
 viewBox="0.00 0.00 864.25 155.00" xmlns="http://www.w3.org/2000/svg" xmlns:xlink="http://www.w3.org/1999/xlink">
<g id="graph0" class="graph" transform="scale(1 1) rotate(0) translate(4 151)">
<title>OpsSpecTree</title>
<polygon fill="white" stroke="none" points="-4,4 -4,-151 860.25,-151 860.25,4 -4,4"/>
<g id="clust1" class="cluster">
<title>cluster_ops</title>
<path fill="#e8f0fe" stroke="#bbbbbb" d="M20,-8C20,-8 504.5,-8 504.5,-8 510.5,-8 516.5,-14 516.5,-20 516.5,-20 516.5,-127 516.5,-127 516.5,-133 510.5,-139 504.5,-139 504.5,-139 20,-139 20,-139 14,-139 8,-133 8,-127 8,-127 8,-20 8,-20 8,-14 14,-8 20,-8"/>
<text text-anchor="middle" x="262.25" y="-121.7" font-family="Times,serif" font-size="14.00">ops</text>
</g>
<g id="clust2" class="cluster">
<title>cluster_ops2</title>
<path fill="#e8f5e9" stroke="#bbbbbb" d="M548.5,-35C548.5,-35 836.25,-35 836.25,-35 842.25,-35 848.25,-41 848.25,-47 848.25,-47 848.25,-100 848.25,-100 848.25,-106 842.25,-112 836.25,-112 836.25,-112 548.5,-112 548.5,-112 542.5,-112 536.5,-106 536.5,-100 536.5,-100 536.5,-47 536.5,-47 536.5,-41 542.5,-35 548.5,-35"/>
<text text-anchor="middle" x="692.38" y="-94.7" font-family="Times,serif" font-size="14.00">ops2</text>
</g>
<!-- n1 -->
<g id="node1" class="node">
<title>n1</title>
<path fill="white" stroke="black" d="M199.25,-52C199.25,-52 28,-52 28,-52 22,-52 16,-46 16,-40 16,-40 16,-28 16,-28 16,-22 22,-16 28,-16 28,-16 199.25,-16 199.25,-16 205.25,-16 211.25,-22 211.25,-28 211.25,-28 211.25,-40 211.25,-40 211.25,-46 205.25,-52 199.25,-52"/>
<text text-anchor="middle" x="113.62" y="-28.2" font-family="Helvetica,sans-Serif" font-size="14.00">n1 filter (ops) field=Frequency</text>
</g>
<!-- n2 -->
<g id="node2" class="node">
<title>n2</title>
<path fill="white" stroke="black" d="M496.5,-52C496.5,-52 259.25,-52 259.25,-52 253.25,-52 247.25,-46 247.25,-40 247.25,-40 247.25,-28 247.25,-28 247.25,-22 253.25,-16 259.25,-16 259.25,-16 496.5,-16 496.5,-16 502.5,-16 508.5,-22 508.5,-28 508.5,-28 508.5,-40 508.5,-40 508.5,-46 502.5,-52 496.5,-52"/>
<text text-anchor="middle" x="377.88" y="-28.2" font-family="Helvetica,sans-Serif" font-size="14.00">n2 sum (ops) field=Share of respondents</text>
</g>
<!-- n1&#45;&gt;n2 -->
<g id="edge1" class="edge">
<title>n1&#45;&gt;n2</title>
<path fill="none" stroke="#666666" d="M211.53,-34C219.37,-34 227.38,-34 235.44,-34"/>
<polygon fill="#666666" stroke="#666666" points="235.35,-37.5 245.35,-34 235.35,-30.5 235.35,-37.5"/>
</g>
<!-- n5 -->
<g id="node5" class="node">
<title>n5</title>
<path fill="white" stroke="black" d="M828.25,-79C828.25,-79 556.5,-79 556.5,-79 550.5,-79 544.5,-73 544.5,-67 544.5,-67 544.5,-55 544.5,-55 544.5,-49 550.5,-43 556.5,-43 556.5,-43 828.25,-43 828.25,-43 834.25,-43 840.25,-49 840.25,-55 840.25,-55 840.25,-67 840.25,-67 840.25,-73 834.25,-79 828.25,-79"/>
<text text-anchor="middle" x="692.38" y="-55.2" font-family="Helvetica,sans-Serif" font-size="14.00">n5 compare (ops2) field=Share of respondents</text>
</g>
<!-- n2&#45;&gt;n5 -->
<g id="edge3" class="edge">
<title>n2&#45;&gt;n5</title>
<path fill="none" stroke="#666666" d="M508.69,-45.22C516.67,-45.91 524.74,-46.6 532.82,-47.3"/>
<polygon fill="#666666" stroke="#666666" points="532.47,-50.78 542.74,-48.16 533.07,-43.81 532.47,-50.78"/>
</g>
<!-- n3 -->
<g id="node3" class="node">
<title>n3</title>
<path fill="white" stroke="black" d="M199.25,-106C199.25,-106 28,-106 28,-106 22,-106 16,-100 16,-94 16,-94 16,-82 16,-82 16,-76 22,-70 28,-70 28,-70 199.25,-70 199.25,-70 205.25,-70 211.25,-76 211.25,-82 211.25,-82 211.25,-94 211.25,-94 211.25,-100 205.25,-106 199.25,-106"/>
<text text-anchor="middle" x="113.62" y="-82.2" font-family="Helvetica,sans-Serif" font-size="14.00">n3 filter (ops) field=Frequency</text>
</g>
<!-- n4 -->
<g id="node4" class="node">
<title>n4</title>
<path fill="white" stroke="black" d="M496.5,-106C496.5,-106 259.25,-106 259.25,-106 253.25,-106 247.25,-100 247.25,-94 247.25,-94 247.25,-82 247.25,-82 247.25,-76 253.25,-70 259.25,-70 259.25,-70 496.5,-70 496.5,-70 502.5,-70 508.5,-76 508.5,-82 508.5,-82 508.5,-94 508.5,-94 508.5,-100 502.5,-106 496.5,-106"/>
<text text-anchor="middle" x="377.88" y="-82.2" font-family="Helvetica,sans-Serif" font-size="14.00">n4 sum (ops) field=Share of respondents</text>
</g>
<!-- n3&#45;&gt;n4 -->
<g id="edge2" class="edge">
<title>n3&#45;&gt;n4</title>
<path fill="none" stroke="#666666" d="M211.53,-88C219.37,-88 227.38,-88 235.44,-88"/>
<polygon fill="#666666" stroke="#666666" points="235.35,-91.5 245.35,-88 235.35,-84.5 235.35,-91.5"/>
</g>
<!-- n4&#45;&gt;n5 -->
<g id="edge4" class="edge">
<title>n4&#45;&gt;n5</title>
<path fill="none" stroke="#666666" d="M508.69,-76.78C516.67,-76.09 524.74,-75.4 532.82,-74.7"/>
<polygon fill="#666666" stroke="#666666" points="533.07,-78.19 542.74,-73.84 532.47,-71.22 533.07,-78.19"/>
</g>
</g>
</svg>
