<?xml version="1.0" encoding="UTF-8" standalone="no"?>
<!DOCTYPE svg PUBLIC "-//W3C//DTD SVG 1.1//EN"
 "http://www.w3.org/Graphics/SVG/1.1/DTD/svg11.dtd">
<!-- Generated by graphviz version 12.0.0 (0)
 -->
<!-- Title: OpsSpecTree Pages: 1 -->
<svg width="1086pt" height="155pt"
 viewBox="0.00 0.00 1086.25 155.00" xmlns="http://www.w3.org/2000/svg" xmlns:xlink="http://www.w3.org/1999/xlink">
<g id="graph0" class="graph" transform="scale(1 1) rotate(0) translate(4 151)">
<title>OpsSpecTree</title>
<polygon fill="white" stroke="none" points="-4,4 -4,-151 1082.25,-151 1082.25,4 -4,4"/>
<g id="clust1" class="cluster">
<title>cluster_ops</title>
<path fill="#e8f0fe" stroke="#bbbbbb" d="M20,-8C20,-8 350.5,-8 350.5,-8 356.5,-8 362.5,-14 362.5,-20 362.5,-20 362.5,-127 362.5,-127 362.5,-133 356.5,-139 350.5,-139 350.5,-139 20,-139 20,-139 14,-139 8,-133 8,-127 8,-127 8,-20 8,-20 8,-14 14,-8 20,-8"/>
<text text-anchor="middle" x="185.25" y="-121.7" font-family="Times,serif" font-size="14.00">ops</text>
</g>
<g id="clust2" class="cluster">
<title>cluster_ops2</title>
<path fill="#e8f5e9" stroke="#bbbbbb" d="M394.5,-35C394.5,-35 671,-35 671,-35 677,-35 683,-41 683,-47 683,-47 683,-100 683,-100 683,-106 677,-112 671,-112 671,-112 394.5,-112 394.5,-112 388.5,-112 382.5,-106 382.5,-100 382.5,-100 382.5,-47 382.5,-47 382.5,-41 388.5,-35 394.5,-35"/>
<text text-anchor="middle" x="532.75" y="-94.7" font-family="Times,serif" font-size="14.00">ops2</text>
</g>
<g id="clust3" class="cluster">
<title>cluster_ops3</title>
<path fill="#e8f5e9" stroke="#bbbbbb" d="M715,-35C715,-35 1058.25,-35 1058.25,-35 1064.25,-35 1070.25,-41 1070.25,-47 1070.25,-47 1070.25,-100 1070.25,-100 1070.25,-106 1064.25,-112 1058.25,-112 1058.25,-112 715,-112 715,-112 709,-112 703,-106 703,-100 703,-100 703,-47 703,-47 703,-41 709,-35 715,-35"/>
<text text-anchor="middle" x="886.62" y="-94.7" font-family="Times,serif" font-size="14.00">ops3</text>
</g>
<!-- n1 -->
<g id="node1" class="node">
<title>n1</title>
<path fill="white" stroke="black" d="M342.5,-52C342.5,-52 28,-52 28,-52 22,-52 16,-46 16,-40 16,-40 16,-28 16,-28 16,-22 22,-16 28,-16 28,-16 342.5,-16 342.5,-16 348.5,-16 354.5,-22 354.5,-28 354.5,-28 354.5,-40 354.5,-40 354.5,-46 348.5,-52 342.5,-52"/>
<text text-anchor="middle" x="185.25" y="-28.2" font-family="Helvetica,sans-Serif" font-size="14.00">n1 retrieveValue (ops) field=Value in billion US dollars</text>
</g>
<!-- n3 -->
<g id="node3" class="node">
<title>n3</title>
<path fill="white" stroke="black" d="M663,-79C663,-79 402.5,-79 402.5,-79 396.5,-79 390.5,-73 390.5,-67 390.5,-67 390.5,-55 390.5,-55 390.5,-49 396.5,-43 402.5,-43 402.5,-43 663,-43 663,-43 669,-43 675,-49 675,-55 675,-55 675,-67 675,-67 675,-73 669,-79 663,-79"/>
<text text-anchor="middle" x="532.75" y="-55.2" font-family="Helvetica,sans-Serif" font-size="14.00">n3 diff (ops2) field=Value in billion US dollars</text>
</g>
<!-- n1&#45;&gt;n3 -->
<g id="edge1" class="edge">
<title>n1&#45;&gt;n3</title>
<path fill="none" stroke="#666666" d="M354.95,-47.18C362.84,-47.8 370.73,-48.42 378.57,-49.03"/>
<polygon fill="#666666" stroke="#666666" points="378.26,-52.52 388.5,-49.81 378.8,-45.54 378.26,-52.52"/>
</g>
<!-- n2 -->
<g id="node2" class="node">
<title>n2</title>
<path fill="white" stroke="black" d="M342.5,-106C342.5,-106 28,-106 28,-106 22,-106 16,-100 16,-94 16,-94 16,-82 16,-82 16,-76 22,-70 28,-70 28,-70 342.5,-70 342.5,-70 348.5,-70 354.5,-76 354.5,-82 354.5,-82 354.5,-94 354.5,-94 354.5,-100 348.5,-106 342.5,-106"/>
<text text-anchor="middle" x="185.25" y="-82.2" font-family="Helvetica,sans-Serif" font-size="14.00">n2 retrieveValue (ops) field=Value in billion US dollars</text>
</g>
<!-- n2&#45;&gt;n3 -->
<g id="edge2" class="edge">
<title>n2&#45;&gt;n3</title>
<path fill="none" stroke="#666666" d="M354.95,-74.82C362.84,-74.2 370.73,-73.58 378.57,-72.97"/>
<polygon fill="#666666" stroke="#666666" points="378.8,-76.46 388.5,-72.19 378.26,-69.48 378.8,-76.46"/>
</g>
<!-- n4 -->
<g id="node4" class="node">
<title>n4</title>
<path fill="white" stroke="black" d="M1050.25,-79C1050.25,-79 723,-79 723,-79 717,-79 711,-73 711,-67 711,-67 711,-55 711,-55 711,-49 717,-43 723,-43 723,-43 1050.25,-43 1050.25,-43 1056.25,-43 1062.25,-49 1062.25,-55 1062.25,-55 1062.25,-67 1062.25,-67 1062.25,-73 1056.25,-79 1050.25,-79"/>
<text text-anchor="middle" x="886.62" y="-55.2" font-family="Helvetica,sans-Serif" font-size="14.00">n4 findExtremum (ops3) field=Value in billion US dollars</text>
</g>
<!-- n3&#45;&gt;n4 -->
<g id="edge3" class="edge">
<title>n3&#45;&gt;n4</title>
<path fill="none" stroke="#666666" d="M675.35,-61C683.27,-61 691.28,-61 699.33,-61"/>
<polygon fill="#666666" stroke="#666666" points="699.2,-64.5 709.2,-61 699.2,-57.5 699.2,-64.5"/>
</g>
</g>
</svg>
