<?xml version="1.0" encoding="UTF-8" standalone="no"?>
<!DOCTYPE svg PUBLIC "-//W3C//DTD SVG 1.1//EN"
 "http://www.w3.org/Graphics/SVG/1.1/DTD/svg11.dtd">
<!-- Generated by graphviz version 12.0.0 (0)
 -->
<!-- Title: OpsSpecTree Pages: 1 -->
<svg width="872pt" height="186pt"
 viewBox="0.00 0.00 871.75 186.00" xmlns="http://www.w3.org/2000/svg" xmlns:xlink="http://www.w3.org/1999/xlink">
<g id="graph0" class="graph" transform="scale(1 1) rotate(0) translate(4 182)">
<title>OpsSpecTree</title>
<polygon fill="white" stroke="none" points="-4,4 -4,-182 867.75,-182 867.75,4 -4,4"/>
<g id="clust1" class="cluster">
<title>cluster_ops</title>
<path fill="#e8f0fe" stroke="#bbbbbb" d="M26.38,-93C26.38,-93 188.12,-93 188.12,-93 194.12,-93 200.12,-99 200.12,-105 200.12,-105 200.12,-158 200.12,-158 200.12,-164 194.12,-170 188.12,-170 188.12,-170 26.37,-170 26.37,-170 20.37,-170 14.38,-164 14.38,-158 14.38,-158 14.38,-105 14.38,-105 14.38,-99 20.38,-93 26.38,-93"/>
<text text-anchor="middle" x="107.25" y="-152.7" font-family="Times,serif" font-size="14.00">ops</text>
</g>
<g id="clust2" class="cluster">
<title>cluster_ops2</title>
<path fill="#e8f5e9" stroke="#bbbbbb" d="M238.5,-93C238.5,-93 534.5,-93 534.5,-93 540.5,-93 546.5,-99 546.5,-105 546.5,-105 546.5,-158 546.5,-158 546.5,-164 540.5,-170 534.5,-170 534.5,-170 238.5,-170 238.5,-170 232.5,-170 226.5,-164 226.5,-158 226.5,-158 226.5,-105 226.5,-105 226.5,-99 232.5,-93 238.5,-93"/>
<text text-anchor="middle" x="386.5" y="-152.7" font-family="Times,serif" font-size="14.00">ops2</text>
</g>
<g id="clust3" class="cluster">
<title>cluster_ops3</title>
<path fill="#e8f5e9" stroke="#bbbbbb" d="M20,-8C20,-8 194.5,-8 194.5,-8 200.5,-8 206.5,-14 206.5,-20 206.5,-20 206.5,-73 206.5,-73 206.5,-79 200.5,-85 194.5,-85 194.5,-85 20,-85 20,-85 14,-85 8,-79 8,-73 8,-73 8,-20 8,-20 8,-14 14,-8 20,-8"/>
<text text-anchor="middle" x="107.25" y="-67.7" font-family="Times,serif" font-size="14.00">ops3</text>
</g>
<g id="clust4" class="cluster">
<title>cluster_ops4</title>
<path fill="#e8f5e9" stroke="#bbbbbb" d="M238.5,-8C238.5,-8 534.5,-8 534.5,-8 540.5,-8 546.5,-14 546.5,-20 546.5,-20 546.5,-73 546.5,-73 546.5,-79 540.5,-85 534.5,-85 534.5,-85 238.5,-85 238.5,-85 232.5,-85 226.5,-79 226.5,-73 226.5,-73 226.5,-20 226.5,-20 226.5,-14 232.5,-8 238.5,-8"/>
<text text-anchor="middle" x="386.5" y="-67.7" font-family="Times,serif" font-size="14.00">ops4</text>
</g>
<g id="clust5" class="cluster">
<title>cluster_ops5</title>
<path fill="#e8f5e9" stroke="#bbbbbb" d="M578.5,-50C578.5,-50 843.75,-50 843.75,-50 849.75,-50 855.75,-56 855.75,-62 855.75,-62 855.75,-115 855.75,-115 855.75,-121 849.75,-127 843.75,-127 843.75,-127 578.5,-127 578.5,-127 572.5,-127 566.5,-121 566.5,-115 566.5,-115 566.5,-62 566.5,-62 566.5,-56 572.5,-50 578.5,-50"/>
<text text-anchor="middle" x="711.12" y="-109.7" font-family="Times,serif" font-size="14.00">ops5</text>
</g>
<!-- n1 -->
<g id="node1" class="node">
<title>n1</title>
<path fill="white" stroke="black" d="M180.12,-137C180.12,-137 34.37,-137 34.37,-137 28.37,-137 22.38,-131 22.38,-125 22.38,-125 22.38,-113 22.38,-113 22.38,-107 28.38,-101 34.38,-101 34.38,-101 180.12,-101 180.12,-101 186.12,-101 192.12,-107 192.12,-113 192.12,-113 192.12,-125 192.12,-125 192.12,-131 186.12,-137 180.12,-137"/>
<text text-anchor="middle" x="107.25" y="-113.2" font-family="Helvetica,sans-Serif" font-size="14.00">n1 filter (ops) group=Poor</text>
</g>
<!-- n2 -->
<g id="node2" class="node">
<title>n2</title>
<path fill="white" stroke="black" d="M526.5,-137C526.5,-137 246.5,-137 246.5,-137 240.5,-137 234.5,-131 234.5,-125 234.5,-125 234.5,-113 234.5,-113 234.5,-107 240.5,-101 246.5,-101 246.5,-101 526.5,-101 526.5,-101 532.5,-101 538.5,-107 538.5,-113 538.5,-113 538.5,-125 538.5,-125 538.5,-131 532.5,-137 526.5,-137"/>
<text text-anchor="middle" x="386.5" y="-113.2" font-family="Helvetica,sans-Serif" font-size="14.00">n2 average (ops2) field=Share_of_Respondents</text>
</g>
<!-- n1&#45;&gt;n2 -->
<g id="edge1" class="edge">
<title>n1&#45;&gt;n2</title>
<path fill="none" stroke="#666666" d="M192.56,-119C202.33,-119 212.53,-119 222.91,-119"/>
<polygon fill="#666666" stroke="#666666" points="222.72,-122.5 232.72,-119 222.72,-115.5 222.72,-122.5"/>
</g>
<!-- n5 -->
<g id="node5" class="node">
<title>n5</title>
<path fill="white" stroke="black" d="M835.75,-94C835.75,-94 586.5,-94 586.5,-94 580.5,-94 574.5,-88 574.5,-82 574.5,-82 574.5,-70 574.5,-70 574.5,-64 580.5,-58 586.5,-58 586.5,-58 835.75,-58 835.75,-58 841.75,-58 847.75,-64 847.75,-70 847.75,-70 847.75,-82 847.75,-82 847.75,-88 841.75,-94 835.75,-94"/>
<text text-anchor="middle" x="711.12" y="-70.2" font-family="Helvetica,sans-Serif" font-size="14.00">n5 diff (ops5) field=Share_of_Respondents</text>
</g>
<!-- n2&#45;&gt;n5 -->
<g id="edge3" class="edge">
<title>n2&#45;&gt;n5</title>
<path fill="none" stroke="#666666" d="M526.19,-100.51C538.35,-98.89 550.69,-97.25 562.92,-95.62"/>
<polygon fill="#666666" stroke="#666666" points="563.16,-99.12 572.61,-94.33 562.23,-92.18 563.16,-99.12"/>
</g>
<!-- n3 -->
<g id="node3" class="node">
<title>n3</title>
<path fill="white" stroke="black" d="M186.5,-52C186.5,-52 28,-52 28,-52 22,-52 16,-46 16,-40 16,-40 16,-28 16,-28 16,-22 22,-16 28,-16 28,-16 186.5,-16 186.5,-16 192.5,-16 198.5,-22 198.5,-28 198.5,-28 198.5,-40 198.5,-40 198.5,-46 192.5,-52 186.5,-52"/>
<text text-anchor="middle" x="107.25" y="-28.2" font-family="Helvetica,sans-Serif" font-size="14.00">n3 filter (ops3) group=Good</text>
</g>
<!-- n4 -->
<g id="node4" class="node">
<title>n4</title>
<path fill="white" stroke="black" d="M526.5,-52C526.5,-52 246.5,-52 246.5,-52 240.5,-52 234.5,-46 234.5,-40 234.5,-40 234.5,-28 234.5,-28 234.5,-22 240.5,-16 246.5,-16 246.5,-16 526.5,-16 526.5,-16 532.5,-16 538.5,-22 538.5,-28 538.5,-28 538.5,-40 538.5,-40 538.5,-46 532.5,-52 526.5,-52"/>
<text text-anchor="middle" x="386.5" y="-28.2" font-family="Helvetica,sans-Serif" font-size="14.00">n4 average (ops4) field=Share_of_Respondents</text>
</g>
<!-- n3&#45;&gt;n4 -->
<g id="edge2" class="edge">
<title>n3&#45;&gt;n4</title>
<path fill="none" stroke="#666666" d="M198.65,-34C206.52,-34 214.64,-34 222.87,-34"/>
<polygon fill="#666666" stroke="#666666" points="222.64,-37.5 232.64,-34 222.64,-30.5 222.64,-37.5"/>
</g>
<!-- n4&#45;&gt;n5 -->
<g id="edge4" class="edge">
<title>n4&#45;&gt;n5</title>
<path fill="none" stroke="#666666" d="M529.48,-52.48C540.57,-53.93 551.79,-55.39 562.92,-56.84"/>
<polygon fill="#666666" stroke="#666666" points="562.14,-60.26 572.51,-58.08 563.04,-53.32 562.14,-60.26"/>
</g>
</g>
</svg>
