<?xml version="1.0" encoding="UTF-8" standalone="no"?>
<!DOCTYPE svg PUBLIC "-//W3C//DTD SVG 1.1//EN"
 "http://www.w3.org/Graphics/SVG/1.1/DTD/svg11.dtd">
<!-- Generated by graphviz version 12.0.0 (0)
 -->
<!-- Title: OpsSpecTree Pages: 1 -->
<svg width="963pt" height="101pt"
 viewBox="0.00 0.00 963.25 101.00" xmlns="http://www.w3.org/2000/svg" xmlns:xlink="http://www.w3.org/1999/xlink">
<g id="graph0" class="graph" transform="scale(1 1) rotate(0) translate(4 97)">
<title>OpsSpecTree</title>
<polygon fill="white" stroke="none" points="-4,4 -4,-97 959.25,-97 959.25,4 -4,4"/>
<g id="clust1" class="cluster">
<title>cluster_ops2</title>
<path fill="#e8f5e9" stroke="#bbbbbb" d="M20,-8C20,-8 304.75,-8 304.75,-8 310.75,-8 316.75,-14 316.75,-20 316.75,-20 316.75,-73 316.75,-73 316.75,-79 310.75,-85 304.75,-85 304.75,-85 20,-85 20,-85 14,-85 8,-79 8,-73 8,-73 8,-20 8,-20 8,-14 14,-8 20,-8"/>
<text text-anchor="middle" x="162.38" y="-67.7" font-family="Times,serif" font-size="14.00">ops2</text>
</g>
<g id="clust2" class="cluster">
<title>cluster_ops3</title>
<path fill="#e8f5e9" stroke="#bbbbbb" d="M348.75,-8C348.75,-8 935.25,-8 935.25,-8 941.25,-8 947.25,-14 947.25,-20 947.25,-20 947.25,-73 947.25,-73 947.25,-79 941.25,-85 935.25,-85 935.25,-85 348.75,-85 348.75,-85 342.75,-85 336.75,-79 336.75,-73 336.75,-73 336.75,-20 336.75,-20 336.75,-14 342.75,-8 348.75,-8"/>
<text text-anchor="middle" x="642" y="-67.7" font-family="Times,serif" font-size="14.00">ops3</text>
</g>
<!-- n1 -->
<g id="node1" class="node">
<title>n1</title>
<path fill="white" stroke="black" d="M296.75,-52C296.75,-52 28,-52 28,-52 22,-52 16,-46 16,-40 16,-40 16,-28 16,-28 16,-22 22,-16 28,-16 28,-16 296.75,-16 296.75,-16 302.75,-16 308.75,-22 308.75,-28 308.75,-28 308.75,-40 308.75,-40 308.75,-46 302.75,-52 296.75,-52"/>
<text text-anchor="middle" x="162.38" y="-28.2" font-family="Helvetica,sans-Serif" font-size="14.00">n1 pairDiff (ops2) field=Revenue_Million_USD</text>
</g>
<!-- n2 -->
<g id="node2" class="node">
<title>n2</title>
<path fill="white" stroke="black" d="M608.25,-52C608.25,-52 356.75,-52 356.75,-52 350.75,-52 344.75,-46 344.75,-40 344.75,-40 344.75,-28 344.75,-28 344.75,-22 350.75,-16 356.75,-16 356.75,-16 608.25,-16 608.25,-16 614.25,-16 620.25,-22 620.25,-28 620.25,-28 620.25,-40 620.25,-40 620.25,-46 614.25,-52 608.25,-52"/>
<text text-anchor="middle" x="482.5" y="-28.2" font-family="Helvetica,sans-Serif" font-size="14.00">n2 filter (ops3) field=Revenue_Million_USD</text>
</g>
<!-- n1&#45;&gt;n2 -->
<g id="edge1" class="edge">
<title>n1&#45;&gt;n2</title>
<path fill="none" stroke="#666666" d="M308.94,-34C316.94,-34 325,-34 333.01,-34"/>
<polygon fill="#666666" stroke="#666666" points="332.8,-37.5 342.8,-34 332.8,-30.5 332.8,-37.5"/>
</g>
<!-- n3 -->
<g id="node3" class="node">
<title>n3</title>
<path fill="white" stroke="black" d="M927.25,-52C927.25,-52 668.25,-52 668.25,-52 662.25,-52 656.25,-46 656.25,-40 656.25,-40 656.25,-28 656.25,-28 656.25,-22 662.25,-16 668.25,-16 668.25,-16 927.25,-16 927.25,-16 933.25,-16 939.25,-22 939.25,-28 939.25,-28 939.25,-40 939.25,-40 939.25,-46 933.25,-52 927.25,-52"/>
<text text-anchor="middle" x="797.75" y="-28.2" font-family="Helvetica,sans-Serif" font-size="14.00">n3 count (ops3) field=Revenue_Million_USD</text>
</g>
<!-- n2&#45;&gt;n3 -->
<g id="edge2" class="edge">
<title>n2&#45;&gt;n3</title>
<path fill="none" stroke="#666666" d="M620.44,-34C628.5,-34 636.62,-34 644.73,-34"/>
<polygon fill="#666666" stroke="#666666" points="644.67,-37.5 654.67,-34 644.67,-30.5 644.67,-37.5"/>
</g>
</g>
</svg>
