<?xml version="1.0" encoding="UTF-8" standalone="no"?>
<!DOCTYPE svg PUBLIC "-//W3C//DTD SVG 1.1//EN"
 "http://www.w3.org/Graphics/SVG/1.1/DTD/svg11.dtd">
<!-- Generated by graphviz version 12.0.0 (0)
 -->
<!-- Title: OpsSpecTree Pages: 1 -->
<svg width="786pt" height="101pt"
 viewBox="0.00 0.00 786.00 101.00" xmlns="http://www.w3.org/2000/svg" xmlns:xlink="http://www.w3.org/1999/xlink">
<g id="graph0" class="graph" transform="scale(1 1) rotate(0) translate(4 97)">
<title>OpsSpecTree</title>
<polygon fill="white" stroke="none" points="-4,4 -4,-97 782,-97 782,4 -4,4"/>
<g id="clust1" class="cluster">
<title>cluster_ops</title>
<path fill="#e8f0fe" stroke="#bbbbbb" d="M20,-8C20,-8 334,-8 334,-8 340,-8 346,-14 346,-20 346,-20 346,-73 346,-73 346,-79 340,-85 334,-85 334,-85 20,-85 20,-85 14,-85 8,-79 8,-73 8,-73 8,-20 8,-20 8,-14 14,-8 20,-8"/>
<text text-anchor="middle" x="177" y="-67.7" font-family="Times,serif" font-size="14.00">ops</text>
</g>
<g id="clust2" class="cluster">
<title>cluster_ops2</title>
<path fill="#e8f5e9" stroke="#bbbbbb" d="M378,-8C378,-8 758,-8 758,-8 764,-8 770,-14 770,-20 770,-20 770,-73 770,-73 770,-79 764,-85 758,-85 758,-85 378,-85 378,-85 372,-85 366,-79 366,-73 366,-73 366,-20 366,-20 366,-14 372,-8 378,-8"/>
<text text-anchor="middle" x="568" y="-67.7" font-family="Times,serif" font-size="14.00">ops2</text>
</g>
<!-- n1 -->
<g id="node1" class="node">
<title>n1</title>
<path fill="white" stroke="black" d="M326,-52C326,-52 28,-52 28,-52 22,-52 16,-46 16,-40 16,-40 16,-28 16,-28 16,-22 22,-16 28,-16 28,-16 326,-16 326,-16 332,-16 338,-22 338,-28 338,-28 338,-40 338,-40 338,-46 332,-52 326,-52"/>
<text text-anchor="middle" x="177" y="-28.2" font-family="Helvetica,sans-Serif" font-size="14.00">n1 sum (ops) field=Decrease_in_GDP_Percentage</text>
</g>
<!-- n2 -->
<g id="node2" class="node">
<title>n2</title>
<path fill="white" stroke="black" d="M750,-52C750,-52 386,-52 386,-52 380,-52 374,-46 374,-40 374,-40 374,-28 374,-28 374,-22 380,-16 386,-16 386,-16 750,-16 750,-16 756,-16 762,-22 762,-28 762,-28 762,-40 762,-40 762,-46 756,-52 750,-52"/>
<text text-anchor="middle" x="568" y="-28.2" font-family="Helvetica,sans-Serif" font-size="14.00">n2 findExtremum (ops2) field=Decrease_in_GDP_Percentage</text>
</g>
<!-- n1&#45;&gt;n2 -->
<g id="edge1" class="edge">
<title>n1&#45;&gt;n2</title>
<path fill="none" stroke="#666666" d="M338.47,-34C346.36,-34 354.33,-34 362.33,-34"/>
<polygon fill="#666666" stroke="#666666" points="362.13,-37.5 372.13,-34 362.13,-30.5 362.13,-37.5"/>
</g>
</g>
</svg>
