<?xml version="1.0" encoding="UTF-8" standalone="no"?>
<!DOCTYPE svg PUBLIC "-//W3C//DTD SVG 1.1//EN"
 "http://www.w3.org/Graphics/SVG/1.1/DTD/svg11.dtd">
<!-- Generated by graphviz version 12.0.0 (0)
 -->
<!-- Title: OpsSpecTree Pages: 1 -->
<svg width="581pt" height="101pt"
 viewBox="0.00 0.00 580.50 101.00" xmlns="http://www.w3.org/2000/svg" xmlns:xlink="http://www.w3.org/1999/xlink">
<g id="graph0" class="graph" transform="scale(1 1) rotate(0) translate(4 97)">
<title>OpsSpecTree</title>
<polygon fill="white" stroke="none" points="-4,4 -4,-97 576.5,-97 576.5,4 -4,4"/>
<g id="clust1" class="cluster">
<title>cluster_ops</title>
<path fill="#e8f0fe" stroke="#bbbbbb" d="M20,-8C20,-8 552.5,-8 552.5,-8 558.5,-8 564.5,-14 564.5,-20 564.5,-20 564.5,-73 564.5,-73 564.5,-79 558.5,-85 552.5,-85 552.5,-85 20,-85 20,-85 14,-85 8,-79 8,-73 8,-73 8,-20 8,-20 8,-14 14,-8 20,-8"/>
<text text-anchor="middle" x="286.25" y="-67.7" font-family="Times,serif" font-size="14.00">ops</text>
</g>
<!-- n1 -->
<g id="node1" class="node">
<title>n1</title>
<path fill="white" stroke="black" d="M226.25,-52C226.25,-52 28,-52 28,-52 22,-52 16,-46 16,-40 16,-40 16,-28 16,-28 16,-22 22,-16 28,-16 28,-16 226.25,-16 226.25,-16 232.25,-16 238.25,-22 238.25,-28 238.25,-28 238.25,-40 238.25,-40 238.25,-46 232.25,-52 226.25,-52"/>
<text text-anchor="middle" x="127.12" y="-28.2" font-family="Helvetica,sans-Serif" font-size="14.00">n1 filter (ops) field=Industry Sector</text>
</g>
<!-- n2 -->
<g id="node2" class="node">
<title>n2</title>
<path fill="white" stroke="black" d="M544.5,-52C544.5,-52 286.25,-52 286.25,-52 280.25,-52 274.25,-46 274.25,-40 274.25,-40 274.25,-28 274.25,-28 274.25,-22 280.25,-16 286.25,-16 286.25,-16 544.5,-16 544.5,-16 550.5,-16 556.5,-22 556.5,-28 556.5,-28 556.5,-40 556.5,-40 556.5,-46 550.5,-52 544.5,-52"/>
<text text-anchor="middle" x="415.38" y="-28.2" font-family="Helvetica,sans-Serif" font-size="14.00">n2 findExtremum (ops) field=Share of SMEs</text>
</g>
<!-- n1&#45;&gt;n2 -->
<g id="edge1" class="edge">
<title>n1&#45;&gt;n2</title>
<path fill="none" stroke="#666666" d="M238.39,-34C246.31,-34 254.37,-34 262.47,-34"/>
<polygon fill="#666666" stroke="#666666" points="262.43,-37.5 272.43,-34 262.43,-30.5 262.43,-37.5"/>
</g>
</g>
</svg>
