<?xml version="1.0" encoding="UTF-8" standalone="no"?>
<!DOCTYPE svg PUBLIC "-//W3C//DTD SVG 1.1//EN"
 "http://www.w3.org/Graphics/SVG/1.1/DTD/svg11.dtd">
<!-- Generated by graphviz version 12.0.0 (0)
 -->
<!-- Title: OpsSpecTree Pages: 1 -->
<svg width="891pt" height="186pt"
 viewBox="0.00 0.00 890.50 186.00" xmlns="http://www.w3.org/2000/svg" xmlns:xlink="http://www.w3.org/1999/xlink">
<g id="graph0" class="graph" transform="scale(1 1) rotate(0) translate(4 182)">
<title>OpsSpecTree</title>
<polygon fill="white" stroke="none" points="-4,4 -4,-182 886.5,-182 886.5,4 -4,4"/>
<g id="clust1" class="cluster">
<title>cluster_ops</title>
<path fill="#e8f0fe" stroke="#bbbbbb" d="M20,-93C20,-93 407.5,-93 407.5,-93 413.5,-93 419.5,-99 419.5,-105 419.5,-105 419.5,-158 419.5,-158 419.5,-164 413.5,-170 407.5,-170 407.5,-170 20,-170 20,-170 14,-170 8,-164 8,-158 8,-158 8,-105 8,-105 8,-99 14,-93 20,-93"/>
<text text-anchor="middle" x="213.75" y="-152.7" font-family="Times,serif" font-size="14.00">ops</text>
</g>
<g id="clust2" class="cluster">
<title>cluster_ops2</title>
<path fill="#e8f5e9" stroke="#bbbbbb" d="M451.5,-93C451.5,-93 551.75,-93 551.75,-93 557.75,-93 563.75,-99 563.75,-105 563.75,-105 563.75,-158 563.75,-158 563.75,-164 557.75,-170 551.75,-170 551.75,-170 451.5,-170 451.5,-170 445.5,-170 439.5,-164 439.5,-158 439.5,-158 439.5,-105 439.5,-105 439.5,-99 445.5,-93 451.5,-93"/>
<text text-anchor="middle" x="501.62" y="-152.7" font-family="Times,serif" font-size="14.00">ops2</text>
</g>
<g id="clust3" class="cluster">
<title>cluster_ops3</title>
<path fill="#e8f5e9" stroke="#bbbbbb" d="M23.38,-8C23.38,-8 404.12,-8 404.12,-8 410.12,-8 416.12,-14 416.12,-20 416.12,-20 416.12,-73 416.12,-73 416.12,-79 410.12,-85 404.12,-85 404.12,-85 23.38,-85 23.38,-85 17.38,-85 11.38,-79 11.38,-73 11.38,-73 11.38,-20 11.38,-20 11.38,-14 17.38,-8 23.38,-8"/>
<text text-anchor="middle" x="213.75" y="-67.7" font-family="Times,serif" font-size="14.00">ops3</text>
</g>
<g id="clust4" class="cluster">
<title>cluster_ops4</title>
<path fill="#e8f5e9" stroke="#bbbbbb" d="M451.5,-8C451.5,-8 551.75,-8 551.75,-8 557.75,-8 563.75,-14 563.75,-20 563.75,-20 563.75,-73 563.75,-73 563.75,-79 557.75,-85 551.75,-85 551.75,-85 451.5,-85 451.5,-85 445.5,-85 439.5,-79 439.5,-73 439.5,-73 439.5,-20 439.5,-20 439.5,-14 445.5,-8 451.5,-8"/>
<text text-anchor="middle" x="501.62" y="-67.7" font-family="Times,serif" font-size="14.00">ops4</text>
</g>
<g id="clust5" class="cluster">
<title>cluster_ops5</title>
<path fill="#e8f5e9" stroke="#bbbbbb" d="M595.75,-50C595.75,-50 862.5,-50 862.5,-50 868.5,-50 874.5,-56 874.5,-62 874.5,-62 874.5,-115 874.5,-115 874.5,-121 868.5,-127 862.5,-127 862.5,-127 595.75,-127 595.75,-127 589.75,-127 583.75,-121 583.75,-115 583.75,-115 583.75,-62 583.75,-62 583.75,-56 589.75,-50 595.75,-50"/>
<text text-anchor="middle" x="729.12" y="-109.7" font-family="Times,serif" font-size="14.00">ops5</text>
</g>
<!-- n1 -->
<g id="node1" class="node">
<title>n1</title>
<path fill="white" stroke="black" d="M399.5,-137C399.5,-137 28,-137 28,-137 22,-137 16,-131 16,-125 16,-125 16,-113 16,-113 16,-107 22,-101 28,-101 28,-101 399.5,-101 399.5,-101 405.5,-101 411.5,-107 411.5,-113 411.5,-113 411.5,-125 411.5,-125 411.5,-131 405.5,-137 399.5,-137"/>
<text text-anchor="middle" x="213.75" y="-113.2" font-family="Helvetica,sans-Serif" font-size="14.00">n1 sum (ops) field=Revenue_Million_Euros group=Commercial</text>
</g>
<!-- n2 -->
<g id="node2" class="node">
<title>n2</title>
<path fill="white" stroke="black" d="M543.75,-137C543.75,-137 459.5,-137 459.5,-137 453.5,-137 447.5,-131 447.5,-125 447.5,-125 447.5,-113 447.5,-113 447.5,-107 453.5,-101 459.5,-101 459.5,-101 543.75,-101 543.75,-101 549.75,-101 555.75,-107 555.75,-113 555.75,-113 555.75,-125 555.75,-125 555.75,-131 549.75,-137 543.75,-137"/>
<text text-anchor="middle" x="501.62" y="-113.2" font-family="Helvetica,sans-Serif" font-size="14.00">n2 scale (ops2)</text>
</g>
<!-- n1&#45;&gt;n2 -->
<g id="edge1" class="edge">
<title>n1&#45;&gt;n2</title>
<path fill="none" stroke="#666666" d="M411.74,-119C419.99,-119 427.96,-119 435.51,-119"/>
<polygon fill="#666666" stroke="#666666" points="435.5,-122.5 445.5,-119 435.5,-115.5 435.5,-122.5"/>
</g>
<!-- n5 -->
<g id="node5" class="node">
<title>n5</title>
<path fill="white" stroke="black" d="M854.5,-94C854.5,-94 603.75,-94 603.75,-94 597.75,-94 591.75,-88 591.75,-82 591.75,-82 591.75,-70 591.75,-70 591.75,-64 597.75,-58 603.75,-58 603.75,-58 854.5,-58 854.5,-58 860.5,-58 866.5,-64 866.5,-70 866.5,-70 866.5,-82 866.5,-82 866.5,-88 860.5,-94 854.5,-94"/>
<text text-anchor="middle" x="729.12" y="-70.2" font-family="Helvetica,sans-Serif" font-size="14.00">n5 diff (ops5) field=Revenue_Million_Euros</text>
</g>
<!-- n2&#45;&gt;n5 -->
<g id="edge3" class="edge">
<title>n2&#45;&gt;n5</title>
<path fill="none" stroke="#666666" d="M556.07,-108.81C575.34,-105.13 597.85,-100.84 620.11,-96.6"/>
<polygon fill="#666666" stroke="#666666" points="620.7,-100.05 629.87,-94.74 619.39,-93.17 620.7,-100.05"/>
</g>
<!-- n3 -->
<g id="node3" class="node">
<title>n3</title>
<path fill="white" stroke="black" d="M396.12,-52C396.12,-52 31.38,-52 31.38,-52 25.38,-52 19.37,-46 19.37,-40 19.37,-40 19.37,-28 19.37,-28 19.37,-22 25.37,-16 31.37,-16 31.37,-16 396.12,-16 396.12,-16 402.12,-16 408.12,-22 408.12,-28 408.12,-28 408.12,-40 408.12,-40 408.12,-46 402.12,-52 396.12,-52"/>
<text text-anchor="middle" x="213.75" y="-28.2" font-family="Helvetica,sans-Serif" font-size="14.00">n3 sum (ops3) field=Revenue_Million_Euros group=Matchday</text>
</g>
<!-- n4 -->
<g id="node4" class="node">
<title>n4</title>
<path fill="white" stroke="black" d="M543.75,-52C543.75,-52 459.5,-52 459.5,-52 453.5,-52 447.5,-46 447.5,-40 447.5,-40 447.5,-28 447.5,-28 447.5,-22 453.5,-16 459.5,-16 459.5,-16 543.75,-16 543.75,-16 549.75,-16 555.75,-22 555.75,-28 555.75,-28 555.75,-40 555.75,-40 555.75,-46 549.75,-52 543.75,-52"/>
<text text-anchor="middle" x="501.62" y="-28.2" font-family="Helvetica,sans-Serif" font-size="14.00">n4 scale (ops4)</text>
</g>
<!-- n3&#45;&gt;n4 -->
<g id="edge2" class="edge">
<title>n3&#45;&gt;n4</title>
<path fill="none" stroke="#666666" d="M408.6,-34C418.05,-34 427.15,-34 435.72,-34"/>
<polygon fill="#666666" stroke="#666666" points="435.53,-37.5 445.53,-34 435.53,-30.5 435.53,-37.5"/>
</g>
<!-- n4&#45;&gt;n5 -->
<g id="edge4" class="edge">
<title>n4&#45;&gt;n5</title>
<path fill="none" stroke="#666666" d="M556.07,-43.95C574.7,-47.42 596.35,-51.46 617.88,-55.47"/>
<polygon fill="#666666" stroke="#666666" points="617.16,-58.89 627.63,-57.28 618.44,-52.01 617.16,-58.89"/>
</g>
</g>
</svg>
