<?xml version="1.0" encoding="UTF-8" standalone="no"?>
<!DOCTYPE svg PUBLIC "-//W3C//DTD SVG 1.1//EN"
 "http://www.w3.org/Graphics/SVG/1.1/DTD/svg11.dtd">
<!-- Generated by graphviz version 12.0.0 (0)
 -->
<!-- Title: OpsSpecTree Pages: 1 -->
<svg width="700pt" height="101pt"
 viewBox="0.00 0.00 699.75 101.00" xmlns="http://www.w3.org/2000/svg" xmlns:xlink="http://www.w3.org/1999/xlink">
<g id="graph0" class="graph" transform="scale(1 1) rotate(0) translate(4 97)">
<title>OpsSpecTree</title>
<polygon fill="white" stroke="none" points="-4,4 -4,-97 695.75,-97 695.75,4 -4,4"/>
<g id="clust1" class="cluster">
<title>cluster_ops</title>
<path fill="#e8f0fe" stroke="#bbbbbb" d="M20,-8C20,-8 289,-8 289,-8 295,-8 301,-14 301,-20 301,-20 301,-73 301,-73 301,-79 295,-85 289,-85 289,-85 20,-85 20,-85 14,-85 8,-79 8,-73 8,-73 8,-20 8,-20 8,-14 14,-8 20,-8"/>
<text text-anchor="middle" x="154.5" y="-67.7" font-family="Times,serif" font-size="14.00">ops</text>
</g>
<g id="clust2" class="cluster">
<title>cluster_ops2</title>
<path fill="#e8f5e9" stroke="#bbbbbb" d="M333,-8C333,-8 671.75,-8 671.75,-8 677.75,-8 683.75,-14 683.75,-20 683.75,-20 683.75,-73 683.75,-73 683.75,-79 677.75,-85 671.75,-85 671.75,-85 333,-85 333,-85 327,-85 321,-79 321,-73 321,-73 321,-20 321,-20 321,-14 327,-8 333,-8"/>
<text text-anchor="middle" x="502.38" y="-67.7" font-family="Times,serif" font-size="14.00">ops2</text>
</g>
<!-- n1 -->
<g id="node1" class="node">
<title>n1</title>
<path fill="white" stroke="black" d="M281,-52C281,-52 28,-52 28,-52 22,-52 16,-46 16,-40 16,-40 16,-28 16,-28 16,-22 22,-16 28,-16 28,-16 281,-16 281,-16 287,-16 293,-22 293,-28 293,-28 293,-40 293,-40 293,-46 287,-52 281,-52"/>
<text text-anchor="middle" x="154.5" y="-28.2" font-family="Helvetica,sans-Serif" font-size="14.00">n1 sort (ops) field=Operating_Profit_Margin</text>
</g>
<!-- n2 -->
<g id="node2" class="node">
<title>n2</title>
<path fill="white" stroke="black" d="M663.75,-52C663.75,-52 341,-52 341,-52 335,-52 329,-46 329,-40 329,-40 329,-28 329,-28 329,-22 335,-16 341,-16 341,-16 663.75,-16 663.75,-16 669.75,-16 675.75,-22 675.75,-28 675.75,-28 675.75,-40 675.75,-40 675.75,-46 669.75,-52 663.75,-52"/>
<text text-anchor="middle" x="502.38" y="-28.2" font-family="Helvetica,sans-Serif" font-size="14.00">n2 findExtremum (ops2) field=Operating_Profit_Margin</text>
</g>
<!-- n1&#45;&gt;n2 -->
<g id="edge1" class="edge">
<title>n1&#45;&gt;n2</title>
<path fill="none" stroke="#666666" d="M293.19,-34C301.13,-34 309.17,-34 317.25,-34"/>
<polygon fill="#666666" stroke="#666666" points="317.17,-37.5 327.17,-34 317.17,-30.5 317.17,-37.5"/>
</g>
</g>
</svg>
