<?xml version="1.0" encoding="UTF-8" standalone="no"?>
<!DOCTYPE svg PUBLIC "-//W3C//DTD SVG 1.1//EN"
 "http://www.w3.org/Graphics/SVG/1.1/DTD/svg11.dtd">
<!-- Generated by graphviz version 12.0.0 (0)
 -->
<!-- Title: OpsSpecTree Pages: 1 -->
<svg width="1094pt" height="101pt"
 viewBox="0.00 0.00 1094.00 101.00" xmlns="http://www.w3.org/2000/svg" xmlns:xlink="http://www.w3.org/1999/xlink">
<g id="graph0" class="graph" transform="scale(1 1) rotate(0) translate(4 97)">
<title>OpsSpecTree</title>
<polygon fill="white" stroke="none" points="-4,4 -4,-97 1090,-97 1090,4 -4,4"/>
<g id="clust1" class="cluster">
<title>cluster_ops</title>
<path fill="#e8f0fe" stroke="#bbbbbb" d="M20,-8C20,-8 106.75,-8 106.75,-8 112.75,-8 118.75,-14 118.75,-20 118.75,-20 118.75,-73 118.75,-73 118.75,-79 112.75,-85 106.75,-85 106.75,-85 20,-85 20,-85 14,-85 8,-79 8,-73 8,-73 8,-20 8,-20 8,-14 14,-8 20,-8"/>
<text text-anchor="middle" x="63.38" y="-67.7" font-family="Times,serif" font-size="14.00">ops</text>
</g>
<g id="clust2" class="cluster">
<title>cluster_ops2</title>
<path fill="#e8f5e9" stroke="#bbbbbb" d="M150.75,-8C150.75,-8 435.5,-8 435.5,-8 441.5,-8 447.5,-14 447.5,-20 447.5,-20 447.5,-73 447.5,-73 447.5,-79 441.5,-85 435.5,-85 435.5,-85 150.75,-85 150.75,-85 144.75,-85 138.75,-79 138.75,-73 138.75,-73 138.75,-20 138.75,-20 138.75,-14 144.75,-8 150.75,-8"/>
<text text-anchor="middle" x="293.12" y="-67.7" font-family="Times,serif" font-size="14.00">ops2</text>
</g>
<g id="clust3" class="cluster">
<title>cluster_ops3</title>
<path fill="#e8f5e9" stroke="#bbbbbb" d="M479.5,-8C479.5,-8 1066,-8 1066,-8 1072,-8 1078,-14 1078,-20 1078,-20 1078,-73 1078,-73 1078,-79 1072,-85 1066,-85 1066,-85 479.5,-85 479.5,-85 473.5,-85 467.5,-79 467.5,-73 467.5,-73 467.5,-20 467.5,-20 467.5,-14 473.5,-8 479.5,-8"/>
<text text-anchor="middle" x="772.75" y="-67.7" font-family="Times,serif" font-size="14.00">ops3</text>
</g>
<!-- n1 -->
<g id="node1" class="node">
<title>n1</title>
<path fill="white" stroke="black" d="M98.75,-52C98.75,-52 28,-52 28,-52 22,-52 16,-46 16,-40 16,-40 16,-28 16,-28 16,-22 22,-16 28,-16 28,-16 98.75,-16 98.75,-16 104.75,-16 110.75,-22 110.75,-28 110.75,-28 110.75,-40 110.75,-40 110.75,-46 104.75,-52 98.75,-52"/>
<text text-anchor="middle" x="63.38" y="-28.2" font-family="Helvetica,sans-Serif" font-size="14.00">n1 filter (ops)</text>
</g>
<!-- n2 -->
<g id="node2" class="node">
<title>n2</title>
<path fill="white" stroke="black" d="M427.5,-52C427.5,-52 158.75,-52 158.75,-52 152.75,-52 146.75,-46 146.75,-40 146.75,-40 146.75,-28 146.75,-28 146.75,-22 152.75,-16 158.75,-16 158.75,-16 427.5,-16 427.5,-16 433.5,-16 439.5,-22 439.5,-28 439.5,-28 439.5,-40 439.5,-40 439.5,-46 433.5,-52 427.5,-52"/>
<text text-anchor="middle" x="293.12" y="-28.2" font-family="Helvetica,sans-Serif" font-size="14.00">n2 pairDiff (ops2) field=Revenue_Million_USD</text>
</g>
<!-- n1&#45;&gt;n2 -->
<g id="edge1" class="edge">
<title>n1&#45;&gt;n2</title>
<path fill="none" stroke="#666666" d="M111.01,-34C118.52,-34 126.64,-34 135.14,-34"/>
<polygon fill="#666666" stroke="#666666" points="134.99,-37.5 144.99,-34 134.99,-30.5 134.99,-37.5"/>
</g>
<!-- n3 -->
<g id="node3" class="node">
<title>n3</title>
<path fill="white" stroke="black" d="M739,-52C739,-52 487.5,-52 487.5,-52 481.5,-52 475.5,-46 475.5,-40 475.5,-40 475.5,-28 475.5,-28 475.5,-22 481.5,-16 487.5,-16 487.5,-16 739,-16 739,-16 745,-16 751,-22 751,-28 751,-28 751,-40 751,-40 751,-46 745,-52 739,-52"/>
<text text-anchor="middle" x="613.25" y="-28.2" font-family="Helvetica,sans-Serif" font-size="14.00">n3 filter (ops3) field=Revenue_Million_USD</text>
</g>
<!-- n2&#45;&gt;n3 -->
<g id="edge2" class="edge">
<title>n2&#45;&gt;n3</title>
<path fill="none" stroke="#666666" d="M439.69,-34C447.69,-34 455.75,-34 463.76,-34"/>
<polygon fill="#666666" stroke="#666666" points="463.55,-37.5 473.55,-34 463.55,-30.5 463.55,-37.5"/>
</g>
<!-- n4 -->
<g id="node4" class="node">
<title>n4</title>
<path fill="white" stroke="black" d="M1058,-52C1058,-52 799,-52 799,-52 793,-52 787,-46 787,-40 787,-40 787,-28 787,-28 787,-22 793,-16 799,-16 799,-16 1058,-16 1058,-16 1064,-16 1070,-22 1070,-28 1070,-28 1070,-40 1070,-40 1070,-46 1064,-52 1058,-52"/>
<text text-anchor="middle" x="928.5" y="-28.2" font-family="Helvetica,sans-Serif" font-size="14.00">n4 count (ops3) field=Revenue_Million_USD</text>
</g>
<!-- n3&#45;&gt;n4 -->
<g id="edge3" class="edge">
<title>n3&#45;&gt;n4</title>
<path fill="none" stroke="#666666" d="M751.19,-34C759.25,-34 767.37,-34 775.48,-34"/>
<polygon fill="#666666" stroke="#666666" points="775.42,-37.5 785.42,-34 775.42,-30.5 775.42,-37.5"/>
</g>
</g>
</svg>
