<?xml version="1.0" encoding="UTF-8" standalone="no"?>
<!DOCTYPE svg PUBLIC "-//W3C//DTD SVG 1.1//EN"
 "http://www.w3.org/Graphics/SVG/1.1/DTD/svg11.dtd">
<!-- Generated by graphviz version 12.0.0 (0)
 -->
<!-- Title: OpsSpecTree Pages: 1 -->
<svg width="713pt" height="101pt"
 viewBox="0.00 0.00 712.50 101.00" xmlns="http://www.w3.org/2000/svg" xmlns:xlink="http://www.w3.org/1999/xlink">
<g id="graph0" class="graph" transform="scale(1 1) rotate(0) translate(4 97)">
<title>OpsSpecTree</title>
<polygon fill="white" stroke="none" points="-4,4 -4,-97 708.5,-97 708.5,4 -4,4"/>
<g id="clust1" class="cluster">
<title>cluster_ops</title>
<path fill="#e8f0fe" stroke="#bbbbbb" d="M20,-8C20,-8 305.5,-8 305.5,-8 311.5,-8 317.5,-14 317.5,-20 317.5,-20 317.5,-73 317.5,-73 317.5,-79 311.5,-85 305.5,-85 305.5,-85 20,-85 20,-85 14,-85 8,-79 8,-73 8,-73 8,-20 8,-20 8,-14 14,-8 20,-8"/>
<text text-anchor="middle" x="162.75" y="-67.7" font-family="Times,serif" font-size="14.00">ops</text>
</g>
<g id="clust2" class="cluster">
<title>cluster_ops2</title>
<path fill="#e8f5e9" stroke="#bbbbbb" d="M349.5,-8C349.5,-8 684.5,-8 684.5,-8 690.5,-8 696.5,-14 696.5,-20 696.5,-20 696.5,-73 696.5,-73 696.5,-79 690.5,-85 684.5,-85 684.5,-85 349.5,-85 349.5,-85 343.5,-85 337.5,-79 337.5,-73 337.5,-73 337.5,-20 337.5,-20 337.5,-14 343.5,-8 349.5,-8"/>
<text text-anchor="middle" x="517" y="-67.7" font-family="Times,serif" font-size="14.00">ops2</text>
</g>
<!-- n1 -->
<g id="node1" class="node">
<title>n1</title>
<path fill="white" stroke="black" d="M297.5,-52C297.5,-52 28,-52 28,-52 22,-52 16,-46 16,-40 16,-40 16,-28 16,-28 16,-22 22,-16 28,-16 28,-16 297.5,-16 297.5,-16 303.5,-16 309.5,-22 309.5,-28 309.5,-28 309.5,-40 309.5,-40 309.5,-46 303.5,-52 297.5,-52"/>
<text text-anchor="middle" x="162.75" y="-28.2" font-family="Helvetica,sans-Serif" font-size="14.00">n1 pairDiff (ops) field=Life expectancy in years</text>
</g>
<!-- n2 -->
<g id="node2" class="node">
<title>n2</title>
<path fill="white" stroke="black" d="M676.5,-52C676.5,-52 357.5,-52 357.5,-52 351.5,-52 345.5,-46 345.5,-40 345.5,-40 345.5,-28 345.5,-28 345.5,-22 351.5,-16 357.5,-16 357.5,-16 676.5,-16 676.5,-16 682.5,-16 688.5,-22 688.5,-28 688.5,-28 688.5,-40 688.5,-40 688.5,-46 682.5,-52 676.5,-52"/>
<text text-anchor="middle" x="517" y="-28.2" font-family="Helvetica,sans-Serif" font-size="14.00">n2 findExtremum (ops2) field=Life expectancy in years</text>
</g>
<!-- n1&#45;&gt;n2 -->
<g id="edge1" class="edge">
<title>n1&#45;&gt;n2</title>
<path fill="none" stroke="#666666" d="M309.82,-34C317.73,-34 325.72,-34 333.72,-34"/>
<polygon fill="#666666" stroke="#666666" points="333.53,-37.5 343.53,-34 333.53,-30.5 333.53,-37.5"/>
</g>
</g>
</svg>
