<?xml version="1.0" encoding="UTF-8" standalone="no"?>
<!DOCTYPE svg PUBLIC "-//W3C//DTD SVG 1.1//EN"
 "http://www.w3.org/Graphics/SVG/1.1/DTD/svg11.dtd">
<!-- Generated by graphviz version 12.0.0 (0)
 -->
<!-- Title: OpsSpecTree Pages: 1 -->
<svg width="572pt" height="101pt"
 viewBox="0.00 0.00 572.25 101.00" xmlns="http://www.w3.org/2000/svg" xmlns:xlink="http://www.w3.org/1999/xlink">
<g id="graph0" class="graph" transform="scale(1 1) rotate(0) translate(4 97)">
<title>OpsSpecTree</title>
<polygon fill="white" stroke="none" points="-4,4 -4,-97 568.25,-97 568.25,4 -4,4"/>
<g id="clust1" class="cluster">
<title>cluster_ops</title>
<path fill="#e8f0fe" stroke="#bbbbbb" d="M20,-8C20,-8 217.75,-8 217.75,-8 223.75,-8 229.75,-14 229.75,-20 229.75,-20 229.75,-73 229.75,-73 229.75,-79 223.75,-85 217.75,-85 217.75,-85 20,-85 20,-85 14,-85 8,-79 8,-73 8,-73 8,-20 8,-20 8,-14 14,-8 20,-8"/>
<text text-anchor="middle" x="118.88" y="-67.7" font-family="Times,serif" font-size="14.00">ops</text>
</g>
<g id="clust2" class="cluster">
<title>cluster_ops2</title>
<path fill="#e8f5e9" stroke="#bbbbbb" d="M261.75,-8C261.75,-8 544.25,-8 544.25,-8 550.25,-8 556.25,-14 556.25,-20 556.25,-20 556.25,-73 556.25,-73 556.25,-79 550.25,-85 544.25,-85 544.25,-85 261.75,-85 261.75,-85 255.75,-85 249.75,-79 249.75,-73 249.75,-73 249.75,-20 249.75,-20 249.75,-14 255.75,-8 261.75,-8"/>
<text text-anchor="middle" x="403" y="-67.7" font-family="Times,serif" font-size="14.00">ops2</text>
</g>
<!-- n1 -->
<g id="node1" class="node">
<title>n1</title>
<path fill="white" stroke="black" d="M209.75,-52C209.75,-52 28,-52 28,-52 22,-52 16,-46 16,-40 16,-40 16,-28 16,-28 16,-22 22,-16 28,-16 28,-16 209.75,-16 209.75,-16 215.75,-16 221.75,-22 221.75,-28 221.75,-28 221.75,-40 221.75,-40 221.75,-46 215.75,-52 209.75,-52"/>
<text text-anchor="middle" x="118.88" y="-28.2" font-family="Helvetica,sans-Serif" font-size="14.00">n1 filter (ops) group=Agriculture</text>
</g>
<!-- n2 -->
<g id="node2" class="node">
<title>n2</title>
<path fill="white" stroke="black" d="M536.25,-52C536.25,-52 269.75,-52 269.75,-52 263.75,-52 257.75,-46 257.75,-40 257.75,-40 257.75,-28 257.75,-28 257.75,-22 263.75,-16 269.75,-16 269.75,-16 536.25,-16 536.25,-16 542.25,-16 548.25,-22 548.25,-28 548.25,-28 548.25,-40 548.25,-40 548.25,-46 542.25,-52 536.25,-52"/>
<text text-anchor="middle" x="403" y="-28.2" font-family="Helvetica,sans-Serif" font-size="14.00">n2 findExtremum (ops2) field=Share_of_GDP</text>
</g>
<!-- n1&#45;&gt;n2 -->
<g id="edge1" class="edge">
<title>n1&#45;&gt;n2</title>
<path fill="none" stroke="#666666" d="M222.13,-34C229.95,-34 237.95,-34 246.01,-34"/>
<polygon fill="#666666" stroke="#666666" points="245.93,-37.5 255.93,-34 245.93,-30.5 245.93,-37.5"/>
</g>
</g>
</svg>
